<svg width="118" height="64" viewBox="0 0 118 64" fill="none" xmlns="http://www.w3.org/2000/svg">
<g clip-path="url(#clip0_1047_2625)">
<path d="M21.2129 28.9331C17.7605 30.3026 13.6359 31.1336 10.5212 31.1336C4.46229 31.1336 0 27.8968 0 23.4554V6.64197H9.25891V18.6809C9.25891 21.7528 10.8999 23.2871 14.2261 23.2871C16.0342 23.2871 18.5178 22.6647 20.8752 21.5442V6.64197H30.1341V30.7164H21.9703L21.2129 28.9331Z" fill="#2DB478"/>
<path d="M42.5077 6.64195L44.4011 9.25633C47.0109 7.34854 50.5896 6.22473 54.4174 6.22473C55.973 6.22473 57.6174 6.43334 58.2485 6.59821V14.8182C57.0272 14.5692 55.8059 14.4447 54.6289 14.4447C50.5043 14.4851 46.3798 15.7738 44.4454 18.5126V30.7164H35.1865V6.64195H42.5111H42.5077Z" fill="#2DB478"/>
<path d="M61.6123 0H70.8712V7.63787C73.1433 6.76642 76.0056 6.2247 78.9941 6.2247C87.789 6.2247 93.7251 11.0396 93.7251 18.6775C93.7251 26.3153 87.7924 31.1302 78.9941 31.1302C75.586 31.1302 72.3859 30.4236 69.9467 29.3469L68.9369 30.7164H61.6123V0ZM84.2137 18.6808C84.2137 15.4844 81.8564 13.7011 76.6811 13.7011C74.6205 13.7011 72.5565 13.9904 70.8746 14.4077V23.0415C72.3484 23.415 74.2009 23.664 76.3467 23.664C81.8598 23.664 84.2171 21.8807 84.2171 18.6842L84.2137 18.6808Z" fill="#2DB478"/>
<path d="M44.4863 30.74H53.7452V54.4006L55.5772 61.4564H44.4863V30.74Z" fill="#004047"/>
<path d="M105.508 29.5354V37.3819H116.62V44.0238H105.508V51.8265C105.508 53.4853 107.149 54.4409 110.012 54.4409C112.369 54.4409 115.358 54.0674 117.166 53.445V60.6252C115.692 61.2881 112.748 61.8702 109.169 61.8702C101.258 61.8702 96.2495 58.6737 96.2495 53.6098V44.0204H91.5791V37.3785H96.2495V32.1498L105.508 29.5354Z" fill="#004047"/>
<path d="M88.1542 56.2175C88.8331 55.3292 89.3278 54.34 89.5768 53.2296C89.9282 52.052 90.109 50.7835 90.109 49.4275C90.109 41.9545 84.7631 36.9747 73.8223 36.9747C62.8815 36.9747 57.5356 41.9545 57.5356 49.4275C57.5356 50.7296 57.7028 51.951 58.0269 53.0883C58.3408 54.7168 59.1527 56.0761 60.2922 57.237C61.4282 58.5088 62.9225 59.5519 64.7715 60.3258C67.6509 61.7793 70.9805 62.8695 73.8223 64C76.5208 62.957 79.6629 61.887 82.4399 60.5007C84.978 59.525 86.8817 58.0647 88.1542 56.2175ZM73.8189 44.4477C78.0697 44.4477 80.5942 46.2344 80.5942 49.4275C80.5942 52.6206 78.0697 54.4073 73.8189 54.4073C69.5681 54.4073 67.0436 52.624 67.0436 49.4275C67.0436 46.231 69.5681 44.4477 73.8189 44.4477Z" fill="#004047"/>
</g>
<defs>
<clipPath id="clip0_1047_2625">
<rect width="117.169" height="64" fill="white"/>
</clipPath>
</defs>
</svg>
