<svg xmlns="http://www.w3.org/2000/svg" width="40" height="40" viewBox="0 0 40 40">
  <g id="Grupo_1362" data-name="Grupo 1362" transform="translate(7720 -8405)">
    <rect id="Retângulo_1565" data-name="Retângulo 1565" width="40" height="40" transform="translate(-7720 8405)" fill="none"/>
    <g id="speedboat" transform="translate(-7719.999 8322.988)">
      <g id="Grupo_1359" data-name="Grupo 1359" transform="translate(15.949 92.448)">
        <path id="Caminho_7757" data-name="Caminho 7757" d="M206.543,173.717a.781.781,0,0,1-.781-.781V172a2.521,2.521,0,0,0-1.211-2.139.781.781,0,1,1,.811-1.335A4.092,4.092,0,0,1,207.324,172v.939A.781.781,0,0,1,206.543,173.717Z" transform="translate(-204.174 -168.409)" fill="#004b41"/>
      </g>
      <g id="Grupo_1360" data-name="Grupo 1360" transform="translate(1.562 92.871)">
        <path id="Caminho_7758" data-name="Caminho 7758" d="M21.624,295.03a3.4,3.4,0,0,0,2.4-1,3.417,3.417,0,0,0,4.8,0,3.417,3.417,0,0,0,4.8,0,3.417,3.417,0,0,0,4.8,0,3.417,3.417,0,0,0,4.8,0,3.417,3.417,0,0,0,4.8,0,3.417,3.417,0,0,0,4.8,0l2.588-5.02H45.554l-6.875,1.953H20l.852,3.691.081.3a3.4,3.4,0,0,0,.689.071Z" transform="translate(-20.003 -280.016)" fill="#55d6a1" fill-rule="evenodd"/>
        <path id="Caminho_7759" data-name="Caminho 7759" d="M176.323,180.918h3.139l8.97-2.4h4.724l-2.851-4.7h-3.748l-7.253,4.027Z" transform="translate(-164.111 -173.816)" fill="#55d6a1" fill-rule="evenodd"/>
      </g>
      <g id="Grupo_1361" data-name="Grupo 1361" transform="translate(-0.001 86.011)">
        <path id="Caminho_7760" data-name="Caminho 7760" d="M.228,106.338a.781.781,0,0,0,0,1.1,4.181,4.181,0,0,0,5.357.466,4.2,4.2,0,0,0,4.8,0,4.2,4.2,0,0,0,4.8,0,4.2,4.2,0,0,0,4.8,0,4.2,4.2,0,0,0,4.8,0,4.2,4.2,0,0,0,4.8,0,4.2,4.2,0,0,0,4.8,0,4.181,4.181,0,0,0,5.357-.466.781.781,0,1,0-1.1-1.1,2.629,2.629,0,0,1-3.268.349l4.515-8.76a.787.787,0,0,0-.694-1.139H25.883a.778.778,0,0,0-.2.027l-8.871,2.377H12.537V96.036a2.52,2.52,0,0,1,1.023-2.012,2.665,2.665,0,0,0,4.133-2.206V90.88a2.656,2.656,0,0,0-5.312,0v.937a2.643,2.643,0,0,0,.193.993,4.092,4.092,0,0,0-1.6,3.225v3.156H6.054v-6.1a5.591,5.591,0,0,0-1.209-3.48A2.539,2.539,0,1,0,0,88.551a2.549,2.549,0,0,0,3.763,2.224,4.034,4.034,0,0,1,.729,2.317v6.1h-1.9a.781.781,0,0,0-.755.579l-1.032,3.85A.781.781,0,0,0,.8,104l.542,2.349-.009-.009a.781.781,0,0,0-1.1,0ZM13.943,90.88a1.094,1.094,0,0,1,2.187,0v.937a1.094,1.094,0,0,1-2.187,0ZM1.562,88.55a.977.977,0,1,1,.977.977A.978.978,0,0,1,1.562,88.55Zm.8,15.287.826-3.083h13.72a.778.778,0,0,0,.2-.027l8.871-2.377H37.934l-4.158,8.066a2.628,2.628,0,0,1-3.617-.079.781.781,0,0,0-1.1,0,2.628,2.628,0,0,1-3.7,0,.781.781,0,0,0-1.1,0,2.628,2.628,0,0,1-3.7,0,.786.786,0,0,0-1.1,0,2.628,2.628,0,0,1-3.7,0,.781.781,0,0,0-1.1,0,2.628,2.628,0,0,1-3.7,0,.781.781,0,0,0-1.1,0,2.628,2.628,0,0,1-3.7,0,.781.781,0,0,0-1.1,0,2.6,2.6,0,0,1-1.912.766Z" transform="translate(0.001 -86.011)" fill="#004b41"/>
        <path id="Caminho_7761" data-name="Caminho 7761" d="M38.667,393.507a2.628,2.628,0,0,1-3.7,0,.781.781,0,0,0-1.1,0,2.628,2.628,0,0,1-3.7,0,.781.781,0,0,0-1.1,0,2.628,2.628,0,0,1-3.7,0,.781.781,0,0,0-1.1,0,2.628,2.628,0,0,1-3.7,0,.786.786,0,0,0-1.1,0,2.628,2.628,0,0,1-3.7,0,.781.781,0,0,0-1.1,0,2.628,2.628,0,0,1-3.7,0,.781.781,0,0,0-1.1,0,2.628,2.628,0,0,1-3.7,0,.781.781,0,0,0-1.1,0,2.628,2.628,0,0,1-3.7,0,.781.781,0,0,0-1.1,1.1,4.181,4.181,0,0,0,5.357.466,4.2,4.2,0,0,0,4.8,0,4.2,4.2,0,0,0,4.8,0,4.2,4.2,0,0,0,4.8,0,4.2,4.2,0,0,0,4.8,0,4.2,4.2,0,0,0,4.8,0,4.2,4.2,0,0,0,4.8,0,4.181,4.181,0,0,0,5.357-.466.781.781,0,0,0-1.1-1.1Z" transform="translate(-0.002 -369.274)" fill="#004b41"/>
        <path id="Caminho_7764" data-name="Caminho 7764" d="M38.667,393.507a2.628,2.628,0,0,1-3.7,0,.781.781,0,0,0-1.1,0,2.628,2.628,0,0,1-3.7,0,.781.781,0,0,0-1.1,0,2.628,2.628,0,0,1-3.7,0,.781.781,0,0,0-1.1,0,2.628,2.628,0,0,1-3.7,0,.786.786,0,0,0-1.1,0,2.628,2.628,0,0,1-3.7,0,.781.781,0,0,0-1.1,0,2.628,2.628,0,0,1-3.7,0,.781.781,0,0,0-1.1,0,2.628,2.628,0,0,1-3.7,0,.781.781,0,0,0-1.1,0,2.628,2.628,0,0,1-3.7,0,.781.781,0,0,0-1.1,1.1,4.181,4.181,0,0,0,5.357.466,4.2,4.2,0,0,0,4.8,0,4.2,4.2,0,0,0,4.8,0,4.2,4.2,0,0,0,4.8,0,4.2,4.2,0,0,0,4.8,0,4.2,4.2,0,0,0,4.8,0,4.2,4.2,0,0,0,4.8,0,4.181,4.181,0,0,0,5.357-.466.781.781,0,0,0-1.1-1.1Z" transform="translate(-0.002 -365.274)" fill="#004b41"/>
        <path id="Caminho_7762" data-name="Caminho 7762" d="M369.715,265.99a.782.782,0,0,0,1.052-.336l.633-1.229a.781.781,0,1,0-1.389-.716l-.633,1.229A.781.781,0,0,0,369.715,265.99Z" transform="translate(-340.442 -249.437)" fill="#004b41"/>
        <path id="Caminho_7763" data-name="Caminho 7763" d="M414.715,265.99a.782.782,0,0,0,1.052-.337l.633-1.228a.781.781,0,1,0-1.389-.716l-.633,1.228A.781.781,0,0,0,414.715,265.99Z" transform="translate(-381.927 -249.437)" fill="#004b41"/>
      </g>
    </g>
  </g>
</svg>
