<svg xmlns="http://www.w3.org/2000/svg" width="40" height="40" viewBox="0 0 40 40">
  <g id="help" transform="translate(-3 -3)">
    <path id="Caminho_7757" data-name="Caminho 7757" d="M24.917,4.125c6.308,2.248,11.594,8.254,11.594,15.332,0,9-6,17.054-17.375,17.054-7.077,0-12.769-5.288-15.011-11.594A18.451,18.451,0,1,0,24.917,4.125Z" transform="translate(0.606 0.606)" fill="#55d6a1"/>
    <g id="Grupo_1357" data-name="Grupo 1357" transform="translate(3 3)">
      <path id="Caminho_7758" data-name="Caminho 7758" d="M23,43A20,20,0,1,1,43,23,20,20,0,0,1,23,43ZM23,6.077A16.923,16.923,0,1,0,39.923,23,16.923,16.923,0,0,0,23,6.077Z" transform="translate(-3 -3)" fill="#07484b"/>
      <path id="Caminho_7759" data-name="Caminho 7759" d="M18.154,25.385a1.538,1.538,0,0,1-1.538-1.538,7.122,7.122,0,0,1,2.758-4.934c.955-.955,1.857-1.857,1.857-2.758a3.077,3.077,0,1,0-6.154,0,1.538,1.538,0,0,1-3.077,0,6.154,6.154,0,1,1,12.308,0,7.122,7.122,0,0,1-2.758,4.934c-.955.955-1.857,1.857-1.857,2.758A1.538,1.538,0,0,1,18.154,25.385Z" transform="translate(1.846 0.769)" fill="#07484b"/>
      <circle id="Elipse_89" data-name="Elipse 89" cx="1.538" cy="1.538" r="1.538" transform="translate(18.462 27.692)" fill="#07484b"/>
    </g>
  </g>
</svg>
