<svg xmlns="http://www.w3.org/2000/svg" xmlns:xlink="http://www.w3.org/1999/xlink" width="40" height="40" viewBox="0 0 40 40">
  <defs>
    <clipPath id="clip-path">
      <path id="path21" d="M0-682.665H40v40H0Z" transform="translate(0 682.665)"/>
    </clipPath>
  </defs>
  <g id="g15" transform="translate(0 682.665)">
    <g id="g17" transform="translate(0 -682.665)">
      <g id="g19" clip-path="url(#clip-path)">
        <g id="g25" transform="translate(41.56 21.567)">
          <path id="path27" d="M-245.537-88.753a.778.778,0,0,1,.51.19l5.118,4.419a.781.781,0,0,1,.262.71.781.781,0,0,1-.462.6,8.265,8.265,0,0,0-5.3,7.155c-.45,3.6-2.75,4.888-4.752,4.888a5.405,5.405,0,0,1-4.8-3.021c-.5-1.087-.988-3.308,1.311-5.966l7.527-8.7A.779.779,0,0,1-245.537-88.753Zm3.711,5.018-3.631-3.135-7.017,8.113c-1.281,1.481-1.661,3.006-1.072,4.294a3.8,3.8,0,0,0,3.383,2.109c1.755,0,2.922-1.283,3.2-3.52A9.735,9.735,0,0,1-241.826-83.735Z" transform="translate(255.384 88.753)" fill="#020288"/>
        </g>
      </g>
    </g>
    <g id="g29" transform="translate(0 -682.665)">
      <g id="g31" clip-path="url(#clip-path)">
        <g id="g37" transform="translate(17.185 4.155)">
          <path id="path39" d="M-8.486-92.252a.781.781,0,0,1-.781-.781v-2.981a1.251,1.251,0,0,0-1.252-1.247,1.251,1.251,0,0,0-1.252,1.247v2.981a.781.781,0,0,1-.781.781.781.781,0,0,1-.781-.781v-2.981a2.815,2.815,0,0,1,2.814-2.81A2.815,2.815,0,0,1-7.7-96.014v2.981A.781.781,0,0,1-8.486-92.252Z" transform="translate(13.333 98.824)" fill="#004b41"/>
        </g>
        <g id="g41" transform="translate(2.684 9.839)">
          <path id="path43" d="M0-272.718H34.631c0-11.066-8.577-16.974-17.315-16.974S0-283.784,0-272.718" transform="translate(0 289.693)" fill="#55d6a1" fill-rule="evenodd"/>
        </g>
        <g id="g45" transform="translate(3.634 26.032)">
          <path id="path47" d="M-380.45-3.523a.781.781,0,0,1-.39-.1.781.781,0,0,1-.389-.616,10.958,10.958,0,0,0-4.327-7.713.781.781,0,0,1-.1-1.1.781.781,0,0,1,1.1-.1,12.693,12.693,0,0,1,4.743,7.677l16.245-7.782a.781.781,0,0,1,1.042.367.781.781,0,0,1-.367,1.042L-380.113-3.6A.781.781,0,0,1-380.45-3.523Z" transform="translate(385.835 13.336)" fill="#004b41"/>
        </g>
        <g id="g49" transform="translate(0 26.032)">
          <path id="path51" d="M-93.673-72.8h-19a.781.781,0,0,1-.781-.781.781.781,0,0,1,.781-.781h19a1.122,1.122,0,0,0,1.123-1.119,1.121,1.121,0,0,0-1.123-1.117H-128.3a1.12,1.12,0,0,0-1.121,1.117,1.121,1.121,0,0,0,1.121,1.119h4.992a.781.781,0,0,1,.781.781.781.781,0,0,1-.781.781H-128.3a2.686,2.686,0,0,1-2.684-2.681,2.684,2.684,0,0,1,2.684-2.679h34.631a2.686,2.686,0,0,1,2.686,2.679A2.687,2.687,0,0,1-93.673-72.8Z" transform="translate(130.988 78.157)" fill="#004b41"/>
        </g>
      </g>
    </g>
  </g>
</svg>
