<svg xmlns="http://www.w3.org/2000/svg" width="40" height="38.281" viewBox="0 0 40 38.281">
  <g id="XMLID_160_" transform="translate(0 -11)">
    <g id="XMLID_161_" transform="translate(6.719 28.188)">
      <path id="XMLID_162_" d="M99.283,231a13.294,13.294,0,0,0-13.231,14.434.779.779,0,0,0,.063.246c1.3-.4,1.684-1.4,3.6-1.4,2.393,0,2.393,1.563,4.785,1.563s2.392-1.562,4.785-1.562,2.393,1.563,4.785,1.563,2.393-1.562,4.785-1.562c1.913,0,2.3,1,3.6,1.4a.779.779,0,0,0,.063-.246A13.294,13.294,0,0,0,99.283,231Z" transform="translate(-86.002 -231)" fill="#55d6a1"/>
    </g>
    <g id="XMLID_163_" transform="translate(0 11)">
      <path id="XMLID_165_" d="M-9.219-2.187A.781.781,0,0,1-10-2.969v-6.25A.781.781,0,0,1-9.219-10a.781.781,0,0,1,.781.781v6.25A.781.781,0,0,1-9.219-2.187Z" transform="translate(29.219 17.813)" fill="#004b41"/>
      <path id="XMLID_166_" d="M-4.8-4.018a.779.779,0,0,1-.552-.229L-9.771-8.666a.781.781,0,0,1,0-1.1.781.781,0,0,1,1.1,0l4.419,4.419a.781.781,0,0,1,0,1.1A.779.779,0,0,1-4.8-4.018Z" transform="translate(13.751 24.22)" fill="#004b41"/>
      <path id="XMLID_167_" d="M-5.634-6.954a.779.779,0,0,1-.3-.06L-9.52-8.5A.781.781,0,0,1-9.943-9.52a.781.781,0,0,1,1.021-.423l3.588,1.486a.781.781,0,0,1,.423,1.021A.782.782,0,0,1-5.634-6.954Z" transform="translate(11.198 32.224)" fill="#004b41"/>
      <path id="XMLID_168_" d="M-9.221-6.954a.781.781,0,0,1-.722-.482A.781.781,0,0,1-9.52-8.457l3.588-1.486a.781.781,0,0,1,1.021.423A.781.781,0,0,1-5.335-8.5L-8.922-7.013A.779.779,0,0,1-9.221-6.954Z" transform="translate(43.657 32.224)" fill="#004b41"/>
      <path id="XMLID_169_" d="M-9.221-4.852a.779.779,0,0,1-.3-.06.781.781,0,0,1-.423-1.021L-8.457-9.52a.781.781,0,0,1,1.021-.423.781.781,0,0,1,.423,1.021L-8.5-5.335A.782.782,0,0,1-9.221-4.852Z" transform="translate(35.201 21.667)" fill="#004b41"/>
      <path id="XMLID_170_" d="M-7.735-4.852a.781.781,0,0,1-.722-.482L-9.943-8.922A.781.781,0,0,1-9.52-9.943.781.781,0,0,1-8.5-9.52l1.486,3.588a.781.781,0,0,1-.423,1.021A.779.779,0,0,1-7.735-4.852Z" transform="translate(21.756 21.667)" fill="#004b41"/>
      <path id="XMLID_171_" d="M-9.219-4.018a.779.779,0,0,1-.552-.229.781.781,0,0,1,0-1.1l4.419-4.419a.781.781,0,0,1,1.1,0,.781.781,0,0,1,0,1.1L-8.666-4.247A.779.779,0,0,1-9.219-4.018Z" transform="translate(40.267 24.22)" fill="#004b41"/>
      <path id="XMLID_174_" d="M5.531,80.438a.781.781,0,0,1-.781-.781,1.094,1.094,0,0,0-2.188,0,.781.781,0,0,1-1.563,0,2.656,2.656,0,0,1,5.313,0A.781.781,0,0,1,5.531,80.438Z" transform="translate(-0.922 -71.844)" fill="#004b41"/>
      <path id="XMLID_175_" d="M53.531,80.438a.781.781,0,0,1-.781-.781,1.094,1.094,0,0,0-2.188,0,.781.781,0,0,1-1.563,0,2.656,2.656,0,0,1,5.313,0A.781.781,0,0,1,53.531,80.438Z" transform="translate(-45.172 -71.844)" fill="#004b41"/>
      <path id="XMLID_176_" d="M77.531,14.438a.781.781,0,0,1-.781-.781,1.094,1.094,0,1,0-2.187,0,.781.781,0,0,1-1.563,0,2.656,2.656,0,0,1,5.313,0A.781.781,0,0,1,77.531,14.438Z" transform="translate(-67.297 -11)" fill="#004b41"/>
      <path id="XMLID_177_" d="M125.531,14.438a.781.781,0,0,1-.781-.781,1.094,1.094,0,1,0-2.187,0,.781.781,0,0,1-1.563,0,2.656,2.656,0,0,1,5.313,0A.781.781,0,0,1,125.531,14.438Z" transform="translate(-111.547 -11)" fill="#004b41"/>
      <path id="XMLID_179_" d="M34.355,394.125a4.621,4.621,0,0,1-2.82-.908,3.28,3.28,0,0,0-3.931,0,4.831,4.831,0,0,1-5.64,0,3.279,3.279,0,0,0-3.931,0,4.83,4.83,0,0,1-5.639,0,3.077,3.077,0,0,0-1.965-.654,3.077,3.077,0,0,0-1.965.654,4.621,4.621,0,0,1-2.82.908,4.74,4.74,0,0,1-2.849-.9,3.243,3.243,0,0,0-2.014-.66.781.781,0,1,1,0-1.562,4.739,4.739,0,0,1,2.849.9,3.244,3.244,0,0,0,2.014.66,3.077,3.077,0,0,0,1.965-.654,4.621,4.621,0,0,1,2.82-.908,4.621,4.621,0,0,1,2.82.908,3.279,3.279,0,0,0,3.931,0,4.83,4.83,0,0,1,5.639,0,3.28,3.28,0,0,0,3.931,0,4.831,4.831,0,0,1,5.64,0,3.077,3.077,0,0,0,1.966.654,3.244,3.244,0,0,0,2.014-.66,4.74,4.74,0,0,1,2.849-.9.781.781,0,1,1,0,1.563,3.244,3.244,0,0,0-2.014.66A4.74,4.74,0,0,1,34.355,394.125Z" transform="translate(0 -361.312)" fill="#004b41"/>
      <path id="XMLID_180_" d="M34.355,464.125a4.621,4.621,0,0,1-2.82-.908,3.28,3.28,0,0,0-3.931,0,4.831,4.831,0,0,1-5.64,0,3.279,3.279,0,0,0-3.931,0,4.83,4.83,0,0,1-5.639,0,3.077,3.077,0,0,0-1.965-.654,3.077,3.077,0,0,0-1.965.654,4.621,4.621,0,0,1-2.82.908,4.74,4.74,0,0,1-2.849-.9,3.243,3.243,0,0,0-2.014-.66.781.781,0,1,1,0-1.562,4.74,4.74,0,0,1,2.849.9,3.244,3.244,0,0,0,2.014.66,3.077,3.077,0,0,0,1.965-.654,4.621,4.621,0,0,1,2.82-.908,4.621,4.621,0,0,1,2.82.908,3.279,3.279,0,0,0,3.931,0,4.83,4.83,0,0,1,5.639,0,3.28,3.28,0,0,0,3.931,0,4.831,4.831,0,0,1,5.64,0,3.078,3.078,0,0,0,1.966.654,3.244,3.244,0,0,0,2.014-.66,4.74,4.74,0,0,1,2.849-.9.781.781,0,1,1,0,1.563,3.244,3.244,0,0,0-2.014.66A4.74,4.74,0,0,1,34.355,464.125Z" transform="translate(0 -425.844)" fill="#004b41"/>
    </g>
  </g>
</svg>
