<svg xmlns="http://www.w3.org/2000/svg" width="595.176" height="817.637" viewBox="0 0 595.176 817.637">
  <g id="Grupo_1054" data-name="Grupo 1054" transform="translate(16147.176 -2217.363)">
    <rect id="Retângulo_1308" data-name="Retângulo 1308" width="595" height="512" transform="translate(-16147 2523)" fill="#f0f0f0"/>
    <g id="Grupo_49" data-name="Grupo 49" transform="translate(-16147.176 2365.713)">
      <path id="Caminho_121" data-name="Caminho 121" d="M128.162,455.574c116.214,60.711,304.637,60.713,420.852,0s116.214-159.147,0-219.857-304.639-60.713-420.853,0S11.947,394.862,128.162,455.574Z" transform="translate(-41 -190.184)" fill="#f0f0f0"/>
    </g>
    <path id="Caminho_122" data-name="Caminho 122" d="M241.644,472.917,66.064,370.775c-3.145-1.829-3.145-4.8,0-6.624l314.47-182.938a12.5,12.5,0,0,1,11.388,0L567.5,283.354c3.146,1.831,3.146,4.8,0,6.626L253.032,472.917A12.5,12.5,0,0,1,241.644,472.917Z" transform="translate(-16178.205 2170.987)" fill="#e0e0e0"/>
    <g id="Grupo_53" data-name="Grupo 53" transform="translate(-15716.736 2316.518)">
      <g id="Grupo_51" data-name="Grupo 51" transform="translate(0)">
        <g id="Grupo_50" data-name="Grupo 50">
          <path id="Caminho_123" data-name="Caminho 123" d="M374.883,242.948c2.707-9,7.9-36.152,2.852-55.621-3.883-14.979-13.475-27.382-24.524-30.8s-17.13,10.447-10.12,19.8c17.9,23.884,25.489,43.879,21.476,60.752Z" transform="translate(-340.096 -156)" fill="#27debf"/>
          <path id="Caminho_124" data-name="Caminho 124" d="M374.883,242.948c2.707-9,7.9-36.152,2.852-55.621-3.883-14.979-13.475-27.382-24.524-30.8s-17.13,10.447-10.12,19.8c17.9,23.884,25.489,43.879,21.476,60.752Z" transform="translate(-340.096 -156)" opacity="0.1"/>
        </g>
        <path id="Caminho_125" data-name="Caminho 125" d="M349.212,161.644c5.951,5.237,27.519,34.295,18.051,76.769" transform="translate(-336.093 -153.522)" fill="none" stroke="#fafafa" stroke-linecap="round" stroke-miterlimit="10" stroke-width="1"/>
      </g>
      <g id="Grupo_52" data-name="Grupo 52" transform="translate(29.494 8.37)">
        <path id="Caminho_126" data-name="Caminho 126" d="M405.03,258.995c5.7-.684,12.926-2.488,16.392-9.465s-6.778-12.892-6.584-18.761,6.079-8.458,12.328-10.832,12.394-10.792,7.211-16.773-10.6-13.524-5.179-20.939,14.935-14.6,6.155-19.041c-11.015-5.575-22.263,7.4-30.323,12.056s-18.091-2.457-25.457,5.256,6.552,17.624-2.186,25.66-20.722,9.7-15.543,27.283Z" transform="translate(-360.591 -161.816)" fill="#27debf"/>
        <path id="Caminho_127" data-name="Caminho 127" d="M423.116,165.354c-7.722,3.691-41.759,41.213-47.254,78.495" transform="translate(-353.884 -160.262)" fill="none" stroke="#fafafa" stroke-linecap="round" stroke-miterlimit="10" stroke-width="1"/>
        <path id="Caminho_128" data-name="Caminho 128" d="M380.759,177.825s8.533,9.189,10.523,16.6" transform="translate(-351.734 -154.786)" fill="none" stroke="#fafafa" stroke-linecap="round" stroke-miterlimit="10" stroke-width="1"/>
        <path id="Caminho_129" data-name="Caminho 129" d="M414.951,194.638c-7.151-.99-24.379-1.464-31.448,4.257" transform="translate(-350.529 -147.67)" fill="none" stroke="#fafafa" stroke-linecap="round" stroke-miterlimit="10" stroke-width="1"/>
      </g>
    </g>
    <g id="Grupo_64" data-name="Grupo 64" transform="translate(-16118.883 2325.269)">
      <g id="Grupo_54" data-name="Grupo 54" transform="translate(0 164.145)">
        <path id="Caminho_130" data-name="Caminho 130" d="M304.283,372.067l-67.1,18.076L78.626,298.6l67.1-18.078Z" transform="translate(-52.77 -274.213)" fill="#455a64"/>
        <path id="Caminho_131" data-name="Caminho 131" d="M323.1,380.3l-82.011,22.1L60.66,298.24l82.012-22.1,10.943,6.312-67.1,18.078,158.559,91.541,67.1-18.076Z" transform="translate(-60.66 -276.139)" fill="#455a64"/>
      </g>
      <g id="Grupo_55" data-name="Grupo 55" transform="translate(82.012 94.704)">
        <path id="Caminho_132" data-name="Caminho 132" d="M360.355,323.814l-76.547,69.441L125.25,301.713l76.547-69.44Z" transform="translate(-114.308 -225.961)" fill="#37474f"/>
        <path id="Caminho_133" data-name="Caminho 133" d="M322.9,302.2l-76.547,69.44-10.93-6.312,76.547-69.441Z" transform="translate(-65.925 -198.028)" fill="#37474f"/>
        <path id="Caminho_134" data-name="Caminho 134" d="M205.136,234.2l-76.547,69.44-10.943-6.312,76.547-69.44Z" transform="translate(-117.647 -227.887)" fill="#37474f"/>
      </g>
      <g id="Grupo_56" data-name="Grupo 56" transform="translate(240.57)">
        <path id="Caminho_135" data-name="Caminho 135" d="M467.356,263.321l-73.371,64.958L235.426,236.737,308.8,171.78Z" transform="translate(-224.484 -157.822)" fill="#37474f"/>
        <path id="Caminho_136" data-name="Caminho 136" d="M490.265,266.248l-82.011,72.6-10.93-6.313L470.7,267.58l-158.56-91.541L238.765,241l-10.943-6.313,82.011-72.6Z" transform="translate(-227.823 -162.081)" fill="#37474f"/>
      </g>
      <g id="Grupo_57" data-name="Grupo 57" transform="translate(158.559 72.603)">
        <path id="Caminho_137" data-name="Caminho 137" d="M419.009,308.457,337,330.558,178.44,239.017l82.011-22.1Z" transform="translate(-167.497 -210.604)" fill="#455a64"/>
        <path id="Caminho_138" data-name="Caminho 138" d="M263.79,218.842l-82.011,22.1-10.943-6.312,82.011-22.1Z" transform="translate(-170.836 -212.53)" fill="#455a64"/>
        <path id="Caminho_139" data-name="Caminho 139" d="M381.557,286.838l-82.011,22.1-10.93-6.313,82.011-22.1Z" transform="translate(-119.115 -182.671)" fill="#455a64"/>
      </g>
      <g id="Grupo_58" data-name="Grupo 58" transform="translate(251.513 13.956)">
        <path id="Caminho_140" data-name="Caminho 140" d="M290.452,171.778,277.216,183.5l5.467,34.3,65.771-12.533Z" transform="translate(-217.075 -171.778)" fill="#263238"/>
        <path id="Caminho_141" data-name="Caminho 141" d="M379.5,222.911c-6.542,11.091-16.449,19.276-26.692,25.037l-28.927-45.684,14.848-2.893Z" transform="translate(-196.581 -159.661)" fill="#263238"/>
        <path id="Caminho_142" data-name="Caminho 142" d="M351.835,251.054c-10.606,4.536-20.607,6.609-26.555,6.771a73.291,73.291,0,0,1-10.028-.391l-10.54-51.308,16.838-3.286Z" transform="translate(-205.001 -158.137)" fill="#263238"/>
        <path id="Caminho_143" data-name="Caminho 143" d="M314.457,253.886c-13.768-3.632-22.705-10.566-27.834-13.931l-4.684-29.006,23.272-4.536Z" transform="translate(-215.002 -156.568)" fill="#263238"/>
        <path id="Caminho_144" data-name="Caminho 144" d="M389.236,218.6c-16.111,26.9-52.557,40.31-69.8,39.457,0,0-3.165.489,0,2.316l32.805,18.942,48.633-9.8,30.215-26.748Z" transform="translate(-199.153 -151.218)" fill="#263238"/>
        <path id="Caminho_145" data-name="Caminho 145" d="M377.325,260.347l-29.265,5.832,13.725,7.925Z" transform="translate(-185.965 -132.884)" fill="#263238"/>
        <path id="Caminho_146" data-name="Caminho 146" d="M295.565,246.7l-16.407,9.463-43.732-25.251,51.795-45.858Z" transform="translate(-235.426 -165.949)" fill="#263238"/>
        <path id="Caminho_147" data-name="Caminho 147" d="M377.651,289.421l-8.629,7.646-76.546-44.19c-.969-6.878,1.616-11.7,5.466-9.475S377.651,289.421,377.651,289.421Z" transform="translate(-210.464 -140.565)" fill="#263238"/>
        <path id="Caminho_148" data-name="Caminho 148" d="M290.349,250.509l-18.156-10.486,11.225-6.151c3.769,2.18,12.046,7.161,12.046,7.161S289.542,245.488,290.349,250.509Z" transform="translate(-219.281 -144.51)" fill="#263238"/>
      </g>
      <g id="Grupo_59" data-name="Grupo 59" transform="translate(169.502 78.916)">
        <path id="Caminho_149" data-name="Caminho 149" d="M253.7,251.886l-31.524,8.493L178.44,235.128l34.7-9.354Z" transform="translate(-178.44 -213.027)" fill="#37474f"/>
        <path id="Caminho_150" data-name="Caminho 150" d="M228.044,220.349,221.49,232.14l-10.97-7.066Z" transform="translate(-164.352 -215.409)" fill="#37474f"/>
        <path id="Caminho_151" data-name="Caminho 151" d="M284.173,242.168,245.139,252.68l-21.132-13.595v-.014l11.536-20.836,4.9-1.319Z" transform="translate(-158.43 -216.916)" fill="#37474f"/>
        <path id="Caminho_152" data-name="Caminho 152" d="M368.959,294.009l-20.5,5.532h-.013c-.728-.095-20.676-2.612-26.248-3.8-5.667-1.2-9.274-2.517-12.236-8.048s-17.552-37.878-17.552-37.878Z" transform="translate(-128.39 -202.467)" fill="#37474f"/>
        <path id="Caminho_153" data-name="Caminho 153" d="M324.437,300.171l-80.059-51.538,40.03-10.485,18.156,10.485Z" transform="translate(-149.485 -207.593)" fill="#37474f"/>
        <path id="Caminho_154" data-name="Caminho 154" d="M314.708,291.865l-26.448,6.313L214.7,255.712l.027-.028,31.133-8.156Z" transform="translate(-162.516 -203.473)" fill="#37474f"/>
        <path id="Caminho_155" data-name="Caminho 155" d="M318.455,295.358,295.29,301.6l-21.872-12.625,25.628-6.124Z" transform="translate(-136.732 -187.961)" fill="#37474f"/>
        <path id="Caminho_156" data-name="Caminho 156" d="M324.773,288.473l-18.907-2.554,8.569,5.339Z" transform="translate(-122.483 -186.615)" fill="#37474f"/>
      </g>
      <g id="Grupo_60" data-name="Grupo 60" transform="translate(92.955 101.017)">
        <path id="Caminho_157" data-name="Caminho 157" d="M308.043,299.734l-31.322,28.4-32.343-3.15,6.72-25.868,35.073-12.009Z" transform="translate(-72.938 -208.193)" fill="#263238"/>
        <path id="Caminho_158" data-name="Caminho 158" d="M213.238,270.969l-46.894,40.218-41.094-23.73,4.994-4.522,19.517.511,33.22-18.71Z" transform="translate(-125.25 -218.017)" fill="#263238"/>
        <path id="Caminho_159" data-name="Caminho 159" d="M293.549,295.681l-27.338,9.461-63.557-36.7,17.336-15.223Z" transform="translate(-91.259 -223.077)" fill="#263238"/>
        <path id="Caminho_160" data-name="Caminho 160" d="M222.75,257.524,198.6,278.24l-21.483-4.94,1.9-41.027Z" transform="translate(-102.472 -232.273)" fill="#263238"/>
        <path id="Caminho_161" data-name="Caminho 161" d="M177.273,238.858l-1.346,29.814-10.067-1.413-4.2,2.409-4.347-12.707Z" transform="translate(-111.171 -229.382)" fill="#263238"/>
        <path id="Caminho_162" data-name="Caminho 162" d="M161.348,267.355l-16.919,9.758-8.938.309,22.344-20.27Z" transform="translate(-120.753 -221.348)" fill="#263238"/>
        <path id="Caminho_163" data-name="Caminho 163" d="M267.851,304.1,213.845,323.43l-41.335-23.87,34.7-30.473Z" transform="translate(-104.497 -216.108)" fill="#263238"/>
        <path id="Caminho_164" data-name="Caminho 164" d="M257.886,298.875,240.711,358.4l-35.05-20.231v-.013l-4.428-18.966Z" transform="translate(-91.884 -203.026)" fill="#263238"/>
        <path id="Caminho_165" data-name="Caminho 165" d="M270.644,322.274,248.838,342.06,236.67,353.1l8.615-33.085Z" transform="translate(-76.322 -193.744)" fill="#263238"/>
        <path id="Caminho_166" data-name="Caminho 166" d="M203.981,326.054l-.175.417-19.221-11.091,15.708-1.951Z" transform="translate(-99.195 -196.635)" fill="#263238"/>
        <path id="Caminho_167" data-name="Caminho 167" d="M206.838,314.639,185.4,317.95h-.014L160.455,303.56l10.082-8.857Z" transform="translate(-109.791 -204.858)" fill="#263238"/>
      </g>
      <g id="Grupo_61" data-name="Grupo 61" transform="translate(251.513 13.956)" opacity="0.2" style="mix-blend-mode: multiply;isolation: isolate">
        <path id="Caminho_168" data-name="Caminho 168" d="M290.452,171.778,277.216,183.5l5.467,34.3,65.771-12.533Z" transform="translate(-217.075 -171.778)" fill="#263238"/>
        <path id="Caminho_169" data-name="Caminho 169" d="M379.5,222.911c-6.542,11.091-16.449,19.276-26.692,25.037l-28.927-45.684,14.848-2.893Z" transform="translate(-196.581 -159.661)" fill="#263238"/>
        <path id="Caminho_170" data-name="Caminho 170" d="M351.835,251.054c-10.606,4.536-20.607,6.609-26.555,6.771a73.291,73.291,0,0,1-10.028-.391l-10.54-51.308,16.838-3.286Z" transform="translate(-205.001 -158.137)" fill="#263238"/>
        <path id="Caminho_171" data-name="Caminho 171" d="M314.457,253.886c-13.768-3.632-22.705-10.566-27.834-13.931l-4.684-29.006,23.272-4.536Z" transform="translate(-215.002 -156.568)" fill="#263238"/>
        <path id="Caminho_172" data-name="Caminho 172" d="M389.236,218.6c-16.111,26.9-52.557,40.31-69.8,39.457,0,0-3.165.489,0,2.316l32.805,18.942,48.633-9.8,30.215-26.748Z" transform="translate(-199.153 -151.218)" fill="#263238"/>
        <path id="Caminho_173" data-name="Caminho 173" d="M377.325,260.347l-29.265,5.832,13.725,7.925Z" transform="translate(-185.965 -132.884)" fill="#263238"/>
        <path id="Caminho_174" data-name="Caminho 174" d="M295.565,246.7l-16.407,9.463-43.732-25.251,51.795-45.858Z" transform="translate(-235.426 -165.949)" fill="#263238"/>
        <path id="Caminho_175" data-name="Caminho 175" d="M377.651,289.421l-8.629,7.646-76.546-44.19c-.969-6.878,1.616-11.7,5.466-9.475S377.651,289.421,377.651,289.421Z" transform="translate(-210.464 -140.565)" fill="#263238"/>
        <path id="Caminho_176" data-name="Caminho 176" d="M290.349,250.509l-18.156-10.486,11.225-6.151c3.769,2.18,12.046,7.161,12.046,7.161S289.542,245.488,290.349,250.509Z" transform="translate(-219.281 -144.51)" fill="#263238"/>
      </g>
      <g id="Grupo_62" data-name="Grupo 62" transform="translate(92.955 101.017)" opacity="0.2" style="mix-blend-mode: multiply;isolation: isolate">
        <path id="Caminho_177" data-name="Caminho 177" d="M308.043,299.734l-31.322,28.4-32.343-3.15,6.72-25.868,35.073-12.009Z" transform="translate(-72.938 -208.193)" fill="#263238"/>
        <path id="Caminho_178" data-name="Caminho 178" d="M213.238,270.969l-46.894,40.218-41.094-23.73,4.994-4.522,19.517.511,33.22-18.71Z" transform="translate(-125.25 -218.017)" fill="#263238"/>
        <path id="Caminho_179" data-name="Caminho 179" d="M293.549,295.681l-27.338,9.461-63.557-36.7,17.336-15.223Z" transform="translate(-91.259 -223.077)" fill="#263238"/>
        <path id="Caminho_180" data-name="Caminho 180" d="M222.75,257.524,198.6,278.24l-21.483-4.94,1.9-41.027Z" transform="translate(-102.472 -232.273)" fill="#263238"/>
        <path id="Caminho_181" data-name="Caminho 181" d="M177.273,238.858l-1.346,29.814-10.067-1.413-4.2,2.409-4.347-12.707Z" transform="translate(-111.171 -229.382)" fill="#263238"/>
        <path id="Caminho_182" data-name="Caminho 182" d="M161.348,267.355l-16.919,9.758-8.938.309,22.344-20.27Z" transform="translate(-120.753 -221.348)" fill="#263238"/>
        <path id="Caminho_183" data-name="Caminho 183" d="M267.851,304.1,213.845,323.43l-41.335-23.87,34.7-30.473Z" transform="translate(-104.497 -216.108)" fill="#263238"/>
        <path id="Caminho_184" data-name="Caminho 184" d="M257.886,298.875,240.711,358.4l-35.05-20.231v-.013l-4.428-18.966Z" transform="translate(-91.884 -203.026)" fill="#263238"/>
        <path id="Caminho_185" data-name="Caminho 185" d="M270.644,322.274,248.838,342.06,236.67,353.1l8.615-33.085Z" transform="translate(-76.322 -193.744)" fill="#263238"/>
        <path id="Caminho_186" data-name="Caminho 186" d="M203.981,326.054l-.175.417-19.221-11.091,15.708-1.951Z" transform="translate(-99.195 -196.635)" fill="#263238"/>
        <path id="Caminho_187" data-name="Caminho 187" d="M206.838,314.639,185.4,317.95h-.014L160.455,303.56l10.082-8.857Z" transform="translate(-109.791 -204.858)" fill="#263238"/>
      </g>
      <g id="Grupo_63" data-name="Grupo 63" transform="translate(25.856 170.457)">
        <path id="Caminho_188" data-name="Caminho 188" d="M143.477,308.347,105.1,312.869h-.014l-26.463-15.29,54.661-14.726Z" transform="translate(-78.626 -279.502)" fill="#37474f"/>
        <path id="Caminho_189" data-name="Caminho 189" d="M168.012,304.254l-35.817,4.227-10.742-26.489,5.465-1.468Z" transform="translate(-59.82 -280.525)" fill="#37474f"/>
        <path id="Caminho_190" data-name="Caminho 190" d="M210.013,315.247l-49.506,28.225h-.014l-56.128-32.412,80.719-10.2Z" transform="translate(-67.323 -271.596)" fill="#37474f"/>
        <path id="Caminho_191" data-name="Caminho 191" d="M244.465,346.407l-11,11.2-40.783,10.984,16.731-42.412Z" transform="translate(-28.54 -260.477)" fill="#37474f"/>
        <path id="Caminho_192" data-name="Caminho 192" d="M218.965,325.875l-18.75,45.993-50.152-28.952,49.68-28.132Z" transform="translate(-47.256 -265.48)" fill="#37474f"/>
      </g>
    </g>
    <g id="Grupo_68" data-name="Grupo 68" transform="translate(-15900.835 2230.17)">
      <g id="Grupo_67" data-name="Grupo 67">
        <g id="Grupo_65" data-name="Grupo 65">
          <path id="Caminho_193" data-name="Caminho 193" d="M309.771,110.112,292.044,99.93l0,0c-8.462-5.662-20.211-5.421-33.2,2.081-25.772,14.879-46.665,52.658-46.665,84.381v7.22c0,31.723,42.65,66.2,42.65,66.2l17.439,9.864s-10.474-11.943-9.28-14.394C274.4,231.837,305.5,165.631,305.5,139.734v-7.22a56.377,56.377,0,0,0-2-15.489l2,1.154ZM258.838,182.84c-12.885,7.44-23.331,1.409-23.334-13.47,6.938-1.091,24.379-30.864,23.334-40.414,12.885-7.439,23.331-1.407,23.331,13.472S271.723,175.4,258.838,182.84Z" transform="translate(-212.173 -96)" fill="#27debf"/>
          <path id="Caminho_194" data-name="Caminho 194" d="M309.771,110.112,292.044,99.93l0,0c-8.462-5.662-20.211-5.421-33.2,2.081-25.772,14.879-46.665,52.658-46.665,84.381v7.22c0,31.723,42.65,66.2,42.65,66.2l17.439,9.864s-10.474-11.943-9.28-14.394C274.4,231.837,305.5,165.631,305.5,139.734v-7.22a56.377,56.377,0,0,0-2-15.489l2,1.154ZM258.838,182.84c-12.885,7.44-23.331,1.409-23.334-13.47,6.938-1.091,24.379-30.864,23.334-40.414,12.885-7.439,23.331-1.407,23.331,13.472S271.723,175.4,258.838,182.84Z" transform="translate(-212.173 -96)" opacity="0.3"/>
        </g>
        <g id="Grupo_66" data-name="Grupo 66" transform="translate(18.664 10.772)">
          <path id="Caminho_195" data-name="Caminho 195" d="M318.471,140c0-31.724-20.89-45.377-46.664-30.5s-46.665,52.659-46.665,84.382v7.22c0,24.428,27.672,52.772,40.4,64.515a6.282,6.282,0,0,0,9.921-1.848c11-22.5,43.011-90.274,43.01-116.551Zm-46.664,50.327c-12.885,7.44-23.331,1.409-23.331-13.47s10.445-32.973,23.331-40.412,23.333-1.409,23.333,13.47S284.693,182.891,271.807,190.329Z" transform="translate(-225.142 -103.485)" fill="#27debf"/>
          <path id="Caminho_196" data-name="Caminho 196" d="M318.471,140c0-31.724-20.89-45.377-46.664-30.5s-46.665,52.659-46.665,84.382v7.22c0,24.428,27.672,52.772,40.4,64.515a6.282,6.282,0,0,0,9.921-1.848c11-22.5,43.011-90.274,43.01-116.551Zm-46.664,50.327c-12.885,7.44-23.331,1.409-23.331-13.47s10.445-32.973,23.331-40.412,23.333-1.409,23.333,13.47S284.693,182.891,271.807,190.329Z" transform="translate(-225.142 -103.485)" fill="#fff" opacity="0.2"/>
        </g>
      </g>
    </g>
    <g id="Grupo_71" data-name="Grupo 71" transform="translate(-15712.645 2540.026)">
      <g id="Grupo_69" data-name="Grupo 69" transform="translate(0.003 0.72)">
        <path id="Caminho_197" data-name="Caminho 197" d="M439.445,346.925h0V334l-96.5-22.19v12.908l.012.014a2.079,2.079,0,0,0,.446,1.058l37.579,52.69c.924,1.294,1.914,1.078,2.215-.484l4.758-24.723a3.921,3.921,0,0,1,3.416-3.011l46.867-3C439.033,347.2,439.436,347.08,439.445,346.925Z" transform="translate(-342.942 -311.807)" fill="#27debf"/>
        <path id="Caminho_198" data-name="Caminho 198" d="M439.445,346.925h0V334l-96.5-22.19v12.908l.012.014a2.079,2.079,0,0,0,.446,1.058l37.579,52.69c.924,1.294,1.914,1.078,2.215-.484l4.758-24.723a3.921,3.921,0,0,1,3.416-3.011l46.867-3C439.033,347.2,439.436,347.08,439.445,346.925Z" transform="translate(-342.942 -311.807)" opacity="0.1"/>
      </g>
      <g id="Grupo_70" data-name="Grupo 70">
        <path id="Caminho_199" data-name="Caminho 199" d="M383.194,365.286l4.758-24.723a3.919,3.919,0,0,1,3.416-3.012l46.868-3.006c1.586-.1,1.618-.482.072-.851L344.53,311.4c-1.547-.368-2.052.384-1.13,1.677l37.579,52.69C381.9,367.062,382.893,366.845,383.194,365.286Z" transform="translate(-342.94 -311.307)" fill="#27debf"/>
        <path id="Caminho_200" data-name="Caminho 200" d="M383.194,365.286l4.758-24.723a3.919,3.919,0,0,1,3.416-3.012l46.868-3.006c1.586-.1,1.618-.482.072-.851L344.53,311.4c-1.547-.368-2.052.384-1.13,1.677l37.579,52.69C381.9,367.062,382.893,366.845,383.194,365.286Z" transform="translate(-342.94 -311.307)" fill="#fff" opacity="0.3"/>
      </g>
    </g>
    <g id="Grupo_81" data-name="Grupo 81" transform="translate(-16093.469 2309.323)">
      <path id="Caminho_201" data-name="Caminho 201" d="M158,177.123,143.926,169l-.053-.03-.1-.06v0c-6.942-3.932-16.49-3.326-27.033,2.76-21.217,12.25-38.416,42.041-38.416,66.54,0,12.175,4.25,20.747,11.126,24.792l0,0,.105.06.05.029,14.073,8.125,2.442-6.429a40.869,40.869,0,0,0,10.624-4.4c21.217-12.25,38.416-42.041,38.416-66.54a40.934,40.934,0,0,0-1.477-11.317Z" transform="translate(-78.319 -144.224)" fill="#37474f"/>
      <g id="Grupo_72" data-name="Grupo 72" transform="translate(39.47)">
        <path id="Caminho_202" data-name="Caminho 202" d="M112.08,183.467a16.158,16.158,0,0,1-5.929-1.117.638.638,0,1,1,.466-1.187,14.96,14.96,0,1,0,5.463-28.888.638.638,0,0,1,0-1.275,16.233,16.233,0,1,1,0,32.467Z" transform="translate(-105.745 -151)" fill="#455a64"/>
      </g>
      <path id="Caminho_203" data-name="Caminho 203" d="M126.622,266.1c21.217-12.25,38.418-42.041,38.418-66.54s-17.2-34.43-38.418-22.18-38.416,42.04-38.416,66.54S105.405,278.353,126.622,266.1Z" transform="translate(-73.977 -141.718)" fill="#455a64"/>
      <path id="Caminho_204" data-name="Caminho 204" d="M151.324,196.354c0,20.757-15.189,47.063-33.165,57.444-4.351,2.508-8.464,3.84-11.9,3.84a8.808,8.808,0,0,1-7.748-4.133c-2.6-3.916-3-9.639-3-12.785-.007-20.758,15.181-47.064,33.158-57.446,4.35-2.508,8.469-3.838,11.9-3.838.217,0,.427.006.632.02C150.321,179.954,151.324,191.379,151.324,196.354Z" transform="translate(-70.77 -138.513)" fill="#263238"/>
      <path id="Caminho_205" data-name="Caminho 205" d="M144.213,192.249c0,20.758-15.189,47.064-33.165,57.439-4.351,2.516-8.469,3.84-11.9,3.84-.216,0-.426-.007-.638-.022-2.6-3.916-3-9.639-3-12.785-.007-20.758,15.181-47.064,33.158-57.446,4.35-2.508,8.469-3.838,11.9-3.838.217,0,.427.006.632.02C143.813,183.372,144.213,189.1,144.213,192.249Z" transform="translate(-70.77 -138.513)" fill="#ebebeb"/>
      <g id="Grupo_78" data-name="Grupo 78" transform="translate(32.009 55.379)">
        <g id="Grupo_76" data-name="Grupo 76">
          <g id="Grupo_73" data-name="Grupo 73" transform="translate(7.684 14.197)">
            <path id="Caminho_206" data-name="Caminho 206" d="M113.881,203.1l-6.938-3.713c-.547-.292-1.3,1.1-.956,1.761l4.366,8.451Z" transform="translate(-105.901 -199.345)" fill="#27debf"/>
            <path id="Caminho_207" data-name="Caminho 207" d="M110.656,210.384l6.938,3.713c.545.292,1.3-1.1.954-1.76l-4.366-8.452Z" transform="translate(-103.812 -197.352)" fill="#27debf"/>
          </g>
          <g id="Grupo_74" data-name="Grupo 74" transform="translate(11.65)">
            <path id="Caminho_208" data-name="Caminho 208" d="M115.451,207.578l-1.359-17.37c-.106-1.367-1.51-.659-1.78.9L108.876,210.9Z" transform="translate(-108.559 -189.481)" fill="#27debf"/>
            <path id="Caminho_209" data-name="Caminho 209" d="M108.656,209.313l1.359,17.37c.107,1.367,1.511.658,1.78-.9l3.437-19.792Z" transform="translate(-108.656 -182.231)" fill="#27debf"/>
          </g>
          <g id="Grupo_75" data-name="Grupo 75" transform="translate(0 13.994)">
            <path id="Caminho_210" data-name="Caminho 210" d="M114.033,202.436,101.374,212.3c-1,.777-1.114,2.871-.148,2.657l12.259-2.717Z" transform="translate(-100.561 -197.785)" fill="#27debf"/>
            <path id="Caminho_211" data-name="Caminho 211" d="M112.179,211.744l12.659-9.868c1-.777,1.114-2.871.148-2.657l-12.259,2.717Z" transform="translate(-95.459 -199.204)" fill="#27debf"/>
          </g>
        </g>
        <path id="Caminho_212" data-name="Caminho 212" d="M130.088,203.49l-11.112,2.464-1.232-15.746c-.107-1.367-1.51-.659-1.78.9l-2.572,14.807-4.1-2.2c-.547-.292-1.3,1.1-.956,1.762l2.612,5.054-9.57,7.46c-1,.777-1.114,2.871-.148,2.657l11.112-2.462,1.232,15.746c.107,1.367,1.511.658,1.78-.9l2.572-14.807,4.106,2.2c.545.292,1.3-1.1.954-1.76l-2.612-5.056,9.57-7.46C130.937,205.369,131.053,203.275,130.088,203.49ZM113.6,215.861l.225-4,1.2-2.221,2.685-1.357-.225,4.005-1.2,2.221Z" transform="translate(-100.561 -189.481)" opacity="0.3"/>
        <g id="Grupo_77" data-name="Grupo 77" transform="translate(5.646 5.485)">
          <path id="Caminho_213" data-name="Caminho 213" d="M114.227,209.521l6.152-14.832c.485-1.167-.216-1.921-.888-.956l-8.546,12.256Z" transform="translate(-101.646 -193.292)" fill="#27debf"/>
          <path id="Caminho_214" data-name="Caminho 214" d="M110.8,205.781l-6.152,14.832c-.485,1.167.216,1.921.889.957l8.544-12.257Z" transform="translate(-104.484 -187.808)" fill="#27debf"/>
        </g>
        <path id="Caminho_215" data-name="Caminho 215" d="M107.771,209.836c.219-3.893,2.511-8.118,5.12-9.436s4.551.768,4.333,4.661-2.51,8.118-5.12,9.436S107.554,213.729,107.771,209.836Z" transform="translate(-97.402 -184.859)" fill="#ebebeb"/>
        <path id="Caminho_216" data-name="Caminho 216" d="M107.771,209.836c.219-3.893,2.511-8.118,5.12-9.436s4.551.768,4.333,4.661-2.51,8.118-5.12,9.436S107.554,213.729,107.771,209.836Z" transform="translate(-97.402 -184.859)" fill="#27debf"/>
        <path id="Caminho_217" data-name="Caminho 217" d="M107.771,209.836c.219-3.893,2.511-8.118,5.12-9.436s4.551.768,4.333,4.661-2.51,8.118-5.12,9.436S107.554,213.729,107.771,209.836Z" transform="translate(-97.402 -184.859)" opacity="0.5"/>
        <path id="Caminho_218" data-name="Caminho 218" d="M108.935,208.182c.141-2.511,1.619-5.237,3.3-6.088s2.936.5,2.795,3.008-1.619,5.237-3.3,6.088S108.794,210.694,108.935,208.182Z" transform="translate(-96.888 -184.053)" fill="#27debf"/>
      </g>
      <path id="Caminho_219" data-name="Caminho 219" d="M120.461,168.466H116.3a13.362,13.362,0,0,0-7.779,0h-4.159V174h.023c-.134,1.281.639,2.589,2.334,3.568a12.579,12.579,0,0,0,11.382,0c1.7-.979,2.47-2.287,2.334-3.568h.023Z" transform="translate(-66.882 -143.584)" fill="#e0e0e0"/>
      <path id="Caminho_220" data-name="Caminho 220" d="M120.461,168.466H116.3a13.362,13.362,0,0,0-7.779,0h-4.159V174h.023c-.134,1.281.639,2.589,2.334,3.568a12.579,12.579,0,0,0,11.382,0c1.7-.979,2.47-2.287,2.334-3.568h.023Z" transform="translate(-66.882 -143.584)" fill="#263238"/>
      <path id="Caminho_221" data-name="Caminho 221" d="M106.721,166.42c-3.143,1.815-3.143,4.758,0,6.571a12.574,12.574,0,0,0,11.382,0c3.143-1.815,3.143-4.758,0-6.573A12.579,12.579,0,0,0,106.721,166.42Z" transform="translate(-66.882 -144.826)" fill="#ebebeb"/>
      <g id="Grupo_79" data-name="Grupo 79" transform="translate(34.534 12.633)">
        <path id="Caminho_222" data-name="Caminho 222" d="M124.856,164.547h-5.824a18.746,18.746,0,0,0-10.891,0h-5.824v3.486h.033c-.189,1.793.894,3.624,3.268,5a17.612,17.612,0,0,0,15.938,0c2.375-1.37,3.455-3.2,3.268-5h.032Z" transform="translate(-102.315 -158.04)" fill="#37474f"/>
        <path id="Caminho_223" data-name="Caminho 223" d="M105.616,161.685c-4.4,2.54-4.4,6.66,0,9.2a17.612,17.612,0,0,0,15.938,0c4.4-2.54,4.4-6.66,0-9.2A17.612,17.612,0,0,0,105.616,161.685Z" transform="translate(-102.316 -159.779)" fill="#455a64"/>
      </g>
      <g id="Grupo_80" data-name="Grupo 80" transform="translate(29.571)">
        <path id="Caminho_224" data-name="Caminho 224" d="M109.4,182.393a.631.631,0,0,1-.233-.043A16.236,16.236,0,0,1,115.1,151a.638.638,0,0,1,0,1.275,14.961,14.961,0,0,0-5.463,28.888.637.637,0,0,1-.233,1.23Z" transform="translate(-98.867 -151)" fill="#455a64"/>
      </g>
    </g>
    <path id="Caminho_225" data-name="Caminho 225" d="M205.38,93.838l-12.335,7.121a14.707,14.707,0,0,0,.105-1.632V95.753c0-6.36-4.464-8.937-9.972-5.757a19.293,19.293,0,0,0-5.942,5.713c-.9-7.994-7.174-10.973-14.794-6.574-8.239,4.756-14.917,16.324-14.917,25.837v5.346a14.052,14.052,0,0,0,1.264,6.193l-10.247,5.915a12.223,12.223,0,0,0-5.529,9.579c0,3.527,2.475,4.956,5.529,3.193L205.38,106.61a12.222,12.222,0,0,0,5.532-9.579C210.912,93.5,208.435,92.075,205.38,93.838Z" transform="translate(-16147.77 2130.262)" fill="#ebebeb"/>
  </g>
</svg>
