<svg viewBox="0 0 1280 738.56">
	<defs>
		<style type="text/css">
			.cls-1 {
				fill: none;
			}
		</style>
	</defs>
		<a class="disponivel"
			href="">
			<path id="_x32_9" d="1001.78,628.49 1005.7,633.95 1056.13,622.47 1072.24,611.12 1093.67,564.05 1088.91,557.89 	"/>
		</a>
		<a class="disponivel"
			href="">
			<path id="_x32_8" d="M985.95,529.32L831.66,647.43c-1.92,1.47-2.34,4.19-0.94,6.17l17.05,24.18c11.07,15.7,32.86,19.27,48.36,7.93
				l92.8-67.88l43.52-34.45L985.95,529.32z"/>
		</a>
		<a class="disponivel"
			href="">
			<path id="_x32_7" d="M988.94,526.98l46.69,53.79l93.01-68.36c41.89-31.24,59.35-69.05,47.4-116.74c-0.57-2.26-2.36-4-4.64-4.49
				l-49.46-10.7c-4.21-0.83-8.37,1.65-9.64,5.75l-10.38,33.55c-5.87,20.11-17.51,35.45-33.34,47.35L988.94,526.98z"/>
		</a>
		<a class="disponivel"
			href="">
			<path id="_x32_6" d="M926.84,464.32l45.95,52.67L843.91,617l-19.77,15.38c-2.94,2.29-7.2,1.59-9.26-1.51l-24.48-36.84
				c-2.11-4.41-3.49-8.5-4.3-12.34c-0.73-3.45,0.58-7.01,3.43-9.1l10.11-7.42L926.84,464.32z"/>
		</a>
		<a class="disponivel"
			href="">
			<path id="_x32_5" d="M930.48,461.52l45.95,52.39l81.24-60.79c10.11-8.84,17.86-19.36,22.69-31.94l14.25-41.25
				c0.91-2.64-0.69-5.49-3.43-6.07l-64.16-13.73c-3.55-0.76-7.03,1.56-7.71,5.13c-3.5,18.34-10.35,33.86-22.16,45.19L930.48,461.52z"
				/>
		</a>
		<a class="disponivel"
			href="">
			<path id="_x32_4" d="M879.49,410.44l36.05,41.09l-118.55,94.23c-3.36,2.67-8.27-0.1-7.72-4.36l3.94-30.48l1.8-32.45L879.49,410.44z
				"/>
		</a>
		<a class="disponivel"
			href="">
			<path id="_x32_3" d="M882.85,407.63l36.42,41.46l53.42-41.46c12.86-8.64,20.96-18.98,24.28-31l5.38-16.01
			c1.01-3.02-0.84-6.24-3.95-6.89l-62.95-13.09c-2.45-0.49-4.88,0.94-5.63,3.32l-10.17,31.92c-1.26,2.94-5.42,7.57-9.71,11.02
			L882.85,407.63z"/>
		</a>
		<a class="disponivel"
			href="">
			<path id="_x32_2" d="M808.89,445.74l70.97-56.59l13.26-10.27c7.66-5.49,12.89-12.81,15.13-22.41l4.81-15.5
			c0.87-2.81-0.85-5.77-3.72-6.41l-57.74-12.75c-3.02-0.67-6.01,1.2-6.75,4.2l-3.64,14.78c-2.73,13.57-11,24.43-24.56,32.68
			L773.5,402.6c-8.37,5.65-9.79,17.41-3,24.89l5.71,6.3c5.29,6.13,9.38,13.43,12.65,21.52c0.96,2.37,3.93,3.15,5.94,1.56
			L808.89,445.74z"/>
		</a>
		<a class="disponivel"
			href="">
			<path id="_x30_9" d="M868.52,212.28l70.08-16.07l-1.96-13.73l-14.01-65.84l-13.17-49.03l-5.49-17.13
			c-1.44-4.48-5.99-4.64-9.81-1.89c-6.65,4.79-13.66,8.95-23.08,12.29l-28.88,7.64c-2.75,0.73-4.36,3.58-3.58,6.32
			C851.61,120.26,861.97,165.97,868.52,212.28z"/>
		</a>
		<a class="disponivel"
			href="">
			<path id="_x30_8" d="M868.84,216.76l70.41-16.06l2.61,12.7l6.54,41.09l12.01,62.5c0.77,4.02-2.8,7.53-6.81,6.68l-65.36-13.88
			c-2.69-0.57-4.75-2.73-5.19-5.45L868.84,216.76z"/>
		</a>
		<a class="disponivel"
			href="">
			<path id="_x30_7" d="M768.3,91.4l14.45,56.44l24.57,139.35c0.45,2.53,2.36,4.54,4.85,5.12l46.63,10.84c3.6,0.84,6.9-2.26,6.29-5.91
			l-16.22-96.74l-2.61-17.18l-17.18-79.94l-7.09-24.98c-0.84-2.95-3.85-4.71-6.83-3.99l-42.79,10.27
			C769.36,85.39,767.53,88.42,768.3,91.4z"/>
		</a>
		<a class="disponivel"
			href="">
			<path id="_x30_6" d="M747.05,90.71c2.52-0.64,5.06,0.94,5.61,3.48L770.79,178l3.64,18.77l3.64,18.49l6.44,38.38l5.03,26.63
			c0.79,4.19-2.86,6.8-6.99,5.78c-15.25-3.05-30.57-3.21-45.95-0.67c-2.7,0.41-5.16-1.6-5.3-4.32l-1.14-21.81l-3.92-73.12
			l-6.18-84.93c-0.15-2.08,1.21-3.97,3.24-4.48L747.05,90.71z"/>
		</a>
		<a class="disponivel"
			href="">
			<path id="_x30_5" d="M681.42,137.66l-23.81,57.99c-3.99,9.62-6.77,20.33-7,33.34l4.2,42.3c2.45,12.12,7.93,8.16,12.53,15.06
			c5.19,7.8,11.19,10.59,16.89,9.59l28.13-6.06c2.51-0.54,4.24-2.84,4.08-5.4L705.5,118.05c-0.35-5.29-6.75-6.97-9.58-2.48
			L681.42,137.66z"/>
		</a>
		<a class="disponivel"
			href="">
			<path id="_x30_4" d="M572.81,302.67l30.82-61.07l31.56-26.33c0,0-3.18,21.76,2.8,46.51c3.94,16.29-0.22,23.55-3.62,26.64
			c-2.03,1.84-3.34,4.31-3.98,6.97c-1.53,6.4-7.47,16.3-30.06,11.15L572.81,302.67z"/>
		</a>
		<a class="disponivel"
			href="">
			<path id="_x30_3" d="M339.35,175.48c8.32-1.11,17.21,0.25,26.52,3.36c2.46,32.3,6.55,65.7,11.58,99.74
			c-18.49,5.82-32.25,15.57-41.46,29.14v0c-3.74,6.16-11.02,0.56-10.13-6.58l2.66-33.94l5.79-63.32L339.35,175.48z"/>
		</a>
		<a class="disponivel"
			href="">
			<path id="_x30_2" d="M249.7,395.4l65.63-64.11c2.91-2.85,3.23-7.54,0.52-10.58c-5.59-6.27-8.46-19.71-6.19-38.22l8.68-80.4
			c1.96-13.45-11.49-11.49-10.93-25.77l-21.43-3.36l-2.66,50.71l-11.21,84.33L249.7,395.4z"/>
		</a>
		<a class="disponivel"
			href="">
			<path id="_x30_1" d="M257.17,465.16l60.51-62.75l-10.97-19.23c-1.71-2.99-5.8-3.52-8.21-1.07l-46.93,47.75L257.17,465.16z"/>
		</a>
		<rect class="cls-1" width="1280" height="738.56"/>
</svg>
