<svg width="12" height="12" viewBox="0 0 12 12" fill="none" xmlns="http://www.w3.org/2000/svg">
<g clip-path="url(#clip0_965_2182)">
<path d="M0.75034 5.00397C0.848832 5.00383 0.946374 5.02321 1.03734 5.06097C1.12831 5.09873 1.21089 5.15412 1.28034 5.22397L5.11684 9.05997C5.23292 9.17607 5.37073 9.26818 5.52241 9.33102C5.67409 9.39386 5.83666 9.4262 6.00084 9.4262C6.16502 9.4262 6.32759 9.39386 6.47927 9.33102C6.63095 9.26818 6.76876 9.17607 6.88484 9.05997L10.7153 5.22897C10.7845 5.15733 10.8673 5.1002 10.9588 5.06089C11.0503 5.02158 11.1487 5.00089 11.2483 5.00003C11.3479 4.99916 11.4466 5.01814 11.5388 5.05585C11.631 5.09356 11.7147 5.14925 11.7851 5.21967C11.8556 5.29009 11.9112 5.37383 11.949 5.466C11.9867 5.55817 12.0056 5.65693 12.0048 5.75652C12.0039 5.8561 11.9832 5.95452 11.9439 6.04602C11.9046 6.13752 11.8475 6.22028 11.7758 6.28947L7.94534 10.1205C7.42929 10.6356 6.72996 10.9248 6.00084 10.9248C5.27172 10.9248 4.57239 10.6356 4.05634 10.1205L0.21984 6.28447C0.114882 6.17958 0.043397 6.04591 0.01443 5.90038C-0.0145371 5.75485 0.000315994 5.60399 0.0571097 5.46691C0.113903 5.32982 0.210085 5.21266 0.333485 5.13026C0.456884 5.04785 0.601955 5.0039 0.75034 5.00397Z" fill="#797B86"/>
</g>
<defs>
<clipPath id="clip0_965_2182">
<rect width="12" height="12" fill="white"/>
</clipPath>
</defs>
</svg>
