<svg width="24" height="24" viewBox="0 0 24 24" fill="none" xmlns="http://www.w3.org/2000/svg">
<g clip-path="url(#clip0_1314_2547)">
<g clip-path="url(#clip1_1314_2547)">
<path d="M6 24H18C19.3256 23.9984 20.5964 23.4711 21.5338 22.5338C22.4711 21.5964 22.9984 20.3256 23 19V5C22.9984 3.67441 22.4711 2.40356 21.5338 1.46622C20.5964 0.528882 19.3256 0.00158786 18 0L6 0C4.6744 0.00158786 3.40356 0.528882 2.46622 1.46622C1.52888 2.40356 1.00159 3.67441 1 5V19C1.00159 20.3256 1.52888 21.5964 2.46622 22.5338C3.40356 23.4711 4.6744 23.9984 6 24ZM18 2C18.7956 2 19.5587 2.31607 20.1213 2.87868C20.6839 3.44129 21 4.20435 21 5V19C21 19.7956 20.6839 20.5587 20.1213 21.1213C19.5587 21.6839 18.7956 22 18 22H6C5.20435 22 4.44129 21.6839 3.87868 21.1213C3.31607 20.5587 3 19.7956 3 19V5C3 4.20435 3.31607 3.44129 3.87868 2.87868C4.44129 2.31607 5.20435 2 6 2H18ZM8 10H16C16.7956 10 17.5587 9.68393 18.1213 9.12132C18.6839 8.55871 19 7.79565 19 7C19 6.20435 18.6839 5.44129 18.1213 4.87868C17.5587 4.31607 16.7956 4 16 4H8C7.20435 4 6.44129 4.31607 5.87868 4.87868C5.31607 5.44129 5 6.20435 5 7C5 7.79565 5.31607 8.55871 5.87868 9.12132C6.44129 9.68393 7.20435 10 8 10ZM16 6C16.2652 6 16.5196 6.10536 16.7071 6.29289C16.8946 6.48043 17 6.73478 17 7C17 7.26522 16.8946 7.51957 16.7071 7.70711C16.5196 7.89464 16.2652 8 16 8H8C7.73478 8 7.48043 7.89464 7.29289 7.70711C7.10536 7.51957 7 7.26522 7 7C7 6.73478 7.10536 6.48043 7.29289 6.29289C7.48043 6.10536 7.73478 6 8 6H16ZM18 13C18.1978 13 18.3911 13.0586 18.5556 13.1685C18.72 13.2784 18.8482 13.4346 18.9239 13.6173C18.9996 13.8 19.0194 14.0011 18.9808 14.1951C18.9422 14.3891 18.847 14.5673 18.7071 14.7071C18.5673 14.847 18.3891 14.9422 18.1951 14.9808C18.0011 15.0194 17.8 14.9996 17.6173 14.9239C17.4346 14.8482 17.2784 14.72 17.1685 14.5556C17.0586 14.3911 17 14.1978 17 14C17 13.7348 17.1054 13.4804 17.2929 13.2929C17.4804 13.1054 17.7348 13 18 13ZM14 13C14.1978 13 14.3911 13.0586 14.5556 13.1685C14.72 13.2784 14.8482 13.4346 14.9239 13.6173C14.9996 13.8 15.0194 14.0011 14.9808 14.1951C14.9422 14.3891 14.847 14.5673 14.7071 14.7071C14.5673 14.847 14.3891 14.9422 14.1951 14.9808C14.0011 15.0194 13.8 14.9996 13.6173 14.9239C13.4346 14.8482 13.2784 14.72 13.1685 14.5556C13.0586 14.3911 13 14.1978 13 14C13 13.7348 13.1054 13.4804 13.2929 13.2929C13.4804 13.1054 13.7348 13 14 13ZM10 13C10.1978 13 10.3911 13.0586 10.5556 13.1685C10.72 13.2784 10.8482 13.4346 10.9239 13.6173C10.9996 13.8 11.0194 14.0011 10.9808 14.1951C10.9422 14.3891 10.847 14.5673 10.7071 14.7071C10.5673 14.847 10.3891 14.9422 10.1951 14.9808C10.0011 15.0194 9.80004 14.9996 9.61732 14.9239C9.43459 14.8482 9.27841 14.72 9.16853 14.5556C9.05865 14.3911 9 14.1978 9 14C9 13.7348 9.10536 13.4804 9.29289 13.2929C9.48043 13.1054 9.73478 13 10 13ZM18 17C18.1978 17 18.3911 17.0586 18.5556 17.1685C18.72 17.2784 18.8482 17.4346 18.9239 17.6173C18.9996 17.8 19.0194 18.0011 18.9808 18.1951C18.9422 18.3891 18.847 18.5673 18.7071 18.7071C18.5673 18.847 18.3891 18.9422 18.1951 18.9808C18.0011 19.0194 17.8 18.9996 17.6173 18.9239C17.4346 18.8482 17.2784 18.72 17.1685 18.5556C17.0586 18.3911 17 18.1978 17 18C17 17.7348 17.1054 17.4804 17.2929 17.2929C17.4804 17.1054 17.7348 17 18 17ZM14 17C14.1978 17 14.3911 17.0586 14.5556 17.1685C14.72 17.2784 14.8482 17.4346 14.9239 17.6173C14.9996 17.8 15.0194 18.0011 14.9808 18.1951C14.9422 18.3891 14.847 18.5673 14.7071 18.7071C14.5673 18.847 14.3891 18.9422 14.1951 18.9808C14.0011 19.0194 13.8 18.9996 13.6173 18.9239C13.4346 18.8482 13.2784 18.72 13.1685 18.5556C13.0586 18.3911 13 18.1978 13 18C13 17.7348 13.1054 17.4804 13.2929 17.2929C13.4804 17.1054 13.7348 17 14 17ZM6 13C6.19778 13 6.39112 13.0586 6.55557 13.1685C6.72002 13.2784 6.84819 13.4346 6.92388 13.6173C6.99957 13.8 7.01937 14.0011 6.98079 14.1951C6.9422 14.3891 6.84696 14.5673 6.70711 14.7071C6.56726 14.847 6.38907 14.9422 6.19509 14.9808C6.00111 15.0194 5.80004 14.9996 5.61732 14.9239C5.43459 14.8482 5.27841 14.72 5.16853 14.5556C5.05865 14.3911 5 14.1978 5 14C5 13.7348 5.10536 13.4804 5.29289 13.2929C5.48043 13.1054 5.73478 13 6 13ZM5 18C5 17.7348 5.10536 17.4804 5.29289 17.2929C5.48043 17.1054 5.73478 17 6 17H10C10.2652 17 10.5196 17.1054 10.7071 17.2929C10.8946 17.4804 11 17.7348 11 18C11 18.2652 10.8946 18.5196 10.7071 18.7071C10.5196 18.8946 10.2652 19 10 19H6C5.73478 19 5.48043 18.8946 5.29289 18.7071C5.10536 18.5196 5 18.2652 5 18Z" fill="#8BFFCD"/>
</g>
</g>
<defs>
<clipPath id="clip0_1314_2547">
<rect width="24" height="24" fill="white"/>
</clipPath>
<clipPath id="clip1_1314_2547">
<rect width="24" height="24" fill="white" transform="matrix(-1 0 0 1 24 0)"/>
</clipPath>
</defs>
</svg>
