<svg width="24" height="25" viewBox="0 0 24 25" fill="none" xmlns="http://www.w3.org/2000/svg">
<g clip-path="url(#clip0_1341_613)">
<path d="M19 1H5C3.6744 1.00159 2.40356 1.52893 1.46622 2.46634C0.528882 3.40376 0.00158786 4.67471 0 6.00042L0 18.0014C0.00158786 19.3271 0.528882 20.5981 1.46622 21.5355C2.40356 22.4729 3.6744 23.0002 5 23.0018H19C20.3256 23.0002 21.5964 22.4729 22.5338 21.5355C23.4711 20.5981 23.9984 19.3271 24 18.0014V6.00042C23.9984 4.67471 23.4711 3.40376 22.5338 2.46634C21.5964 1.52893 20.3256 1.00159 19 1ZM5 3.00017H19C19.5988 3.00134 20.1835 3.1817 20.679 3.51801C21.1744 3.85433 21.5579 4.33122 21.78 4.88732L14.122 12.547C13.5584 13.1083 12.7954 13.4235 12 13.4235C11.2046 13.4235 10.4416 13.1083 9.878 12.547L2.22 4.88732C2.44215 4.33122 2.82561 3.85433 3.32105 3.51801C3.81648 3.1817 4.40121 3.00134 5 3.00017ZM19 21.0017H5C4.20435 21.0017 3.44129 20.6856 2.87868 20.1229C2.31607 19.5603 2 18.7971 2 18.0014V7.50054L8.464 13.9611C9.40263 14.8974 10.6743 15.4232 12 15.4232C13.3257 15.4232 14.5974 14.8974 15.536 13.9611L22 7.50054V18.0014C22 18.7971 21.6839 19.5603 21.1213 20.1229C20.5587 20.6856 19.7956 21.0017 19 21.0017Z" fill="#8BFFCD"/>
</g>
<defs>
<clipPath id="clip0_1341_613">
<rect width="24" height="24.002" fill="white"/>
</clipPath>
</defs>
</svg>
