<svg width="24" height="25" viewBox="0 0 24 25" fill="none" xmlns="http://www.w3.org/2000/svg">
<g clip-path="url(#clip0_1272_1854)">
<path d="M22.824 18.177L6.821 2.17501C5.656 1.01001 3.986 0.676015 2.467 1.30901C0.945 1.93801 0 3.35202 0 5.00002V19.991C0 22.752 2.246 24.998 5.007 24.998H19.998C21.644 24.998 23.059 24.053 23.689 22.531C24.319 21.009 23.988 19.342 22.824 18.177ZM21.843 21.767C21.523 22.538 20.834 22.998 19.999 22.998H5.007C3.349 22.998 2 21.649 2 19.991V5.00002C2 4.16502 2.46 3.47601 3.232 3.15601C3.493 3.04801 3.758 2.99501 4.019 2.99501C4.528 2.99501 5.017 3.19801 5.407 3.58902L7.018 5.20002L5.11 7.10802C4.719 7.49902 4.719 8.13102 5.11 8.52202C5.305 8.71702 5.561 8.81502 5.817 8.81502C6.073 8.81502 6.329 8.71702 6.524 8.52202L8.432 6.61402L9.898 8.08002L7.99 9.98802C7.599 10.379 7.599 11.011 7.99 11.402C8.185 11.597 8.441 11.695 8.697 11.695C8.953 11.695 9.209 11.597 9.404 11.402L11.312 9.49402L12.727 10.908L10.819 12.816C10.428 13.207 10.428 13.839 10.819 14.23C11.014 14.425 11.27 14.523 11.526 14.523C11.782 14.523 12.038 14.425 12.233 14.23L14.141 12.322L15.555 13.736L13.647 15.644C13.256 16.035 13.256 16.667 13.647 17.058C13.842 17.253 14.098 17.351 14.354 17.351C14.61 17.351 14.866 17.253 15.061 17.058L16.969 15.15L18.383 16.564L16.475 18.472C16.084 18.863 16.084 19.495 16.475 19.886C16.67 20.081 16.926 20.179 17.182 20.179C17.438 20.179 17.694 20.081 17.889 19.886L19.797 17.978L21.408 19.589C21.998 20.18 22.16 20.993 21.841 21.765L21.843 21.767ZM10.708 17.291C10.994 17.577 11.08 18.007 10.925 18.381C10.77 18.755 10.405 18.998 10.001 18.998H7.001C6.449 18.998 6.001 18.551 6.001 17.998V14.998C6.001 14.594 6.245 14.228 6.618 14.074C6.992 13.918 7.422 14.005 7.708 14.291L10.708 17.291Z" fill="#339686"/>
</g>
<defs>
<clipPath id="clip0_1272_1854">
<rect width="24" height="24" fill="white" transform="translate(0 0.998016)"/>
</clipPath>
</defs>
</svg>
