<svg width="24" height="24" viewBox="0 0 24 24" fill="none" xmlns="http://www.w3.org/2000/svg">
<g clip-path="url(#clip0_1382_1705)">
<path d="M23.1183 0.882014C22.7598 0.519141 22.3137 0.254869 21.8232 0.11473C21.3327 -0.0254085 20.8144 -0.0366769 20.3183 0.0820139L4.31828 3.45201C3.39685 3.57838 2.52901 3.95949 1.81248 4.55243C1.09595 5.14536 0.559191 5.92657 0.262653 6.80808C-0.0338854 7.68959 -0.0784249 8.63638 0.13405 9.54183C0.346525 10.4473 0.807574 11.2754 1.46528 11.933L3.18328 13.65C3.27626 13.743 3.35 13.8534 3.40028 13.9748C3.45056 14.0963 3.47638 14.2265 3.47628 14.358V17.526C3.47848 17.9714 3.58102 18.4107 3.77628 18.811L3.76828 18.818L3.79428 18.844C4.08729 19.4331 4.56586 19.9096 5.15628 20.2L5.18228 20.226L5.18928 20.218C5.58964 20.4133 6.02885 20.5158 6.47428 20.518H9.64228C9.90733 20.5178 10.1616 20.6228 10.3493 20.81L12.0663 22.527C12.5268 22.9926 13.0749 23.3625 13.6791 23.6153C14.2832 23.8681 14.9314 23.9989 15.5863 24C16.132 23.9993 16.6741 23.9102 17.1913 23.736C18.0647 23.4492 18.8406 22.924 19.4315 22.2197C20.0224 21.5154 20.4047 20.66 20.5353 19.75L23.9103 3.71501C24.0351 3.21465 24.0278 2.69043 23.8889 2.19378C23.7501 1.69712 23.4845 1.24508 23.1183 0.882014ZM4.59928 12.238L2.88028 10.521C2.48 10.1304 2.19945 9.63366 2.07156 9.08917C1.94368 8.54468 1.97376 7.97501 2.15828 7.44701C2.33717 6.90534 2.66788 6.42644 3.11107 6.06728C3.55427 5.70811 4.09129 5.4838 4.65828 5.42101L20.4993 2.08601L5.47428 17.113V14.358C5.47579 13.9644 5.39924 13.5743 5.24905 13.2104C5.09886 12.8465 4.87801 12.516 4.59928 12.238ZM18.5703 19.408C18.4935 19.9604 18.2643 20.4804 17.9084 20.9097C17.5525 21.339 17.0839 21.6606 16.5554 21.8384C16.0269 22.0162 15.4592 22.0431 14.9162 21.9163C14.3732 21.7894 13.8763 21.5136 13.4813 21.12L11.7613 19.4C11.4836 19.1209 11.1534 18.8995 10.7897 18.7488C10.426 18.5981 10.036 18.521 9.64228 18.522H6.88728L21.9143 3.50001L18.5703 19.408Z" fill="#8BFFCD"/>
</g>
<defs>
<clipPath id="clip0_1382_1705">
<rect width="24" height="24" fill="white"/>
</clipPath>
</defs>
</svg>
