<svg width="80" height="80" viewBox="0 0 80 80" fill="none" xmlns="http://www.w3.org/2000/svg">
<g clip-path="url(#clip0_8_45)">
<path d="M0 0H56C69.2548 0 80 10.7452 80 24V56C80 69.2548 69.2548 80 56 80H24C10.7452 80 0 69.2548 0 56V0Z" fill="#004A46"/>
<mask id="mask0_8_45" style="mask-type:luminance" maskUnits="userSpaceOnUse" x="18" y="22" width="44" height="37">
<path d="M61.6462 22H18V58.472H61.6462V22Z" fill="white"/>
</mask>
<g mask="url(#mask0_8_45)">
<path d="M39.8209 22C25.158 22 18.0001 28.7253 18.0001 38.8053C17.9901 40.4744 18.2117 42.1368 18.6586 43.7458C19.0841 45.8718 20.1413 47.8224 21.6936 49.3458C23.3538 51.167 25.4067 52.592 27.699 53.5147C31.5571 55.4764 36.0201 56.9476 39.8209 58.4729C43.4366 57.0693 47.6463 55.6213 51.3711 53.7502C54.4596 52.6507 57.1327 50.6334 59.0273 47.9724C59.9492 46.7815 60.5995 45.4058 60.9331 43.9404C61.4185 42.2729 61.6596 40.5447 61.6489 38.8089C61.6462 28.7253 54.4839 22 39.8209 22ZM39.8209 45.5307C34.1259 45.5307 30.7438 43.1191 30.7438 38.8053C30.7438 34.4916 34.1259 32.0853 39.8209 32.0853C45.5159 32.0853 48.9034 34.4969 48.9034 38.8053C48.9034 43.1138 45.5168 45.5307 39.8209 45.5307Z" fill="white"/>
<path d="M48.9025 38.8062C48.9025 43.12 45.5159 45.5315 39.82 45.5315C34.1241 45.5315 30.7429 43.12 30.7429 38.8062C30.7429 34.4924 34.125 32.0853 39.82 32.0853C45.515 32.0853 48.9025 34.4969 48.9025 38.8062Z" fill="#2DB478"/>
</g>
</g>
<defs>
<clipPath id="clip0_8_45">
<rect width="80" height="80" fill="white"/>
</clipPath>
</defs>
</svg>
