<?xml version="1.0" encoding="utf-8"?>
<!-- Generator: Adobe Illustrator 26.5.0, SVG Export Plug-In . SVG Version: 6.00 Build 0)  -->
<svg version="1.1" id="svg-map" xmlns="http://www.w3.org/2000/svg" xmlns:xlink="http://www.w3.org/1999/xlink" x="0px" y="0px"
	 viewBox="0 0 1060 810" style="enable-background:new 0 0 1060 810;" xml:space="preserve">
<style type="text/css">
	.st0{fill:none;}
</style>
<g>
	<a href="../../../empreendimentos/quadra-villa-da-serra.html">
		<path id="_16" d="M692.4,264.4l10.8-13.5c1.8-2.6,4.4-3.1,7.5-1.6l12.2,10.9c4.7,5.5,6.6,12.7,5.5,21.7c0,3.7-1.7,5.2-3.8,6.2
			l-10.6,4.5l-54.7,21.8c-2.3,0.9-4.3-1.8-2.8-3.8L692.4,264.4L692.4,264.4z"/>
	</a>
	<a href="../../../empreendimentos/quadra-villa-da-serra.html">
		<path id="_15" d="M563.7,502l66.9-9.8l50.3-19.9l41.1-16.2l70.6-27.9c3.2-1.2,6.6,1.1,6.5,4.5l-0.5,59.9
			c-9.6,4.1-3.7,10.7-10,11.7c-18.3-1.3-31.9,1-42.2,5.7l-71.4,28.7c-15.7,7.4-34,12.4-55,15.1L544.4,565c-4.1,0.6-7.3-3.4-5.9-7.3
			l18.1-49.9C557.7,504.7,560.4,502.5,563.7,502L563.7,502z"/>
	</a>
	<a href="../../../empreendimentos/quadra-villa-da-serra.html">
		<path id="_14" d="M539.4,369l43.2,24.5c2.1,1.2,2.9,3.9,1.7,6l-19.4,35.3l-6.1,13.5L521,554.3c-1.2,3.5-4.9,4.6-7.8,2.3
			l-29.4-22.7c-8.6-6.8-12-18.4-8.3-28.8l18.9-53l9-23.7l5.8-14.2c6.2-12.7,14.2-27.4,23.5-43.3C534,368.5,537,367.6,539.4,369
			L539.4,369z"/>
	</a>
	<a href="../../../empreendimentos/quadra-villa-da-serra.html">
		<path id="_13" d="M745.7,433l49.4-19.7c2.3-0.9,3.9-3.2,3.9-5.7v-27.5v-31.6l-97,38.3l-65,26c-7,2.8-14.8,2.3-21.4-1.3l-0.7-0.4
			l-7.5-4.2c-2.7-1.5-6-0.6-7.6,2l-1,1.6l-4.8,8.4l-7.3,12.9l-4.6,8.7l-8.4,18.6l-8.3,21.6c-1.6,4.1,1.9,8.4,6.2,7.7l58.5-9.4
			l104.7-41.4L745.7,433L745.7,433z"/>
	</a>
	<a href="../../../empreendimentos/quadra-villa-da-serra.html">
		<path id="_12" d="M695.3,376.5l-11.1,4.3l-51,20.6c-3.5,1.4-7.4,1.3-10.8-0.3l-9.3-4.4c-2.7-1.3-3.8-4.5-2.3-7.1l29.5-53.3
			c0.8-1.5,2.1-2.6,3.7-3.2l51.3-20.4l15.8-6.2l11.5-4.6c3-1.2,6.2,1,6.2,4.2l0,54.5c0,1.6-1,3.1-2.5,3.7L695.3,376.5L695.3,376.5z"
			/>
	</a>
	<a href="../../../empreendimentos/quadra-villa-da-serra.html">
		<path id="_11" d="M558.2,300.9l-56,100c-0.2,0.4-0.7,0.5-1,0.3l-24.5-13.6c-0.4-0.2-0.5-0.7-0.3-1l56.1-100.2l5.9-9.7l6.2-11.2
			c0,0,0,0,0,0l6.8-10.8l6.8-9.9c0.2-0.3,0.7-0.4,1.1-0.2l22.7,15.6c0.3,0.2,0.4,0.7,0.2,1l-6.1,9.4l-6.2,9.9l-6.1,10.3L558.2,300.9
			z"/>
	</a>
	<a href="../../../empreendimentos/quadra-villa-da-serra.html">
		<path id="_10" d="M616.5,119l-48.6,6l22.3,27.1l29.9-3.7l13.6-2.1L589,202.9l23.8,18.4l44-55.9c13.4-14.6,29.1-18.6,47.8-9.7
			l18.5,7.4c4.6,1.3,5.3-2.2,7.6-3.7c3.3-1.8,5.2-3.8,5.2-5.9l-7.8-43.7c-0.5-2.8-3.1-4.7-5.9-4.3l-37.7,4.9L616.5,119L616.5,119z"
			/>
	</a>
	<a href="../../../empreendimentos/quadra-villa-da-serra.html">
		<path id="_9" d="M548.7,341.9l-5.4,9.3c-1.4,2.5-0.5,5.6,1.9,7l42.1,24.2c2.8,1.6,6.5,0.6,8.1-2.2l8.8-15.7l5.6-10.3l14.5-25.8
			c8.4-14.7,16.6-27.6,24.5-37l9.1-11.7l65.1-83.2c1.6-2,1.9-4.4,1.2-7.2c-1.7-2.8-2.4-6.1-2.3-9.8c-0.6-2.5-2.2-4.2-4.7-5.2
			l-19.8-8c-12.2-5.4-22.8-3.4-31.5,6.7L600.3,257l-8,10.9l-8.3,12.3l-23.6,40.8l-5.9,10.2L548.7,341.9L548.7,341.9z"/>
	</a>
	<a href="../../../empreendimentos/quadra-villa-da-serra.html">
		<path id="_8" d="M749.2,354.2l47-18.8c1.9-0.8,3.2-2.6,3.2-4.7l0.6-98.4c0-1.7-0.8-3.4-2.1-4.4l-33.6-27.1
			c-1.6-1.3-3.8-1.5-5.7-0.6l-1.7,0.8c-4,1.6-7.9,2.4-12,2.1l-0.3-0.1c-2.5-0.4-5,0.5-6.5,2.5l-21,26.7c-1.8,2.2-1.4,5.5,0.9,7.2
			l12.6,10.4c6.9,7.6,10.1,16.6,9.9,26.9l-0.1,11.7l-0.1,12.3l-0.4,49.8c0,3.5,3.4,5.9,6.7,4.7L749.2,354.2L749.2,354.2z"/>
	</a>
	<a href="../../../empreendimentos/quadra-villa-da-serra.html">
		<path id="_7" d="M880.5,239.4l0.2-16.4l24.9,12.1c-5,14.5-5,20.6,4.1,23.9l0,11.9l-0.2,11.9l-0.8,68c-0.2,9-4.9,18.6-15.2,22.6
			l-14.8,6l1.1-97.1L880.5,239.4L880.5,239.4z"/>
	</a>
	<a href="../../../empreendimentos/quadra-villa-da-serra.html">
		<path id="_6A" d="M901.7,416.5l9-8.5l13.2-14.9c-8.8-3.6-9.1-9.6-21.8-9.3l-11.6,3.9l-11.9,4.7l-0.5,46.2l11.9-11.2L901.7,416.5"
			/>
	</a>
	<a href="../../../empreendimentos/quadra-villa-da-serra.html">
		<path id="_6" d="M1004,335.1l-16.6,29c-2.3,4-6.1,6.8-10.5,8l-39.1,9.9c-8.7,2.4-17.3-4.2-17.2-13.3l1.2-71.2
			c0.1-3.7,3.9-6.1,7.2-4.5l72.7,34.7C1004.5,329,1005.5,332.4,1004,335.1L1004,335.1z"/>
	</a>
	<a href="../../../empreendimentos/quadra-villa-da-serra.html">
		<path id="_5" d="M1005.1,316.8c6.7,2.8,10.3,8.1,10.9,15.7l14.2-36.6l-12-5.6l-9.7-4.7l-86.9-42.7l-0.5,29.5c0,2.7,1.5,5.2,4,6.4
			l70.8,33.6L1005.1,316.8L1005.1,316.8z"/>
	</a>
	<a href="../../../empreendimentos/quadra-villa-da-serra.html">
		<path id="_4" d="M721.5,0.2l8.7,11.1l24.2,52.3L766.7,85l5.8,10.2l10.3,21.4l5.1,10.7l12.5,23.6l-0.5,63.7l-28.4-23.2
			c-1.5-1.5-2-3.5-1.5-6.1c2.1-17.1-4.3-27.3-18.9-31.1c-2.1-0.7-3.3-2-3.7-3.8l-9.3-50.8c-1.6-8.5-4.5-16.2-8.8-23.2l-25.8-50.1
			L721.5,0.2z"/>
	</a>
	<a href="../../../empreendimentos/quadra-villa-da-serra.html">
		<path id="_3" d="M446.4,154.4l102.3-37.3l13.7-3l58.8-7.4l13.7-1.7l82.2-10c3.9-0.5,6.1-4.7,4.3-8.2l-27-51.8l-36.8,32.4
			l-26.1,10.1l-13.4,4.8l-14.8,4.6L587,88.1l-31.4,0.7l-14.7,7.1l-14.8,5.5l-15.5,3.8l-12,3.1l-28.7,7.8l-25.3,9.9l-14.4,5.7l9.9,25
			L446.4,154.4L446.4,154.4z"/>
	</a>
	<a href="../../../empreendimentos/quadra-villa-da-serra.html">
		<path id="_2A" d="M430.2,131.6l-9.8,3.9l-30.1,18.9l-11.4,4.9L342,175.1l-4.8-0.7l-6-3.7l-19-13.5L280,131.8l5.1,36.3l11,8.9
			c25.3,22.9,52,25.9,79.9,9.9l52.1-25.8l11.9-4.5L430.2,131.6L430.2,131.6z"/>
	</a>
	<a href="../../../empreendimentos/quadra-villa-da-serra.html">
		<path id="_2" d="M242.8,131.6l-4.1-33.5c0-0.4-0.2-0.8-0.5-1l-50.2-42c-0.7-0.5-1.6-0.5-2.2,0.2l-16.1,19.1
			c-0.6,0.7-0.5,1.7,0.2,2.2l70.4,56.5C241.3,133.9,242.9,133,242.8,131.6z"/>
	</a>
	<a href="../../../empreendimentos/quadra-villa-da-serra.html">
		<path id="_1A" d="M374.2,202.3l50.5-25.7v20.6l-5.4,15.3l-32.5,16.6c-30.6,13.2-61.5,13.1-92.7-2.1l-6.2-40.6
			C311.6,208.2,343.5,216.3,374.2,202.3L374.2,202.3z"/>
	</a>
	<a href="../../../empreendimentos/quadra-villa-da-serra.html">
		<path id="_1" d="M223.9,135.5l-18.5,23.1l-52.6-42.4l7.1-23.6c5.3,1.7,7-2.3,11.2,0.2L223.9,135.5L223.9,135.5z"/>
	</a>
	<rect y="0" class="st0" width="1060" height="810"/>
</g>
</svg>
