<svg width="24" height="25" viewBox="0 0 24 25" fill="none" xmlns="http://www.w3.org/2000/svg">
<g clip-path="url(#clip0_1376_1742)">
<g clip-path="url(#clip1_1376_1742)">
<path d="M23 15.0011H22.333C22.083 15.0011 21.835 15.0201 21.588 15.0581L14.542 9.77367L16.23 8.15754C16.629 7.7755 16.643 7.14145 16.261 6.74342C15.878 6.34439 15.244 6.33138 14.847 6.71242L10.674 10.7077C10.466 10.9158 10.183 11.0228 9.88602 10.9978C9.58802 10.9738 9.32603 10.8228 9.14703 10.5727C8.87303 10.1927 8.95702 9.59766 9.31502 9.23863L14.018 4.80926C14.909 3.97219 16.302 3.76717 17.392 4.31422L19.708 5.47231C20.398 5.81734 21.172 5.99936 21.943 5.99936H22.999C23.552 5.99936 23.999 5.55232 23.999 4.99927C23.999 4.44623 23.552 3.99919 22.999 3.99919H21.943C21.48 3.99919 21.015 3.89018 20.601 3.68316L18.287 2.52507C16.463 1.61199 14.134 1.95102 12.646 3.35314L12.028 3.93518L11.328 3.29713C10.409 2.46006 9.21902 1.99902 7.93802 1.99902C7.16702 1.99902 6.39802 2.18104 5.71102 2.52407L3.39702 3.68216C2.98202 3.88918 2.51702 3.99819 2.05402 3.99819H1.00002C0.447024 3.99819 2.34377e-05 4.44523 2.34377e-05 4.99827C2.34377e-05 5.55132 0.447024 5.99836 1.00002 5.99836H2.05602C2.82702 5.99836 3.60102 5.81534 4.29202 5.47131L6.60802 4.31322C7.63002 3.79917 9.06603 3.93819 9.98203 4.77525L10.569 5.3103L7.92302 7.80251C6.85002 8.8746 6.67902 10.5697 7.52502 11.7408C8.04502 12.4639 9.07802 12.9999 9.96902 12.9999C10.762 12.9999 11.523 12.6879 12.073 12.1369L13.079 11.1738L19.425 15.9332C19.394 15.9552 13.227 20.5796 13.227 20.5796C12.504 21.1416 11.495 21.1416 10.757 20.5686L4.66602 16.0002C3.80702 15.3551 2.74102 15.0001 1.66602 15.0001H0.999024C0.446024 15.0001 -0.000976562 15.4471 -0.000976562 16.0002C-0.000976562 16.5532 0.446024 17.0003 0.999024 17.0003H1.66602C2.31102 17.0003 2.95002 17.2133 3.46602 17.6003L9.54303 22.1587C10.268 22.7227 11.137 23.0048 12.004 23.0048C12.866 23.0048 13.727 22.7257 14.441 22.1697L20.534 17.6013C21.049 17.2143 21.688 17.0013 22.333 17.0013H23C23.553 17.0013 24 16.5542 24 16.0012C24 15.4481 23.553 15.0011 23 15.0011Z" fill="#005959"/>
</g>
</g>
<defs>
<clipPath id="clip0_1376_1742">
<rect width="24" height="24.002" fill="white"/>
</clipPath>
<clipPath id="clip1_1376_1742">
<rect width="24" height="24.002" fill="white" transform="matrix(-1 0 0 1 24 0)"/>
</clipPath>
</defs>
</svg>
