<svg width="24" height="24" viewBox="0 0 24 24" fill="none" xmlns="http://www.w3.org/2000/svg">
<g clip-path="url(#clip0_801_2076)">
<path d="M12 6.01801C11.2089 6.01801 10.4355 6.2526 9.77772 6.69213C9.11993 7.13165 8.60723 7.75637 8.30448 8.48727C8.00173 9.21818 7.92252 10.0224 8.07686 10.7984C8.2312 11.5743 8.61216 12.287 9.17157 12.8464C9.73098 13.4058 10.4437 13.7868 11.2196 13.9411C11.9956 14.0955 12.7998 14.0163 13.5307 13.7135C14.2616 13.4108 14.8864 12.8981 15.3259 12.2403C15.7654 11.5825 16 10.8091 16 10.018C16 8.95714 15.5786 7.93972 14.8284 7.18958C14.0783 6.43943 13.0609 6.01801 12 6.01801ZM12 12.018C11.6044 12.018 11.2178 11.9007 10.8889 11.6809C10.56 11.4612 10.3036 11.1488 10.1522 10.7834C10.0009 10.4179 9.96126 10.0158 10.0384 9.62782C10.1156 9.23986 10.3061 8.8835 10.5858 8.60379C10.8655 8.32409 11.2219 8.13361 11.6098 8.05643C11.9978 7.97926 12.3999 8.01887 12.7654 8.17025C13.1308 8.32162 13.4432 8.57797 13.6629 8.90687C13.8827 9.23576 14 9.62244 14 10.018C14 10.5484 13.7893 11.0571 13.4142 11.4322C13.0391 11.8073 12.5304 12.018 12 12.018Z" fill="#004D46"/>
<path d="M12 23.936C11.1626 23.9402 10.3364 23.7438 9.59054 23.3631C8.84467 22.9824 8.20086 22.4286 7.713 21.748C3.922 16.519 2 12.589 2 10.067C2 7.41484 3.05357 4.8713 4.92893 2.99593C6.8043 1.12057 9.34784 0.0670013 12 0.0670013C14.6522 0.0670013 17.1957 1.12057 19.0711 2.99593C20.9464 4.8713 22 7.41484 22 10.067C22 12.591 20.078 16.521 16.287 21.75C15.7991 22.4306 15.1553 22.9844 14.4095 23.3651C13.6636 23.7458 12.8374 23.9422 12 23.938V23.936ZM12 2.236C9.92382 2.23838 7.93336 3.0642 6.46528 4.53228C4.9972 6.00036 4.17138 7.99082 4.169 10.067C4.169 12.067 6.052 15.767 9.469 20.476C9.75913 20.8755 10.1397 21.2007 10.5796 21.4249C11.0195 21.6491 11.5063 21.766 12 21.766C12.4937 21.766 12.9805 21.6491 13.4204 21.4249C13.8603 21.2007 14.2409 20.8755 14.531 20.476C17.948 15.767 19.831 12.067 19.831 10.067C19.8286 7.99082 19.0028 6.00036 17.5347 4.53228C16.0666 3.0642 14.0762 2.23838 12 2.236Z" fill="#004D46"/>
</g>
<defs>
<clipPath id="clip0_801_2076">
<rect width="24" height="24" fill="white"/>
</clipPath>
</defs>
</svg>
