<svg width="24" height="25" viewBox="0 0 24 25" fill="none" xmlns="http://www.w3.org/2000/svg">
<g clip-path="url(#clip0_1272_1857)">
<path d="M14.648 6.49102C15.521 5.79002 16.42 4.84802 16.876 3.70202C17.114 3.10402 17.037 2.42502 16.671 1.88602C16.294 1.33002 15.669 0.998016 15 0.998016H9C8.331 0.998016 7.706 1.33002 7.329 1.88602C6.963 2.42502 6.887 3.10402 7.124 3.70202C7.58 4.84702 8.479 5.79002 9.352 6.49102C4.696 8.21902 1 14.157 1 18.998C1 22.307 3.691 24.998 7 24.998H17C20.309 24.998 23 22.307 23 18.998C23 14.157 19.304 8.21902 14.648 6.49102ZM15.017 2.96302C14.501 4.26002 12.923 5.35602 11.998 5.87302C11.075 5.36002 9.503 4.27302 8.999 2.99802L15.017 2.96302ZM16.999 22.998H7C4.794 22.998 3 21.204 3 18.998C3 13.755 7.71 7.99802 12 7.99802C16.29 7.99802 21 13.755 21 18.998C21 21.204 19.205 22.998 16.999 22.998ZM11.999 22.998C11.447 22.998 10.999 22.55 10.999 21.998V20.998H10.731C9.663 20.998 8.668 20.424 8.133 19.499C7.857 19.021 8.02 18.41 8.498 18.133C8.974 17.856 9.587 18.019 9.864 18.498C10.042 18.806 10.375 18.998 10.731 18.998H12.999C13.55 18.998 13.999 18.549 13.999 17.998C13.999 17.62 13.728 17.3 13.355 17.238L10.313 16.731C8.972 16.508 7.998 15.358 7.998 13.998C7.998 12.344 9.344 10.998 10.998 10.998V9.99802C10.998 9.44602 11.446 8.99802 11.998 8.99802C12.55 8.99802 12.998 9.44602 12.998 9.99802V10.998H13.266C14.333 10.998 15.329 11.573 15.864 12.498C16.14 12.976 15.977 13.587 15.499 13.864C15.022 14.141 14.41 13.978 14.133 13.499C13.954 13.19 13.622 12.999 13.266 12.999H10.998C10.447 12.999 9.998 13.448 9.998 13.999C9.998 14.377 10.269 14.697 10.642 14.759L13.684 15.266C15.025 15.489 15.999 16.639 15.999 17.999C15.999 19.653 14.653 20.999 12.999 20.999V21.999C12.999 22.551 12.551 22.998 11.999 22.998Z" fill="#339686"/>
</g>
<defs>
<clipPath id="clip0_1272_1857">
<rect width="24" height="24" fill="white" transform="translate(0 0.998016)"/>
</clipPath>
</defs>
</svg>
