<svg width="24" height="25" viewBox="0 0 24 25" fill="none" xmlns="http://www.w3.org/2000/svg">
<g clip-path="url(#clip0_1716_220)">
<path d="M17 10.0398C15.6193 10.0436 14.2706 10.4568 13.1247 11.2271C11.9787 11.9974 11.0869 13.0903 10.5621 14.3675C10.0372 15.6447 9.90284 17.0489 10.176 18.4024C10.4491 19.756 11.1175 20.9982 12.0965 21.9719C13.0756 22.9456 14.3214 23.607 15.6764 23.8726C17.0313 24.1382 18.4346 23.996 19.7088 23.464C20.9829 22.9319 22.0707 22.034 22.8345 20.8836C23.5984 19.7333 24.004 18.3823 24 17.0014C23.9876 15.1522 23.2449 13.3828 21.9337 12.0788C20.6225 10.7748 18.8491 10.0419 17 10.0398ZM17 22.0018C16.0165 21.9981 15.0561 21.7032 14.2399 21.1544C13.4237 20.6056 12.7882 19.8274 12.4136 18.918C12.0389 18.0085 11.9419 17.0085 12.1347 16.044C12.3275 15.0794 12.8015 14.1936 13.4969 13.4981C14.1924 12.8025 15.0782 12.3285 16.0426 12.1357C17.0071 11.9429 18.007 12.0399 18.9164 12.4146C19.8258 12.7893 20.6039 13.4248 21.1526 14.2411C21.7014 15.0573 21.9962 16.0178 22 17.0014C22.0017 17.6586 21.8736 18.3096 21.6229 18.917C21.3722 19.5245 21.004 20.0764 20.5394 20.5411C20.0747 21.0057 19.5228 21.374 18.9154 21.6247C18.308 21.8754 17.6571 22.0035 17 22.0018ZM18.707 17.2944C18.8025 17.3867 18.8787 17.497 18.9311 17.6191C18.9835 17.7411 19.0111 17.8723 19.0123 18.0051C19.0134 18.1379 18.9881 18.2696 18.9378 18.3925C18.8875 18.5154 18.8133 18.6271 18.7194 18.721C18.6255 18.8149 18.5138 18.8891 18.391 18.9394C18.2681 18.9897 18.1364 19.015 18.0036 19.0138C17.8708 19.0127 17.7396 18.9851 17.6176 18.9327C17.4956 18.8803 17.3852 18.8041 17.293 18.7086L16.293 17.7085C16.1054 17.521 16.0001 17.2666 16 17.0014V15.0012C16 14.736 16.1054 14.4816 16.2929 14.2941C16.4804 14.1065 16.7348 14.0012 17 14.0012C17.2652 14.0012 17.5196 14.1065 17.7071 14.2941C17.8946 14.4816 18 14.736 18 15.0012V16.5874L18.707 17.2944ZM24 7.00058V9.00075C24 9.26599 23.8946 9.52036 23.7071 9.70792C23.5196 9.89547 23.2652 10.0008 23 10.0008C22.7348 10.0008 22.4804 9.89547 22.2929 9.70792C22.1054 9.52036 22 9.26599 22 9.00075V7.00058C22 6.20487 21.6839 5.44174 21.1213 4.87909C20.5587 4.31643 19.7956 4.00033 19 4.00033H5C4.20435 4.00033 3.44129 4.31643 2.87868 4.87909C2.31607 5.44174 2 6.20487 2 7.00058V8.00067H11C11.2652 8.00067 11.5196 8.10603 11.7071 8.29358C11.8946 8.48114 12 8.73551 12 9.00075C12 9.26599 11.8946 9.52036 11.7071 9.70792C11.5196 9.89547 11.2652 10.0008 11 10.0008H2V19.0016C2 19.7973 2.31607 20.5604 2.87868 21.1231C3.44129 21.6857 4.20435 22.0018 5 22.0018H9C9.26522 22.0018 9.51957 22.1072 9.70711 22.2948C9.89464 22.4823 10 22.7367 10 23.0019C10 23.2672 9.89464 23.5215 9.70711 23.7091C9.51957 23.8966 9.26522 24.002 9 24.002H5C3.6744 24.0004 2.40356 23.4731 1.46622 22.5357C0.528882 21.5982 0.00158786 20.3273 0 19.0016L0 7.00058C0.00158786 5.67488 0.528882 4.40392 1.46622 3.46651C2.40356 2.52909 3.6744 2.00175 5 2.00017H6V1.00008C6 0.734845 6.10536 0.48047 6.29289 0.292918C6.48043 0.105366 6.73478 0 7 0C7.26522 0 7.51957 0.105366 7.70711 0.292918C7.89464 0.48047 8 0.734845 8 1.00008V2.00017H16V1.00008C16 0.734845 16.1054 0.48047 16.2929 0.292918C16.4804 0.105366 16.7348 0 17 0C17.2652 0 17.5196 0.105366 17.7071 0.292918C17.8946 0.48047 18 0.734845 18 1.00008V2.00017H19C20.3256 2.00175 21.5964 2.52909 22.5338 3.46651C23.4711 4.40392 23.9984 5.67488 24 7.00058Z" fill="#8BFFCD"/>
</g>
<defs>
<clipPath id="clip0_1716_220">
<rect width="24" height="24.002" fill="white"/>
</clipPath>
</defs>
</svg>
