<svg width="28" height="28" viewBox="0 0 28 28" fill="none" xmlns="http://www.w3.org/2000/svg">
<path d="M6.63334 21.9332H3.41268C3.25707 21.9334 3.10788 21.9953 2.99784 22.1053C2.88779 22.2154 2.82589 22.3645 2.82571 22.5202V26.2466C2.82589 26.4022 2.8878 26.5514 2.99784 26.6615C3.10788 26.7715 3.25707 26.8334 3.41268 26.8335H6.63334C6.78894 26.8334 6.93812 26.7715 7.04815 26.6614C7.15817 26.5514 7.22005 26.4022 7.22021 26.2466V22.5202C7.22005 22.3645 7.15817 22.2154 7.04815 22.1053C6.93812 21.9953 6.78894 21.9334 6.63334 21.9332ZM6.41671 26.03H3.6292V22.7367H6.41666L6.41671 26.03Z" fill="#004047" stroke="#004047" stroke-width="0.596591" stroke-linejoin="round"/>
<path d="M12.3465 18.595H9.12584C8.97024 18.5951 8.82106 18.657 8.71103 18.767C8.601 18.8771 8.5391 19.0262 8.53892 19.1818V26.2465C8.53909 26.4021 8.60098 26.5513 8.71101 26.6613C8.82105 26.7713 8.97024 26.8332 9.12584 26.8333H12.3465C12.5021 26.8332 12.6513 26.7713 12.7613 26.6613C12.8714 26.5513 12.9333 26.4021 12.9335 26.2465V19.1818C12.9333 19.0262 12.8714 18.8771 12.7613 18.767C12.6513 18.657 12.5021 18.5951 12.3465 18.595ZM12.1299 26.0298H9.34246V19.3985H12.1299V26.0298Z" fill="#004047" stroke="#004047" stroke-width="0.596591" stroke-linejoin="round"/>
<path d="M18.0587 14.4985H14.8409C14.6849 14.4987 14.5354 14.5607 14.4251 14.671C14.3149 14.7813 14.2528 14.9308 14.2527 15.0868V26.2452C14.2528 26.4011 14.3148 26.5506 14.4251 26.6609C14.5353 26.7712 14.6847 26.8332 14.8406 26.8334H18.0584C18.2144 26.8333 18.3639 26.7712 18.4742 26.661C18.5845 26.5507 18.6465 26.4012 18.6467 26.2452V20.2106C18.6473 20.1575 18.6373 20.1047 18.6174 20.0555C18.5975 20.0062 18.568 19.9614 18.5306 19.9236C18.4932 19.8858 18.4488 19.8558 18.3997 19.8353C18.3507 19.8149 18.2981 19.8043 18.2449 19.8043C18.1918 19.8043 18.1392 19.8149 18.0901 19.8353C18.0411 19.8558 17.9966 19.8858 17.9592 19.9236C17.9219 19.9614 17.8924 20.0062 17.8725 20.0555C17.8525 20.1047 17.8426 20.1575 17.8432 20.2106V26.0297H15.0559V15.3018H17.8437V18.0435C17.8431 18.0966 17.853 18.1493 17.873 18.1986C17.8929 18.2479 17.9224 18.2927 17.9597 18.3305C17.9971 18.3683 18.0416 18.3983 18.0906 18.4187C18.1397 18.4392 18.1923 18.4497 18.2454 18.4497C18.2986 18.4497 18.3512 18.4392 18.4002 18.4187C18.4493 18.3983 18.4937 18.3683 18.5311 18.3305C18.5685 18.2927 18.598 18.2479 18.6179 18.1986C18.6378 18.1493 18.6478 18.0966 18.6472 18.0435V15.0866C18.647 14.9306 18.5849 14.7811 18.4745 14.6709C18.3642 14.5606 18.2147 14.4986 18.0587 14.4985Z" fill="#004047" stroke="#004047" stroke-width="0.596591" stroke-linejoin="round"/>
<path d="M23.7725 10.6545H20.5546C20.3987 10.6547 20.2492 10.7167 20.1389 10.827C20.0286 10.9373 19.9666 11.0868 19.9664 11.2427V26.2453C19.9666 26.4012 20.0286 26.5507 20.1388 26.661C20.249 26.7713 20.3985 26.8333 20.5544 26.8335H23.7723C23.9282 26.8334 24.0777 26.7713 24.188 26.661C24.2983 26.5508 24.3603 26.4013 24.3605 26.2453V24.3834C24.3593 24.2776 24.3164 24.1766 24.2412 24.1022C24.166 24.0278 24.0645 23.9861 23.9587 23.9861C23.8529 23.9861 23.7514 24.0278 23.6762 24.1022C23.601 24.1766 23.5582 24.2776 23.557 24.3834V26.03H20.7697V11.458H23.5572V21.685C23.5584 21.7908 23.6012 21.8919 23.6764 21.9662C23.7516 22.0406 23.8531 22.0823 23.9589 22.0823C24.0647 22.0823 24.1662 22.0406 24.2414 21.9662C24.3166 21.8919 24.3595 21.7908 24.3607 21.685V11.2427C24.3605 11.0868 24.2985 10.9373 24.1882 10.827C24.0779 10.7167 23.9284 10.6547 23.7725 10.6545Z" fill="#004047" stroke="#004047" stroke-width="0.596591" stroke-linejoin="round"/>
<path d="M21.5692 5.63351H22.7561C22.8776 5.63261 22.9982 5.65578 23.1108 5.70168C23.2233 5.74758 23.3257 5.8153 23.412 5.90095C23.4983 5.98659 23.5667 6.08847 23.6135 6.2007C23.6602 6.31293 23.6843 6.4333 23.6843 6.55487C23.6843 6.67643 23.6602 6.7968 23.6135 6.90903C23.5667 7.02126 23.4983 7.12314 23.412 7.20878C23.3257 7.29443 23.2233 7.36215 23.1108 7.40805C22.9982 7.45395 22.8776 7.47712 22.7561 7.47622H20.8347C20.7289 7.47741 20.6279 7.52025 20.5535 7.59547C20.4791 7.67068 20.4374 7.77219 20.4374 7.87797C20.4374 7.98375 20.4791 8.08527 20.5535 8.16048C20.6279 8.23569 20.7289 8.27854 20.8347 8.27972H21.7609V8.8906C21.762 8.99638 21.8049 9.09742 21.8801 9.1718C21.9553 9.24617 22.0568 9.28789 22.1626 9.28789C22.2684 9.28789 22.3699 9.24617 22.4451 9.1718C22.5203 9.09742 22.5632 8.99638 22.5644 8.8906V8.27972H22.7561C22.9834 8.28095 23.2087 8.23724 23.419 8.1511C23.6294 8.06497 23.8206 7.93811 23.9818 7.77782C24.1429 7.61753 24.2708 7.42697 24.3581 7.2171C24.4453 7.00722 24.4903 6.78216 24.4903 6.55487C24.4903 6.32757 24.4453 6.10251 24.3581 5.89263C24.2708 5.68276 24.1429 5.4922 23.9818 5.33191C23.8206 5.17162 23.6294 5.04476 23.419 4.95863C23.2087 4.87249 22.9834 4.82878 22.7561 4.83001H21.5692C21.3248 4.83001 21.0905 4.73294 20.9177 4.56016C20.7449 4.38737 20.6479 4.15303 20.6479 3.90867C20.6479 3.66432 20.7449 3.42998 20.9177 3.25719C21.0905 3.08441 21.3248 2.98734 21.5692 2.98734H23.4809C23.534 2.98793 23.5867 2.97798 23.636 2.95806C23.6853 2.93813 23.7301 2.90863 23.7679 2.87127C23.8057 2.8339 23.8357 2.78942 23.8561 2.74038C23.8766 2.69134 23.8871 2.63873 23.8871 2.58559C23.8871 2.53245 23.8766 2.47984 23.8561 2.4308C23.8357 2.38176 23.8057 2.33728 23.7679 2.29991C23.7301 2.26255 23.6853 2.23305 23.636 2.21312C23.5867 2.1932 23.534 2.18325 23.4809 2.18384H22.5644V1.57301C22.565 1.51987 22.555 1.46715 22.5351 1.41788C22.5152 1.36862 22.4857 1.3238 22.4483 1.28602C22.4109 1.24823 22.3664 1.21823 22.3174 1.19776C22.2684 1.17729 22.2158 1.16675 22.1626 1.16675C22.1095 1.16675 22.0569 1.17729 22.0078 1.19776C21.9588 1.21823 21.9143 1.24823 21.8769 1.28602C21.8396 1.3238 21.8101 1.36862 21.7901 1.41788C21.7702 1.46715 21.7603 1.51987 21.7609 1.57301V2.18369H21.5692C21.3427 2.18369 21.1184 2.2283 20.9091 2.31499C20.6999 2.40167 20.5097 2.52872 20.3496 2.68888C20.1894 2.84905 20.0623 3.03919 19.9757 3.24846C19.889 3.45772 19.8444 3.68201 19.8444 3.90852C19.8444 4.13503 19.889 4.35932 19.9757 4.56859C20.0623 4.77785 20.1894 4.968 20.3496 5.12816C20.5097 5.28833 20.6999 5.41538 20.9091 5.50206C21.1184 5.58874 21.3427 5.63336 21.5692 5.63336V5.63351Z" fill="#004047" stroke="#004047" stroke-width="0.65625" stroke-linejoin="round"/>
<path d="M3.22769 19.9043C3.31902 19.9044 3.40764 19.8732 3.4788 19.8159L5.27425 18.3754C5.31651 18.3428 5.35184 18.3021 5.37817 18.2557C5.40451 18.2092 5.42132 18.158 5.42764 18.105C5.43395 18.052 5.42963 17.9982 5.41493 17.9469C5.40024 17.8956 5.37546 17.8477 5.34204 17.8061C5.30863 17.7644 5.26725 17.7299 5.22033 17.7044C5.1734 17.6789 5.12187 17.6631 5.06875 17.6578C5.01563 17.6524 4.96198 17.6578 4.91094 17.6734C4.8599 17.6891 4.81249 17.7147 4.77148 17.7489L2.97603 19.1892C2.91112 19.2413 2.86399 19.3122 2.84114 19.3922C2.8183 19.4723 2.82086 19.5574 2.84849 19.6359C2.87611 19.7144 2.92743 19.7824 2.99536 19.8305C3.06329 19.8785 3.14447 19.9043 3.22769 19.9043Z" fill="#004047" stroke="#004047" stroke-width="0.596591" stroke-linejoin="round"/>
<path d="M16.737 11.1558C16.7365 11.209 16.7464 11.2617 16.7663 11.311C16.7863 11.3602 16.8158 11.405 16.8531 11.4428C16.8905 11.4806 16.935 11.5106 16.984 11.5311C17.033 11.5516 17.0857 11.5621 17.1388 11.5621C17.1919 11.5621 17.2446 11.5516 17.2936 11.5311C17.3426 11.5106 17.3871 11.4806 17.4245 11.4428C17.4618 11.405 17.4913 11.3602 17.5113 11.311C17.5312 11.2617 17.5411 11.209 17.5405 11.1558V7.79529H14.18C14.0735 7.79529 13.9713 7.83762 13.896 7.91296C13.8206 7.98831 13.7783 8.0905 13.7783 8.19706C13.7783 8.30362 13.8206 8.40581 13.896 8.48116C13.9713 8.55651 14.0735 8.59884 14.18 8.59884H16.1762L7.01312 15.9502C6.93278 16.0178 6.88206 16.1141 6.87182 16.2185C6.86159 16.323 6.89264 16.4273 6.95834 16.5092C7.02404 16.5911 7.11917 16.644 7.22338 16.6566C7.32759 16.6692 7.4326 16.6405 7.51594 16.5767L16.737 9.17879V11.1558Z" fill="#004047" stroke="#004047" stroke-width="0.596591" stroke-linejoin="round"/>
</svg>
