<svg width="24" height="25" viewBox="0 0 24 25" fill="none" xmlns="http://www.w3.org/2000/svg">
<g clip-path="url(#clip0_1341_528)">
<path fill-rule="evenodd" clip-rule="evenodd" d="M20.4631 3.48829C18.2171 1.2401 15.2311 0.00100008 12.0501 0C5.49513 0 0.160129 5.33444 0.157129 11.893C0.156129 13.9892 0.704129 16.0353 1.74513 17.8395L0.0571289 24.002L6.36113 22.3479C8.09813 23.2959 10.0541 23.795 12.0441 23.796H12.0491C18.6031 23.796 23.9391 18.4605 23.9421 11.902C23.9441 8.72473 22.7081 5.73548 20.4631 3.48829ZM12.0501 21.7868H12.0461C10.2721 21.7868 8.53313 21.3098 7.01513 20.4087L6.65413 20.1947L2.91313 21.1758L3.91213 17.5275L3.67713 17.1534C2.68713 15.5793 2.16513 13.7601 2.16613 11.893C2.16813 6.44254 6.60313 2.00817 12.0551 2.00817C14.6951 2.00817 17.1771 3.03825 19.0431 4.90641C20.9091 6.77556 21.9361 9.25877 21.9351 11.9C21.9321 17.3524 17.4981 21.7868 12.0501 21.7868ZM17.4721 14.3832C17.1751 14.2342 15.7141 13.5151 15.4411 13.4161C15.1691 13.3171 14.9711 13.2671 14.7721 13.5641C14.5731 13.8612 14.0051 14.5312 13.8311 14.7302C13.6581 14.9282 13.4841 14.9532 13.1871 14.8042C12.8901 14.6552 11.9321 14.3422 10.7971 13.3291C9.91413 12.541 9.31713 11.568 9.14413 11.2699C8.97113 10.9719 9.12613 10.8119 9.27413 10.6639C9.40813 10.5309 9.57113 10.3169 9.72013 10.1428C9.87013 9.97083 9.91913 9.84682 10.0191 9.6478C10.1181 9.44979 10.0691 9.27577 9.99413 9.12676C9.91913 8.97875 9.32513 7.51563 9.07813 6.92058C8.83713 6.34053 8.59213 6.41953 8.40913 6.41053C8.23613 6.40153 8.03813 6.40053 7.83913 6.40053C7.64113 6.40053 7.31913 6.47454 7.04713 6.77256C6.77513 7.07059 6.00713 7.78965 6.00713 9.25177C6.00713 10.7149 7.07213 12.128 7.22013 12.326C7.36813 12.524 9.31513 15.5263 12.2961 16.8134C13.0051 17.1194 13.5591 17.3024 13.9901 17.4395C14.7021 17.6655 15.3501 17.6335 15.8621 17.5575C16.4331 17.4725 17.6201 16.8384 17.8681 16.1443C18.1161 15.4503 18.1161 14.8542 18.0411 14.7312C17.9671 14.6062 17.7691 14.5322 17.4721 14.3832Z" fill="#8BFFCD"/>
</g>
<defs>
<clipPath id="clip0_1341_528">
<rect width="24" height="24.002" fill="white"/>
</clipPath>
</defs>
</svg>
