<?xml version="1.0" encoding="UTF-8"?><svg id="quadras" xmlns="http://www.w3.org/2000/svg" viewBox="0 0 1250 850"><defs><style>.cls-1{fill:none;}</style></defs><path id="_33" d="m689.49,272.32l102.03-79.05c.74-.57,1.8-.49,2.44.19l8.69,9.26,10.17,9.92,8.75,8.32c.88.84.81,2.27-.15,3.02l-105.99,82.39c-1.12.86-2.72.64-3.56-.49l-22.77-30.71c-.67-.9-.49-2.16.39-2.85Z"/><path id="_32" d="m659.57,232.6l105.25-81.89c1.03-.8,2.53-.49,3.16.66l5.04,9.24,6.83,12.36c2.18,3.86,4.87,8.01,7.82,12.31.53.83.34,1.93-.44,2.53l-101.56,78.96c-.98.76-2.4.57-3.14-.44l-23.26-31.64c-.48-.67-.34-1.6.31-2.1Z"/><path id="_31" d="m631.15,192.96l106.61-82.63c1.06-.82,2.58-.62,3.4.44l6.63,8.63,14.44,21.89c.72,1.09.48,2.55-.55,3.35l-105.83,82c-.99.77-2.42.57-3.17-.44l-22.01-29.72c-.82-1.11-.61-2.68.49-3.53Z"/><path id="_30" d="m601.7,153.56l104.69-81.01c1.4-1.08,2.86-.55,3.38,1.14.99,3.29,3.3,6.42,5.95,9.65l17.41,18.81c.96,1.03.82,2.67-.29,3.53l-105.91,82.04c-.95.74-2.33.55-3.04-.42l-22.61-30.68c-.71-.97-.52-2.32.43-3.06Z"/><path id="_29" d="m702.58,40.98l-118.35,92.85,10.18,13.69c.77,1.04,2.25,1.24,3.28.45l108.11-83.9c.64-.49.94-1.3.79-2.09l-4-20.99Z"/><path id="_28" d="m669.1,342.35l29.26-22.87c.89-.7,1.07-1.98.39-2.89l-114.64-154.76c-6.13-8.02-11.54-8.89-24,2.46-4.47,3.4-8.96,7.74-13.47,12.73-.93,1.04-1.02,2.59-.19,3.71l119.43,161.18c.76,1.02,2.21,1.22,3.22.44Z"/><path id="_27" d="m629.63,372.55l29.77-22.77c1.02-.78,1.23-2.24.46-3.27l-78.48-105.92c-1.29-1.74-4.06-.82-4.04,1.36l.58,63.8,49.56,66.5c.51.68,1.47.82,2.15.3Z"/><path id="_26" d="m574.06,347.09l12.46,2.61,9.27-6.95,25.41,34.27c.77,1.04.53,2.51-.55,3.22-9.22,6.12-16.77,13.74-21.58,23.83l-5.36,14.12c-.4,1.06-1.58,1.59-2.64,1.2l-35-12.88c-1.06-.39-1.6-1.56-1.21-2.62l15.9-42.9,3.28-13.91Z"/><path id="_25" d="m510.27,389.04l34.84,13.15c1.05.4,2.22-.14,2.62-1.19l13.58-36.28c5.81-18.72,9.36-38.5,9.27-60.01l-1.03-79.59-27.12-36.83c-.95-1.29-2.92-1.15-3.68.25-6.19,11.31-9.21,23.29-10.41,35.81l.52,80.62c.55,15.78-1.9,30.89-6.18,45.59l-13.75,35.5c-.46,1.19.14,2.53,1.34,2.97Z"/><path id="_24" d="m550.63,414.93c.43-1.24,1.79-1.88,3.02-1.41l34.83,13.27c1.02.39,1.54,1.53,1.15,2.55l-45.7,121.25c-.24.63-.85,1.05-1.53,1.05l-54.25-.17c-2.32,0-3.48-2.82-1.82-4.45,6.89-6.76,19.79-21.03,29.38-41.16,12.19-25.57,30.89-79.28,34.91-90.94Z"/><path id="_23" d="m666.46,560.2l-190.92-1.4-38.47,37.88c-1.29,1.27-.4,3.48,1.42,3.49l227.67,1.62c1.2,0,2.18-.96,2.19-2.16l.23-37.3c0-1.17-.94-2.13-2.11-2.14Z"/><path id="_22" d="m582.17,510.36l84.7.81c1.13.01,2.03.93,2.02,2.06l-.26,37.54c0,1.03-.85,1.86-1.87,1.85l-84.77-.56.19-41.69Z"/><path id="_21" d="m596.12,433.1l-24.85,66.93c-.48,1.29.47,2.66,1.84,2.67l93.66.79c2.13.02,3.07-2.67,1.38-3.97-19.9-15.34-42.24-37.33-67.49-67.22-1.32-1.56-3.84-1.12-4.55.8Z"/><path id="_20" d="m755.66,504.26l-69-.51c-.5,0-.97-.16-1.37-.46-5.29-4-44.16-33.79-71.83-67.93,0,0-4.38-6.5-8.89-9.59l-2.54-1.54c-1.28-.78-1.8-2.37-1.23-3.76l5.19-12.6c4.06-9.23,11.34-16.89,21.12-23.31,35.79,50.8,79.04,87.97,129.61,115.52,2.03,1.11,1.25,4.19-1.07,4.17Z"/><path id="_19" d="m995,633.09l-78.39-.63-1.55,37.99-415.14-1.84,1.78-40.13-63.25-.53.13-20.48,545.25,4.25c.32,0,.62.18.78.46l11.19,19.55c.35.61-.09,1.37-.8,1.36Z"/><path id="_18" d="m676.23,562.3l-.29,37.56c0,1.11.89,2.02,2,2.03l241.14,1.88c1.78.02,2.9-1.91,2-3.45l-21.92-37.57c-.24-.41-.68-.67-1.16-.67l-219.68-1.84c-1.15,0-2.09.91-2.1,2.06Z"/><path id="_17" d="m676.44,513.47v37c0,1.19.96,2.16,2.15,2.17l212.09,1.88c1.74.02,2.81-1.91,1.87-3.37-13.81-21.39-28.63-39.59-47.35-55.22-1.19-1-2.98-.7-3.85.59-7.4,10.99-18.06,15.79-31.62,15.73l-131.1-.95c-1.21,0-2.19.97-2.19,2.17Z"/><path id="_16" d="m666.99,356.35c70.82,94.08,119.13,97.5,167.95,131.64,1.42.99,1.68,3.02.53,4.33-9.44,10.8-18.44,13.03-33.87,12.2h-19.51c-59.28-27.73-105.02-65.11-147.91-122.82-.73-.98-.54-2.37.43-3.12l29.21-22.66c.99-.77,2.42-.57,3.17.43Z"/><path id="_15" d="m705.73,326.11c73.34,93.68,100.92,80.23,159.84,123.62.94.69,1.12,2.04.4,2.96l-23.13,29.38c-.72.91-2.03,1.05-2.93.32-39.38-31.44-93.57-33.5-167.12-130.71-.68-.9-.52-2.2.38-2.9l29.66-23.05c.9-.7,2.21-.53,2.91.37Z"/><path id="_14" d="m872.22,457.45c.68-.88,1.97-1.01,2.82-.3,24.44,20.54,44.22,42.72,58.32,66.88l44.75,76.91c.84,1.44-.21,3.25-1.87,3.25l-43.44-.36c-.63,0-1.21-.35-1.52-.9-39.4-70.29-47.99-83.5-81.9-113.2-.78-.69-.9-1.87-.26-2.69l23.1-29.58Z"/><path id="_13" d="m953.23,440.68l79.41,137.06c.57.99.24,2.26-.75,2.83l-32.34,18.95c-.99.58-2.27.24-2.85-.75l-48.02-83.12c-18.02-28.31-37.9-51.8-60.16-70.26-4.41-3.66-1.14-10.81,4.51-9.8,19.1,3.4,38.75,4.8,58.91,4.35.53-.01,1.03.26,1.29.72Z"/><path id="_12" d="m966.07,440.39c55.51,7.49,89.5,51.4,89.75,101.99-.81,13.06-2.3,24.01-6.18,27.62l-7.4,4.68c-1.12.71-2.61.34-3.28-.81l-74.96-130.4c-.86-1.49.37-3.32,2.07-3.09Z"/><path id="_11" d="m1117.51,638.13l-41.25.21c-5.24.03-10.09-2.74-12.72-7.27l-25.04-42.93c-.53-.92-1.71-1.23-2.63-.7l-32.22,18.47c-1.13.65-1.52,2.1-.87,3.23l14.4,24.99h44.04l.39,19.7c17.91-1.39,36.72,2.95,56.15,11.33l-.26-27.04Z"/><path id="_10" d="m1077.83,459.07c1-.71,2.39-.46,3.06.57,18.16,27.84,26.9,61.46,22.65,98.78-2.33,18.02-9.74,42.97-15.49,70.31-.21.98-1.07,1.69-2.08,1.68l-8.87-.05c-3.25-.02-6.24-1.76-7.88-4.57l-23.89-41.29c-.68-1.18-.21-2.69,1.01-3.29,8.52-4.21,12.84-9.51,13.93-15.64,5.51-25.92,3.76-56.38-13.39-82.48-.5-.76-.32-1.77.42-2.3l30.53-21.71Z"/><path id="_09" d="m897.52,388.52c.25-1.18,1.42-1.9,2.59-1.63,33.75,7.82,62.08-1.03,96.99,9.91,47.03,13.58,72,46.29,77.07,53.55.55.79.36,1.87-.42,2.43-5.33,3.76-24.38,17.21-30.42,21.43-.99.69-2.33.52-3.12-.39-18.75-21.5-25.3-25.88-52.89-36.71-32.25-10.54-44,.53-95.84-9.64-1.24-.24-2.04-1.46-1.77-2.7,1.78-8.23,7.82-36.24,7.82-36.24Z"/><path id="_08" d="m751.84,289.84c35.27,50.27,81.59,80.5,137.16,94.7.89.23,1.45,1.12,1.25,2.02l-8.15,37.22c-.21.95-1.16,1.54-2.1,1.3-66.33-16.82-122.24-54.24-160.66-110.02-.51-.75-.36-1.77.36-2.33l29.7-23.26c.77-.6,1.89-.43,2.45.37Z"/><path id="_07" d="m507.71,396.24c-1.26-.48-2.67.16-3.14,1.43l-25.42,68.54c-8.56,21.45-20.29,40.52-36.57,56.15l-49.13,48.23c-6.18,6.08-7.41,16.36-.06,24.66,7.4,6.1,11.56,3.64,29.62,4.89,44.04-43.27,72.44-66.06,90.92-108.43l29.55-79.38c.47-1.25-.17-2.65-1.42-3.12l-34.34-12.96Z"/><path id="_06" d="m1118.59,430.69c.82-.58,1.98-.38,2.49.49,27.08,46.1,47.17,92.08,19.48,189.56-1.2,6.47-5.67,9.55-12.88,9.79l-29.52-.23c-1.54-.01-2.65-1.47-2.26-2.95,5.19-19.9,9.79-39.91,14.35-58.67,6.5-50.21-3.47-81.92-23.01-113.44-.57-.93-.34-2.14.55-2.77l30.79-21.77Z"/><path id="_05" d="m907.94,340.72c.27-1.27,1.52-2.1,2.79-1.83,34.63,7.19,56.16-3.63,105.5,12.25,57.33,18.69,91.09,60.5,98.24,70.07.8,1.08.55,2.59-.55,3.36-6.1,4.26-24.54,17.12-30.4,21.21-1.02.71-2.42.51-3.2-.46-19.1-23.56-30.49-32.19-56.75-46.66-56.77-25.82-70.49-8.83-121.48-19.21-1.29-.26-2.11-1.54-1.84-2.82l7.69-35.9Z"/><path id="_04" d="m791.07,260.04c29.03,41.91,65.34,65.14,107.81,76.32,1.07.28,1.74,1.35,1.51,2.44l-7.79,36.57c-.25,1.16-1.41,1.88-2.56,1.59-53.84-14-99.28-44.34-131.94-91.78-.63-.91-.43-2.15.45-2.83l29.55-22.77c.94-.73,2.3-.5,2.97.47Z"/><path id="_03" d="m1155.24,387.52l3.99-.64,17.13,36.06-20.22,9.53c27.17,52.54,38.25,109.46,12.3,197.66l-23.5-.11c3.12-4.76,2.68-8.77,3.99-13,25.7-83.32,9.47-141.85-22.69-192.08,26.66-16.03,30.6-23.66,29.01-37.41Z"/><path id="_02" d="m918.6,292.53c.25-1.1,1.33-1.82,2.44-1.59,23.13,4.84,56.81-3.47,105.81,12.3,51.02,15.59,89.39,43.01,118.61,79.01,4.58,9.23,3.09,17.96-6.95,25.11l-14.79,10.44c-.91.64-2.17.45-2.85-.43-18.99-24.46-41.32-44.65-68.32-58.88-68.62-35.16-101.73-19.08-140.05-26.88-1.38-.28-2.27-1.62-1.97-3l8.07-36.07Z"/><path id="_01" d="m797.32,252.53l29.67-22.98c.84-.65,2.05-.46,2.67.41,23.58,33.22,49.03,50.42,79.94,58.36.97.25,1.58,1.21,1.37,2.19l-7.91,37.09c-.22,1.04-1.27,1.7-2.3,1.43-42.8-11.18-78.01-36.02-103.84-73.98-.55-.81-.36-1.92.42-2.52Z"/><rect id="tamanho" class="cls-1" width="1250" height="850"/></svg>