<svg width="97" height="20" viewBox="0 0 97 20" fill="none" xmlns="http://www.w3.org/2000/svg">
<g clip-path="url(#clip0_346_346)">
<path d="M12.1484 17.5C10.1758 18.3008 7.8125 18.7695 6.03516 18.7695C2.55859 18.7695 0 16.8945 0 14.3164V4.55078H5.29297V11.543C5.29297 13.3203 6.23047 14.2188 8.14453 14.2188C9.17969 14.2188 10.6055 13.8477 11.9531 13.2031V4.55078H17.2461V18.5352H12.5781L12.1484 17.5Z" fill="#2DB478"/>
<path d="M24.3359 4.55078L25.4297 6.07422C26.9141 4.96094 28.9648 4.31641 31.1719 4.31641C32.0703 4.31641 33.0078 4.43359 33.3594 4.53125V9.29687C32.6563 9.16016 31.9531 9.08203 31.2891 9.08203C28.9258 9.10156 26.5625 9.84375 25.4492 11.4453V18.5352H20.1562V4.55078H24.3359Z" fill="#2DB478"/>
<path d="M35.2734 0.703125H40.5664V5.13672C41.875 4.62891 43.5156 4.31641 45.2148 4.31641C50.2539 4.31641 53.6523 7.10937 53.6523 11.543C53.6523 15.9766 50.2539 18.7695 45.2148 18.7695C43.2617 18.7695 41.4258 18.3594 40.0391 17.7344L39.4531 18.5352H35.2539V0.703125H35.2734ZM48.2031 11.543C48.2031 9.6875 46.8555 8.65234 43.8867 8.65234C42.7148 8.65234 41.5234 8.82813 40.5664 9.0625V14.0625C41.4062 14.2773 42.4609 14.4336 43.6914 14.4336C46.8555 14.4336 48.2031 13.3984 48.2031 11.543Z" fill="#2DB478"/>
<path d="M55.3125 0.703125H60.6055V14.4336L61.6602 18.5352H55.3125V0.703125Z" fill="#004047"/>
<path d="M90.2344 0V4.55078H96.6016V8.39844H90.2344V12.9297C90.2344 13.8867 91.1719 14.4531 92.8125 14.4531C94.1602 14.4531 95.8789 14.2383 96.9141 13.8672V18.0273C96.0742 18.418 94.375 18.75 92.3437 18.75C87.8125 18.75 84.9414 16.8945 84.9414 13.9648V8.41797H82.2656V4.55078H84.9414V1.52344L90.2344 0Z" fill="#004047"/>
<path d="M80.3125 15.4883C80.7031 14.9805 80.9766 14.3945 81.1328 13.75C81.3281 13.0664 81.4453 12.3242 81.4453 11.543C81.4453 7.20703 78.3789 4.31641 72.1289 4.31641C65.8789 4.31641 62.8125 7.20703 62.8125 11.543C62.8125 12.3047 62.9102 13.0078 63.0859 13.6719C63.2617 14.6094 63.7305 15.4102 64.375 16.0742C65.0195 16.8164 65.8789 17.4219 66.9336 17.8711C68.5742 18.7109 70.4883 19.3555 72.1094 20C73.6523 19.3945 75.4492 18.7695 77.0508 17.9688C78.4961 17.4023 79.5703 16.5625 80.3125 15.4883ZM72.1094 8.65234C74.5508 8.65234 75.9961 9.6875 75.9961 11.543C75.9961 13.3984 74.5508 14.4336 72.1094 14.4336C69.668 14.4336 68.2227 13.3984 68.2227 11.543C68.2227 9.6875 69.668 8.65234 72.1094 8.65234Z" fill="#004047"/>
</g>
<defs>
<clipPath id="clip0_346_346">
<rect width="96.9141" height="20" fill="white"/>
</clipPath>
</defs>
</svg>
