<svg width="147" height="32" viewBox="0 0 147 32" fill="none" xmlns="http://www.w3.org/2000/svg">
<path d="M79.8913 1.6H87.8853V23.7757L89.4783 30.4H79.8913V1.6Z" fill="#004047"/>
<path d="M135.815 0V7.99708L147 8V14.4H135.815V21.6C135.815 23.1517 137.605 24.0521 140.289 24.0521C142.494 24.0521 145.306 23.7038 147 23.1021V29.8471C145.626 30.4804 142.846 31.0188 139.522 31.0188C132.108 31.0188 127.826 27.95 127.826 23.2V14.4H123.033V7.99708L127.826 8V2.4L135.815 0Z" fill="#004047"/>
<path d="M119.306 24.7813C119.936 23.9688 120.377 23.0313 120.629 22C120.944 20.9063 121.133 19.7188 121.133 18.4688C121.133 11.5313 116.187 7.20002 106.105 7.20002C96.0226 7.20002 91.0761 11.5313 91.0761 18.4688C91.0761 19.6875 91.2336 20.8125 91.5172 21.875C91.8007 23.375 92.5569 24.6563 93.5966 25.7188C94.6363 26.9063 96.0226 27.875 97.7239 28.5938C100.37 29.9375 103.458 30.9688 106.073 32C108.562 31.0313 111.461 30.0313 114.044 28.75C116.376 27.8438 118.109 26.5 119.306 24.7813ZM106.073 13.8438C110.011 13.8438 112.343 15.5 112.343 18.4688C112.343 21.4375 110.011 23.0938 106.073 23.0938C102.135 23.0938 99.8034 21.4375 99.8034 18.4688C99.8034 15.5 102.135 13.8438 106.073 13.8438Z" fill="#004047"/>
<path d="M19.1341 28.7625C16.0271 30.024 12.3049 30.7625 9.50553 30.7625C4.02985 30.7625 0 27.8086 0 23.7471V8H8.33656V19.3779C8.33656 22.1779 9.81315 23.5933 12.8278 23.5933C14.4582 23.5933 16.7039 23.0086 18.8265 21.9932V8H27.163V30.3932H19.8109L19.1341 28.7625Z" fill="#2DB478"/>
<path d="M38.5322 7.99744L40.2529 10.3974C42.5882 8.6436 45.8146 7.62821 49.2868 7.62821C50.7003 7.62821 52.1752 7.81283 52.7283 7.96667V15.4744C51.6221 15.259 50.5159 15.1359 49.4712 15.1359C45.7531 15.1667 42.0351 16.3359 40.2837 18.859V30.4H31.9565V7.99744H38.5322Z" fill="#2DB478"/>
<path d="M55.9238 1.6H63.9129V9.6C65.9586 8.79049 68.8387 7.72875 71.495 7.72875C79.3722 7.72875 84.6847 12.1811 84.6847 19.2488C84.6847 26.3164 79.3722 30.7688 71.495 30.7688C68.4418 30.7688 65.5718 30.1149 63.4041 29.1186L62.4881 30.3951H55.9238V1.6ZM75.8966 19.2C75.8966 16.2422 74.0596 14.6408 69.4188 14.6408C67.5869 14.6408 65.409 14.8264 63.9129 15.2V23.2C65.2258 23.5425 67.19 23.8568 69.1135 23.8568C74.0596 23.8568 75.8966 22.1578 75.8966 19.2Z" fill="#2DB478"/>
</svg>
