<svg width="117" height="24" viewBox="0 0 117 24" fill="none" xmlns="http://www.w3.org/2000/svg">
<g clip-path="url(#clip0_346_356)">
<path d="M14.5781 21C12.2109 21.9609 9.375 22.5234 7.24219 22.5234C3.07031 22.5234 0 20.2734 0 17.1797V5.46094H6.35156V13.8516C6.35156 15.9844 7.47656 17.0625 9.77344 17.0625C11.0156 17.0625 12.7266 16.6172 14.3437 15.8437V5.46094H20.6953V22.2422H15.0937L14.5781 21Z" fill="#2DB478"/>
<path d="M29.2031 5.46094L30.5156 7.28906C32.2969 5.95312 34.7578 5.17969 37.4063 5.17969C38.4844 5.17969 39.6094 5.32031 40.0313 5.4375V11.1562C39.1875 10.9922 38.3438 10.8984 37.5469 10.8984C34.7109 10.9219 31.875 11.8125 30.5391 13.7344V22.2422H24.1875V5.46094H29.2031Z" fill="#2DB478"/>
<path d="M42.3281 0.84375H48.6797V6.16406C50.25 5.55469 52.2187 5.17969 54.2578 5.17969C60.3047 5.17969 64.3828 8.53125 64.3828 13.8516C64.3828 19.1719 60.3047 22.5234 54.2578 22.5234C51.9141 22.5234 49.7109 22.0313 48.0469 21.2813L47.3437 22.2422H42.3047V0.84375H42.3281ZM57.8437 13.8516C57.8437 11.625 56.2266 10.3828 52.6641 10.3828C51.2578 10.3828 49.8281 10.5938 48.6797 10.875V16.875C49.6875 17.1328 50.9531 17.3203 52.4297 17.3203C56.2266 17.3203 57.8437 16.0781 57.8437 13.8516Z" fill="#2DB478"/>
<path d="M66.375 0.84375H72.7266V17.3203L73.9922 22.2422H66.375V0.84375Z" fill="#004047"/>
<path d="M108.281 0V5.46094H115.922V10.0781H108.281V15.5156C108.281 16.6641 109.406 17.3438 111.375 17.3438C112.992 17.3438 115.055 17.0859 116.297 16.6406V21.6328C115.289 22.1016 113.25 22.5 110.812 22.5C105.375 22.5 101.93 20.2734 101.93 16.7578V10.1016H98.7188V5.46094H101.93V1.82813L108.281 0Z" fill="#004047"/>
<path d="M96.375 18.5859C96.8438 17.9766 97.1719 17.2734 97.3594 16.5C97.5937 15.6797 97.7344 14.7891 97.7344 13.8516C97.7344 8.64844 94.0547 5.17969 86.5547 5.17969C79.0547 5.17969 75.375 8.64844 75.375 13.8516C75.375 14.7656 75.4922 15.6094 75.7031 16.4062C75.9141 17.5312 76.4766 18.4922 77.25 19.2891C78.0234 20.1797 79.0547 20.9062 80.3203 21.4453C82.2891 22.4531 84.5859 23.2266 86.5313 24C88.3828 23.2734 90.5391 22.5234 92.4609 21.5625C94.1953 20.8828 95.4844 19.875 96.375 18.5859ZM86.5313 10.3828C89.4609 10.3828 91.1953 11.625 91.1953 13.8516C91.1953 16.0781 89.4609 17.3203 86.5313 17.3203C83.6016 17.3203 81.8672 16.0781 81.8672 13.8516C81.8672 11.625 83.6016 10.3828 86.5313 10.3828Z" fill="#004047"/>
</g>
<defs>
<clipPath id="clip0_346_356">
<rect width="116.297" height="24" fill="white"/>
</clipPath>
</defs>
</svg>
