<svg width="156" height="32" viewBox="0 0 156 32" fill="none" xmlns="http://www.w3.org/2000/svg">
<g clip-path="url(#clip0_346_366)">
<path d="M19.4375 28C16.2813 29.2813 12.5 30.0313 9.65625 30.0313C4.09375 30.0313 0 27.0313 0 22.9063V7.28125H8.46875V18.4687C8.46875 21.3125 9.96875 22.75 13.0313 22.75C14.6875 22.75 16.9688 22.1562 19.125 21.125V7.28125H27.5938V29.6563H20.125L19.4375 28Z" fill="#2DB478"/>
<path d="M38.9375 7.28125L40.6875 9.71875C43.0625 7.9375 46.3438 6.90625 49.875 6.90625C51.3125 6.90625 52.8125 7.09375 53.375 7.25V14.875C52.25 14.6562 51.125 14.5312 50.0625 14.5312C46.2812 14.5625 42.5 15.75 40.7188 18.3125V29.6563H32.25V7.28125H38.9375Z" fill="#2DB478"/>
<path d="M56.4375 1.125H64.9062V8.21875C67 7.40625 69.625 6.90625 72.3437 6.90625C80.4062 6.90625 85.8438 11.375 85.8438 18.4688C85.8438 25.5625 80.4062 30.0312 72.3437 30.0312C69.2187 30.0312 66.2812 29.375 64.0625 28.375L63.125 29.6563H56.4062V1.125H56.4375ZM77.125 18.4688C77.125 15.5 74.9687 13.8438 70.2187 13.8438C68.3437 13.8438 66.4375 14.125 64.9062 14.5V22.5C66.25 22.8438 67.9375 23.0938 69.9062 23.0938C74.9687 23.0938 77.125 21.4375 77.125 18.4688Z" fill="#2DB478"/>
<path d="M88.5 1.125H96.9687V23.0938L98.6562 29.6563H88.5V1.125Z" fill="#004047"/>
<path d="M144.375 0V7.28125H154.562V13.4375H144.375V20.6875C144.375 22.2187 145.875 23.125 148.5 23.125C150.656 23.125 153.406 22.7812 155.062 22.1875V28.8438C153.719 29.4688 151 30 147.75 30C140.5 30 135.906 27.0312 135.906 22.3438V13.4687H131.625V7.28125H135.906V2.4375L144.375 0Z" fill="#004047"/>
<path d="M128.5 24.7813C129.125 23.9688 129.562 23.0313 129.812 22C130.125 20.9063 130.312 19.7188 130.312 18.4688C130.312 11.5312 125.406 6.90625 115.406 6.90625C105.406 6.90625 100.5 11.5312 100.5 18.4688C100.5 19.6875 100.656 20.8125 100.937 21.875C101.219 23.375 101.969 24.6563 103 25.7188C104.031 26.9063 105.406 27.875 107.094 28.5938C109.719 29.9375 112.781 30.9688 115.375 32C117.844 31.0313 120.719 30.0313 123.281 28.75C125.594 27.8438 127.313 26.5 128.5 24.7813ZM115.375 13.8437C119.281 13.8437 121.594 15.5 121.594 18.4688C121.594 21.4375 119.281 23.0938 115.375 23.0938C111.469 23.0938 109.156 21.4375 109.156 18.4688C109.156 15.5 111.469 13.8437 115.375 13.8437Z" fill="#004047"/>
</g>
<defs>
<clipPath id="clip0_346_366">
<rect width="155.062" height="32" fill="white"/>
</clipPath>
</defs>
</svg>
