<svg width="92" height="20" viewBox="0 0 92 20" fill="none" xmlns="http://www.w3.org/2000/svg">
<g clip-path="url(#clip0_1215_1647)">
<path d="M49.9941 0.699219H55.2949V14.4336L56.3438 18.5293H49.9941V0.699219Z" fill="#004047"/>
<path d="M84.9297 0V4.55469H91.291V8.41016H84.9297V12.9395C84.9297 13.9023 85.8691 14.457 87.5078 14.457C88.8574 14.457 90.5684 14.2402 91.6035 13.8789V18.0469C90.7598 18.4316 89.0742 18.7695 87.0254 18.7695C82.4961 18.7695 79.6289 16.9141 79.6289 13.9746V8.4082H76.9551V4.55273H79.6289V1.51758L84.9297 0Z" fill="#004047"/>
<path d="M74.9941 15.4824C75.3828 14.9668 75.666 14.3926 75.8086 13.748C76.0098 13.0645 76.1133 12.3281 76.1133 11.541C76.1133 7.20313 73.0527 4.3125 66.7891 4.3125C60.5254 4.3125 57.4648 7.20313 57.4648 11.541C57.4648 12.2969 57.5605 13.0059 57.7461 13.666C57.9258 14.6113 58.3906 15.4004 59.043 16.0742C59.6934 16.8125 60.5488 17.418 61.6074 17.8672C63.2559 18.7109 65.1621 19.3438 66.7891 20C68.334 19.3945 70.1328 18.7734 71.7227 17.9688C73.1758 17.4023 74.2656 16.5547 74.9941 15.4824ZM66.7871 8.65039C69.2207 8.65039 70.666 9.6875 70.666 11.541C70.666 13.3945 69.2207 14.4316 66.7871 14.4316C64.3535 14.4316 62.9082 13.3965 62.9082 11.541C62.9082 9.68555 64.3535 8.65039 66.7871 8.65039Z" fill="#004047"/>
<path d="M12.1445 17.4922C10.168 18.2871 7.80664 18.7695 6.02344 18.7695C2.55469 18.7695 0 16.8906 0 14.3125V4.55469H5.30078V11.543C5.30078 13.3262 6.24024 14.2168 8.14453 14.2168C9.17969 14.2168 10.6016 13.8555 11.9512 13.2051V4.55469H17.252V18.5293H12.5781L12.1445 17.4941V17.4922Z" fill="#2DB378"/>
<path d="M24.3359 4.55469L25.4199 6.07227C26.9141 4.96484 28.9629 4.3125 31.1543 4.3125C32.0449 4.3125 32.9863 4.43359 33.3477 4.5293V9.30078C32.6484 9.15625 31.9492 9.08398 31.2754 9.08398C28.9141 9.10742 26.5527 9.85547 25.4453 11.4453V18.5293H20.1445V4.55469H24.3379H24.3359Z" fill="#2DB378"/>
<path d="M35.2734 0.699219H40.5742V5.13281C41.875 4.62695 43.5137 4.3125 45.2246 4.3125C50.2598 4.3125 53.6582 7.10742 53.6582 11.541C53.6582 15.9746 50.2617 18.7695 45.2246 18.7695C43.2734 18.7695 41.4414 18.3594 40.0449 17.7344L39.4668 18.5293H35.2734V0.699219ZM48.2129 11.543C48.2129 9.6875 46.8633 8.65234 43.9004 8.65234C42.7207 8.65234 41.5391 8.82031 40.5762 9.0625V14.0742C41.4199 14.291 42.4805 14.4355 43.709 14.4355C46.8652 14.4355 48.2148 13.4004 48.2148 11.5449L48.2129 11.543Z" fill="#2DB378"/>
</g>
<defs>
<clipPath id="clip0_1215_1647">
<rect width="91.6035" height="20" fill="white"/>
</clipPath>
</defs>
</svg>
