
<svg viewBox="0 0 1280 1116.47">
<style type="text/css">
	.st1{fill:none;}
</style>

	<path id="_x32_2" points="532.22,294.6 516.49,321.25 270.31,581.4 235.63,559.97 251.16,544.07 256.88,538.05 312.45,453.69 
		343.11,418.7 409.25,373.1 423.06,362.83 433.49,355.12 448.74,340.03 471.86,313.71 487.91,296.53 501.24,275.18 	"/>
	<path id="_x32_1" d="M617.3,247.73l28.74-31.46l-31.63-30.02l-29.86-19.42l-25.53-2.57l-15.89,10.27L528.21,197l-11.4,18.46
		l-9.43,18.4c-0.35,0.67-0.53,1.42-0.53,2.18v29.35L538,284.73l20.23-32.83C571.87,223.69,600.61,223.69,617.3,247.73z"/>
	<path id="_x32_0" d="M279.7,587.9l76.89,52.39c1.79,1.22,4.19,0.96,5.67-0.61L570.1,419.86l-70.51-65.98L279.7,587.9z"/>
	<path id="_x31_9" d="M373.65,642.49l203.92-214.72l68.39,64.05L489.92,657.25l-115.94-13.84
		C373.53,643.36,373.33,642.82,373.65,642.49z"/>
	<path id="_x31_8" d="M339.9,691.93l14.21-40.7l139.42,17.1l122.09,60.92l12.34,28.85c0.24,0.57,0.04,1.22-0.49,1.55l-33.53,20.9
		L477.4,750.68l6.74-41.18L339.9,691.93z"/>
	<polygon id="_x31_7" points="653.9,499.12 714.91,556.92 580.88,700.35 501.07,660.62 	"/>
	<polygon id="_x31_6" points="780.73,488.53 722.93,549.53 506.85,345.97 524.51,327.67 555.66,275.98 	"/>
	<path id="_x31_5" d="M788.43,481.14l63.89-69.03L733.85,301.99c-17.58-17.38-64.21,13.73-129.71-51.69
		c-5.66-10-21.87-13.48-32.35-1.2c-4.2,4.92-6.71,10.96-11.32,17.9L788.43,481.14z"/>
	<path id="_x31_4" d="M752.87,242.35l-38.77,42.14c-33.06,1.99-62.81-8.36-89.82-28.9l29.38-31.91l23.24,12.04L752.87,242.35z"/>
	<path id="_x31_3" d="M763.47,246.2l56.59,62.25l-29.38,31.3l-48.16-44.91c-4.55-3.69-10-6.34-16.25-8.07L763.47,246.2z"/>
	<path id="_x31_2" d="M830.61,314.64l36.28,20.05l30.7,30.22l-38.29,40.7l-61.65-58.15l30.45-32.42
		C828.76,314.35,829.79,314.19,830.61,314.64z"/>
	<path id="_x31_1" d="M710.74,580.38l55.46,51.67l-37.97,12.68l-114.06,72.16l-23.76-11.72l118.44-124.74
		C709.36,579.9,710.2,579.87,710.74,580.38z"/>
	<path id="_x31_0" d="M912.53,639.67l13.24,13.61l-26.73,29.26l-127.14,3.01l-19.99,6.5l-110.89,70.8
		c1.66-2.28-9.51-24.72-15.65-40.82l108.83-68.67l29.87-9.47L912.53,639.67z"/>
	<path id="_x30_9" d="M775.35,510.56l125.94,118.76l-118.8,3.53l-65.98-61.48l57.43-60.77C774.32,510.2,774.95,510.18,775.35,510.56
		z"/>
	<path id="_x30_8" d="M782.49,502.17l174.82,164.95l51.77-54.18L834.52,448.21c-0.41-0.39-1.05-0.37-1.44,0.04L782.49,502.17z"/>
	<path id="_x30_7" d="M1086.63,530.59l-69.35,74.65L841.49,439.08l62.61-65.74c25.64,55.31,60.92,112.45,75.85,124.25
		C996.08,510.36,1047.51,530.19,1086.63,530.59z"/>
	<path id="_x30_6" d="M1101.07,530.11c23.88,1.13,43.76-0.92,59.48-6.26l28.9,36.36l-161.58,170.97l-62.85-56.59L1101.07,530.11z"/>
	<path id="_x30_5" d="M991.03,826.29l57.79-61.89l-91.75-82.6l-38.05,44.79l-24.8,2.89l-10.35-3.37l-18.06,33.47l-20.71,30.1
		l24.08,28.9l49.83-53.52c1.21-1.3,3.24-1.38,4.55-0.19L991.03,826.29z"/>
	<path id="_x30_4" d="M875.6,827.1l46.22-50.36c0.18-0.2,0.5-0.21,0.7-0.03l61.76,57.3l-53.3,58.6L875.6,827.1z"/>
	<path id="_x30_3" d="M1056.77,771.87l31.3,27.93c-0.4,1.17-0.38,2.29,0,3.37l-70.8,81.39l-4.33,5.78l-18.3,9.87H957.8l-15.17,6.02
		l-5.3-6.02L1056.77,771.87z"/>
	<path id="_x30_2" d="M1036.3,738.4l57.81-61.16c0.13-0.13,0.34-0.14,0.47-0.02l42.62,39.03l-41.66,76.58L1036.3,738.4z"/>
	<path id="_x30_1" d="M1201.01,563.34l-99.93,105.47l42.86,39.73l60.68-99.21C1215.89,591.73,1209.68,583.56,1201.01,563.34z"/>
	<rect id="tamanho_00000056429958641891996810000004173926529211086232_" class="st1" width="1280" height="1116.47"/>
</g>
</svg>
