<?xml version="1.0" encoding="UTF-8"?><svg xmlns="http://www.w3.org/2000/svg" xmlns:xlink="http://www.w3.org/1999/xlink" viewBox="0 0 1312 996"><defs><style>.cls-1{fill:none;}</style></defs><g id="Masterplan"><image id="Masterplan-2" width="1312" height="996" xlink:href="planta-arvoredo-tripui.png"/></g><g id="Quadras"><path id="_16" d="M777.56,348.12l44.36,1.75,.5,20.55,46.62,4.26-13.03,149.88-45.87,36.59-43.11,24.56c-5.76,2.76-10.06-.11-9.77-6.27l20.3-231.34Z"/><path id="_15" d="M951.87,467.55l9.77-120.68-87.97-5.26c5.7,3.03,7.64,9.3,7.14,17.67l-12.78,142.49c-1.29,7.87,4.32,11.84,11.28,8.27l72.56-42.48Z"/><path id="_14" d="M961.27,459.65l23.06-.5,22.06,36.59-73.69,40.6-119.8,92.23-33.08,19.05-45.11,20.55-57.14,53.64-21.55,27.07-49.12,67.67-52.13,56.64,68.17-155.89,85.22-85.22,108.78-63.16,54.14-43.11,85.72-49.63c4.23-3.53,5.64-9.11,4.51-16.54Z"/><path id="_13" d="M666.28,454.89l5.76,14.79,17.8-10.28,47.12,63.66,15.54,1,10.03-112.79c-1.97-5.72-5.62-7.69-11.03-5.76l-85.22,49.37Z"/><path id="_12" d="M663.17,457.54l6.89,14.68c.14,.3,.39,.55,.7,.68l14.46,6.06c.38,.16,.67,.48,.78,.88l3.7,12.94c.09,.3,.06,.63-.06,.92l-15.05,34.15c-.3,.69-1.1,1-1.79,.7l-49.63-21.71c-.69-.3-1.01-1.12-.69-1.8l14.8-32.71c.11-.24,.29-.45,.51-.59l23.42-14.75c.69-.44,1.61-.17,1.95,.57Z"/><path id="_11" d="M749.24,553.39l-14.54-1.5-19.55,38.1-47.12-9.52-45.11-54.14-8.02-3.51-26.07,61.15,32.96,14.04,21.43,19.36-25.94,27.44-27.63-21.62-14.29-6.77-4.07,7.64-36.09,43.11,16.54,19.05,19.55,7.02-23.56,54.64,17.54,8.02-40.1,89.73-32.08-14.04-29.57,69.18c24.48-.36,40.78,12.85,51.63,35.09l97.75-220.06,89.23-92.23,36.59-21.55c3.96-1.71,6.5-4.84,7.02-10.03l3.51-38.6Z"/><path id="_10" d="M489.2,747.63l19.42,6.77-12.16,37.34c-1.15,4.02-4.49,5.7-11.15,3.88l-44.11-11.53c1.19-12.23,3.27-24.73,6.14-37.47,12.28,19.67,36.47,13.66,41.86,1Z"/><path id="_09" d="M766.28,359.9l-1,19.05c-.17,3.96-1.85,6.9-5.51,8.52l-119.8,69.18-15.04,16.04-61.66,141.36c-3.15,6.23-7.32,12.24-12.53,18.05l-24.06,26.57-46.62,82.71-18.55-10.53,18.55-34.59-20.05-11.53,41.61-67.17,6.52-15.04c4.61-14,11.47-26.36,20.55-37.09l1-19.55,46.12-107.27,50.13-33.59,39.6-24.56c8.66-3.36,16.92-5.85,24.56-7.02,23.52,14.95,48.82,11.36,76.19-13.53Z"/><path id="_08" d="M741.97,232.08l-2.01-14.04c-6.02-32.58,2.76-52.88-21.55-83.46l45.87-19.3,17.54,41.1,7.02,56.89,1.75,15.04,35.84,72.18,.5,24.31-47.12,7.27c-.67-14.06-3.9-26.59-11.78-36.34l-24.81-46.62-1.25-17.04"/><path id="_07" d="M685.57,123.55c-26.99,5.28-51.78,15.2-74.44,29.57,14.15,21.34,11.53,48.12-8.52,67.67l4.01,122.81,30.08-20.55,35.34-10.78c10.61-22.28,29.97-32.58,56.14-33.59-33.33-13.78-22.31-41.35-67.17-46.87l-6.77,34.84c8.4,6.27,7.33,18.48,0,22.31-5.36,3.4-11.29,3.35-16.79,0-6.64-4.7-6.33-19.05,0-22.31,1.78-1.27,4.11-2.03,6.77-2.51l15.79-80.7c-8.48-5.84-9.23-19.11,0-24.06,10.6-6.09,26.16,4.43,19.17,19.17-2.26,3.72-5.72,5.8-9.9,6.89l-5.76,31.58c-1.16,3.35-.27,5.22,3.51,5.01,47.43,6.86,37.66,45.02,76.94,49.63-7.04-11.34-11.18-23.66-12.03-37.09-1.38-25.06-2.96-47.24-5.51-57.65-4.29-24.03-17-42.43-40.85-53.39Z"/><path id="_06" d="M651.74,89.97l18.55-65.16,69.18,20.3s4.26,0,4.51,6.52c.25,6.52-.5,17.04,13.53,18.3s20.55-15.54,9.27-26.32c0,0,27.82,5.01,42.36,11.03l.25,35.09-86.22-1.75-47.87,20.3s-15.29-7.27-23.56-18.3Z"/><path id="_05" d="M555.37,94.12l53.85-15.19c.29-.08,.58,.14,.58,.44v13.68c0,.13-.06,.26-.16,.35l-15.95,13.64c-.09,.08-.22,.12-.34,.11l-36.28-3.47c-.2-.02-.37-.17-.4-.37l-1.62-8.65c-.04-.23,.1-.46,.32-.52Z"/><path id="_04" d="M385.58,209.77l56.1-74.61c8.64-8.65,18.75-14.87,31.14-17.33l45.24-12.92,5.29,14.98c-.33,2.71-3.08,3.98-6.76,4.7l-82.54,110.44-48.47-25.26Z"/><path id="_03" d="M315.75,190.17l36.44,18.02c10.07,3.72,16.41,1.99,18.02-6.66l5.49-104.23c2.4-12.62,10.28-20.03,23.12-22.73L629.21,4.83c4.64-.68,8.26-.1,9.4,3.53l9.01,39.18c.75,6-2.71,9.81-9.01,12.15l-186.51,51.33c-22,3.15-32.58,13.27-32.58,35.84l-44.61,59.76-14.5,38.79-56.82-18.42,12.15-36.83Z"/><path id="_02" d="M390.88,389.25l32.6-19.97-27.02-42,11.75-57.57,13.51-19.09-41.12-32.6s-5.58,4.99-8.52,19.39-21.15,98.4-21.15,98.4c-.97,4.05-.48,7.97,1.76,11.75l20.86,32.31c7.53,.39,13.31,3.52,17.33,9.4Z"/><path id="_01" d="M290.02,352.44l50.52-13.12,.2,9.01,23.69,34.86s-7.83,19.97,9.4,26.04c0,0-11.36,.78-18.21,3.52l-22.13-33.68-22.13,16.25s-18.21-19.97-21.34-42.89Z"/><rect class="cls-1" width="1312" height="996"/></g></svg>