<svg width="48" height="48" viewBox="0 0 48 48" fill="none" xmlns="http://www.w3.org/2000/svg">
<g clip-path="url(#clip0_1031_2266)">
<path d="M36.4851 40.1849C32.5943 40.1849 28.9943 38.2405 26.855 34.9837C26.5423 34.5077 26.6747 33.8683 27.1508 33.5556C27.6267 33.243 28.2662 33.3752 28.5788 33.8514C33.7158 41.6446 45.9031 38.0063 45.9374 28.6697C45.9028 19.333 33.7142 15.6955 28.5788 23.4884C28.2661 23.9644 27.6267 24.0968 27.1508 23.7842C26.6747 23.4715 26.5423 22.8321 26.855 22.3561C33.1138 12.8634 47.9584 17.2984 47.9999 28.6701C48 35.0193 42.8345 40.1849 36.4851 40.1849Z" fill="#2EB8A1"/>
<path d="M24.8578 47.9999H3.89044C1.74525 47.9999 0 46.2546 0 44.1095V15.3271C0 13.1819 1.74525 11.4366 3.89044 11.4366H6.34997C7.71675 11.4874 7.71572 13.4489 6.34997 13.4991H3.89044C2.88253 13.4991 2.0625 14.3191 2.0625 15.3271V44.1095C2.0625 45.1174 2.88253 45.9374 3.89044 45.9374H24.8578C25.8657 45.9374 26.6858 45.1174 26.6858 44.1095V15.3271C26.6858 14.3192 25.8657 13.4991 24.8578 13.4991H22.2945C20.9277 13.4484 20.9287 11.4869 22.2945 11.4366H24.8578C27.003 11.4366 28.7483 13.1819 28.7483 15.3271V44.1095C28.7483 46.2546 27.003 47.9999 24.8578 47.9999Z" fill="#004047"/>
<path d="M16.7568 7.78088H11.9915C10.6247 7.73017 10.6257 5.76863 11.9915 5.71838H16.7568C18.1236 5.7691 18.1225 7.73063 16.7568 7.78088Z" fill="#2EB8A1"/>
<path d="M16.7568 13.4991H11.9915C10.6247 13.4484 10.6257 11.4869 11.9915 11.4366H16.7568C18.1236 11.4874 18.1225 13.4489 16.7568 13.4991Z" fill="#2EB8A1"/>
<path d="M22.9517 30.6543H5.79656C5.22703 30.6543 4.76531 30.1926 4.76531 29.623V23.9047C4.76531 23.3351 5.22703 22.8734 5.79656 22.8734H22.9516C23.5211 22.8734 23.9828 23.3351 23.9828 23.9047V29.623C23.9829 30.1927 23.5212 30.6543 22.9517 30.6543ZM6.82781 28.5918H21.9203V24.9359H6.82781V28.5918Z" fill="#004047"/>
<path d="M22.9517 36.3727H21.0456C19.6788 36.322 19.6798 34.3604 21.0456 34.3102H22.9517C24.3185 34.3609 24.3174 36.3224 22.9517 36.3727Z" fill="#2EB8A1"/>
<path d="M15.3272 36.3727H13.4211C12.0543 36.322 12.0553 34.3604 13.4211 34.3102H15.3272C16.694 34.3609 16.6929 36.3224 15.3272 36.3727Z" fill="#004047"/>
<path d="M7.70269 36.3727H5.79656C4.42978 36.322 4.43081 34.3604 5.79656 34.3102H7.70259C9.06947 34.3609 9.06844 36.3224 7.70269 36.3727Z" fill="#2EB8A1"/>
<path d="M22.9517 42.0911H21.0456C19.6788 42.0403 19.6798 40.0788 21.0456 40.0286H22.9517C24.3185 40.0793 24.3174 42.0408 22.9517 42.0911Z" fill="#004047"/>
<path d="M15.3272 42.0911H13.4211C12.0543 42.0403 12.0553 40.0788 13.4211 40.0286H15.3272C16.694 40.0793 16.6929 42.0408 15.3272 42.0911Z" fill="#2EB8A1"/>
<path d="M7.70269 42.0911H5.79656C4.42978 42.0403 4.43081 40.0788 5.79656 40.0286H7.70259C9.06947 40.0793 9.06844 42.0408 7.70269 42.0911Z" fill="#004047"/>
<path d="M24.8578 0H9.60881C7.46362 0 5.71837 1.74525 5.71837 3.89044V18.1864C5.71837 18.7559 6.18009 19.2176 6.74962 19.2176H21.9985C22.5681 19.2176 23.0298 18.7559 23.0298 18.1864V7.78088H27.7169C28.2864 7.78088 28.7482 7.31916 28.7482 6.74963V3.89044C28.7482 1.74525 27.003 0 24.8578 0ZM20.9674 17.1551H7.78087V3.89044C7.78087 2.88253 8.60091 2.0625 9.60881 2.0625H21.4241C21.4172 2.07544 21.4113 2.08894 21.4045 2.10188C21.1167 2.65134 20.9686 3.27028 20.9673 3.89044C20.9674 5.76178 20.9674 15.0901 20.9674 17.1551ZM26.6858 5.71838H23.0299V3.89044C23.122 1.46813 26.5944 1.47 26.6858 3.89044V5.71838Z" fill="#2EB8A1"/>
<path d="M37.6679 27.6389H35.3329C34.3953 27.6502 33.9081 26.4674 34.582 25.8168C34.7849 25.6153 35.0553 25.5052 35.3483 25.5076H37.5813C37.9969 25.5107 38.4075 25.6965 38.7083 26.0174C39.6797 26.9801 41.1105 25.6381 40.2132 24.6071C39.528 23.8758 38.5743 23.4524 37.5889 23.4452H37.5316V22.4419C37.4809 21.0752 35.5193 21.0762 35.4691 22.4419V23.4452H35.3559C34.5205 23.4382 33.7252 23.7614 33.129 24.3531C31.1525 26.2826 32.5703 29.7195 35.3329 29.7015H37.6679C38.6054 29.6901 39.0925 30.8729 38.4187 31.5234C38.2155 31.725 37.9449 31.8303 37.6523 31.8327L35.2157 31.8328C34.9218 31.8306 34.6099 31.7252 34.3374 31.5363C33.8695 31.2117 33.2269 31.328 32.9023 31.7959C32.5777 32.2639 32.6938 32.9064 33.1619 33.2311C33.7808 33.6603 34.4857 33.89 35.2081 33.8953H35.4691V34.8985C35.5198 36.2653 37.4813 36.2642 37.5316 34.8985V33.8953H37.6448C38.4835 33.9017 39.2758 33.5791 39.8717 32.9873C41.8481 31.0577 40.4303 27.6208 37.6679 27.6389Z" fill="#2EB8A1"/>
</g>
<defs>
<clipPath id="clip0_1031_2266">
<rect width="48" height="48" fill="white"/>
</clipPath>
</defs>
</svg>
