<svg width="28" height="28" viewBox="0 0 28 28" fill="none" xmlns="http://www.w3.org/2000/svg">
<mask id="path-1-outside-1_1793_1793" maskUnits="userSpaceOnUse" x="0.163544" y="0.166748" width="27" height="27" fill="black">
<rect fill="white" x="0.163544" y="0.166748" width="27" height="27"/>
<path d="M20.9686 19.8328H19.9558C19.8224 19.8328 19.6944 19.7798 19.6001 19.6854C19.5058 19.5911 19.4528 19.4632 19.4528 19.3298C19.4528 19.1964 19.5058 19.0685 19.6001 18.9742C19.6944 18.8799 19.8224 18.8269 19.9558 18.8269H21.5871C21.6698 18.8276 21.7518 18.812 21.8284 18.7808C21.9051 18.7497 21.9748 18.7037 22.0335 18.6455C22.0922 18.5873 22.1389 18.518 22.1707 18.4417C22.2025 18.3653 22.2189 18.2834 22.2189 18.2007C22.2189 18.118 22.2025 18.0361 22.1707 17.9598C22.1389 17.8835 22.0922 17.8142 22.0335 17.756C21.9748 17.6978 21.9051 17.6517 21.8284 17.6206C21.7518 17.5895 21.6698 17.5738 21.5871 17.5746H21.0883V17.3366C21.0883 17.1705 21.0224 17.0112 20.9049 16.8938C20.7875 16.7764 20.6282 16.7104 20.4621 16.7104C20.2961 16.7104 20.1368 16.7764 20.0194 16.8938C19.9019 17.0112 19.836 17.1705 19.836 17.3366V17.5791C19.3817 17.6099 18.9572 17.816 18.6521 18.1539C18.3469 18.4918 18.185 18.935 18.2006 19.3901C18.2161 19.8451 18.4079 20.2762 18.7354 20.5925C19.0629 20.9088 19.5005 21.0854 19.9558 21.0851H20.9686C21.102 21.0851 21.2299 21.1381 21.3243 21.2324C21.4186 21.3267 21.4716 21.4547 21.4716 21.5881C21.4716 21.7214 21.4186 21.8494 21.3243 21.9437C21.2299 22.038 21.102 22.091 20.9686 22.091H19.329C19.1629 22.091 19.0036 22.157 18.8862 22.2744C18.7688 22.3918 18.7028 22.5511 18.7028 22.7172C18.7028 22.8833 18.7688 23.0425 18.8862 23.16C19.0036 23.2774 19.1629 23.3434 19.329 23.3434H19.8361V23.5813C19.8361 23.7474 19.902 23.9067 20.0195 24.0241C20.1369 24.1416 20.2962 24.2075 20.4622 24.2075C20.6283 24.2075 20.7876 24.1416 20.905 24.0241C21.0225 23.9067 21.0884 23.7474 21.0884 23.5813V23.3388C21.5428 23.3082 21.9675 23.1022 22.2728 22.7643C22.5781 22.4264 22.7401 21.983 22.7246 21.5279C22.709 21.0727 22.5172 20.6414 22.1895 20.3251C21.8619 20.0088 21.4241 19.8323 20.9686 19.8328Z"/>
<path d="M20.4624 14.0844C19.2016 14.0844 17.9692 14.4582 16.9209 15.1587C15.8726 15.8591 15.0556 16.8547 14.5731 18.0195C14.0906 19.1842 13.9644 20.4659 14.2104 21.7025C14.4563 22.939 15.0634 24.0748 15.9549 24.9663C16.8464 25.8578 17.9822 26.4649 19.2188 26.7109C20.4553 26.9568 21.737 26.8306 22.9018 26.3481C24.0666 25.8656 25.0621 25.0486 25.7625 24.0003C26.463 22.9521 26.8368 21.7196 26.8368 20.4589C26.8349 18.7688 26.1627 17.1486 24.9677 15.9535C23.7727 14.7585 22.1524 14.0863 20.4624 14.0844ZM20.4624 25.581C19.4493 25.581 18.459 25.2806 17.6167 24.7177C16.7743 24.1549 16.1178 23.355 15.7302 22.419C15.3425 21.4831 15.241 20.4532 15.4387 19.4596C15.6363 18.466 16.1241 17.5533 16.8405 16.837C17.5568 16.1207 18.4695 15.6328 19.4631 15.4352C20.4567 15.2375 21.4866 15.339 22.4225 15.7267C23.3584 16.1143 24.1584 16.7709 24.7212 17.6132C25.2841 18.4555 25.5845 19.4458 25.5845 20.4589C25.5829 21.8169 25.0428 23.1188 24.0825 24.079C23.1223 25.0393 21.8204 25.5794 20.4624 25.581Z"/>
<path d="M21.527 11.2785H20.4751C20.3014 11.2785 20.1349 11.3475 20.0121 11.4703C19.8893 11.5931 19.8203 11.7596 19.8203 11.9332C19.8203 12.1069 19.8893 12.2734 20.0121 12.3962C20.1349 12.519 20.3014 12.588 20.4751 12.588H22.1849C22.3655 12.5811 22.5366 12.5054 22.663 12.3764C22.7895 12.2473 22.8617 12.0747 22.8649 11.8941C22.8323 9.0378 21.6748 6.30956 19.6435 4.30128C17.6122 2.29301 14.8709 1.16671 12.0145 1.16675C6.03132 1.16675 1.16354 6.03448 1.16354 12.0177C1.16354 18.001 6.03132 22.8687 12.0145 22.8687C12.1548 22.8686 12.2915 22.8235 12.4043 22.7399C12.517 22.6564 12.6 22.5387 12.6408 22.4045C12.6604 22.3485 12.67 22.2895 12.6691 22.2302V20.3937C12.6676 20.2211 12.598 20.056 12.4754 19.9345C12.3528 19.8129 12.1871 19.7447 12.0145 19.7447C11.8418 19.7447 11.6761 19.8129 11.5535 19.9345C11.4309 20.056 11.3613 20.2211 11.3598 20.3937V21.5366C6.59117 21.2118 2.77348 17.3679 2.49033 12.5881H3.55401C3.72765 12.5881 3.89418 12.5191 4.01696 12.3963C4.13975 12.2735 4.20873 12.107 4.20873 11.9333C4.20873 11.7597 4.13975 11.5932 4.01696 11.4704C3.89418 11.3476 3.72765 11.2786 3.55401 11.2786H2.50136C2.86339 6.57727 6.64738 2.81996 11.3599 2.499V3.47272C11.3591 3.55918 11.3755 3.64493 11.408 3.72503C11.4406 3.80512 11.4887 3.87797 11.5496 3.93938C11.6104 4.00078 11.6829 4.04952 11.7627 4.08278C11.8425 4.11604 11.9281 4.13317 12.0146 4.13317C12.101 4.13317 12.1866 4.11604 12.2664 4.08278C12.3462 4.04952 12.4187 4.00078 12.4795 3.93938C12.5404 3.87797 12.5885 3.80512 12.6211 3.72503C12.6536 3.64493 12.67 3.55918 12.6692 3.47272V2.4992C17.3632 2.82202 21.1634 6.5865 21.527 11.2785Z"/>
<path d="M11.3424 7.86584C11.1609 7.86584 10.9869 7.93794 10.8585 8.06629C10.7302 8.19464 10.6581 8.36872 10.6581 8.55023V12.1139L6.03024 14.7811C5.95238 14.8259 5.88411 14.8857 5.82935 14.957C5.77459 15.0282 5.7344 15.1096 5.71108 15.1964C5.68775 15.2832 5.68175 15.3737 5.69342 15.4628C5.70508 15.5519 5.73419 15.6379 5.77906 15.7157C5.82394 15.7936 5.88372 15.8619 5.95498 15.9166C6.02624 15.9714 6.10759 16.0116 6.19438 16.0349C6.28117 16.0582 6.37171 16.0642 6.46082 16.0526C6.54993 16.0409 6.63587 16.0118 6.71374 15.9669L11.6842 13.1023C11.6967 13.095 11.7077 13.088 11.718 13.0811C11.8129 13.0189 11.8908 12.9341 11.9447 12.8343C11.9986 12.7344 12.0268 12.6228 12.0268 12.5093V8.55023C12.0268 8.46036 12.0091 8.37136 11.9747 8.28833C11.9403 8.2053 11.8899 8.12985 11.8264 8.0663C11.7628 8.00274 11.6874 7.95233 11.6043 7.91794C11.5213 7.88354 11.4323 7.86584 11.3424 7.86584Z"/>
</mask>
<path d="M20.9686 19.8328H19.9558C19.8224 19.8328 19.6944 19.7798 19.6001 19.6854C19.5058 19.5911 19.4528 19.4632 19.4528 19.3298C19.4528 19.1964 19.5058 19.0685 19.6001 18.9742C19.6944 18.8799 19.8224 18.8269 19.9558 18.8269H21.5871C21.6698 18.8276 21.7518 18.812 21.8284 18.7808C21.9051 18.7497 21.9748 18.7037 22.0335 18.6455C22.0922 18.5873 22.1389 18.518 22.1707 18.4417C22.2025 18.3653 22.2189 18.2834 22.2189 18.2007C22.2189 18.118 22.2025 18.0361 22.1707 17.9598C22.1389 17.8835 22.0922 17.8142 22.0335 17.756C21.9748 17.6978 21.9051 17.6517 21.8284 17.6206C21.7518 17.5895 21.6698 17.5738 21.5871 17.5746H21.0883V17.3366C21.0883 17.1705 21.0224 17.0112 20.9049 16.8938C20.7875 16.7764 20.6282 16.7104 20.4621 16.7104C20.2961 16.7104 20.1368 16.7764 20.0194 16.8938C19.9019 17.0112 19.836 17.1705 19.836 17.3366V17.5791C19.3817 17.6099 18.9572 17.816 18.6521 18.1539C18.3469 18.4918 18.185 18.935 18.2006 19.3901C18.2161 19.8451 18.4079 20.2762 18.7354 20.5925C19.0629 20.9088 19.5005 21.0854 19.9558 21.0851H20.9686C21.102 21.0851 21.2299 21.1381 21.3243 21.2324C21.4186 21.3267 21.4716 21.4547 21.4716 21.5881C21.4716 21.7214 21.4186 21.8494 21.3243 21.9437C21.2299 22.038 21.102 22.091 20.9686 22.091H19.329C19.1629 22.091 19.0036 22.157 18.8862 22.2744C18.7688 22.3918 18.7028 22.5511 18.7028 22.7172C18.7028 22.8833 18.7688 23.0425 18.8862 23.16C19.0036 23.2774 19.1629 23.3434 19.329 23.3434H19.8361V23.5813C19.8361 23.7474 19.902 23.9067 20.0195 24.0241C20.1369 24.1416 20.2962 24.2075 20.4622 24.2075C20.6283 24.2075 20.7876 24.1416 20.905 24.0241C21.0225 23.9067 21.0884 23.7474 21.0884 23.5813V23.3388C21.5428 23.3082 21.9675 23.1022 22.2728 22.7643C22.5781 22.4264 22.7401 21.983 22.7246 21.5279C22.709 21.0727 22.5172 20.6414 22.1895 20.3251C21.8619 20.0088 21.4241 19.8323 20.9686 19.8328Z" fill="#004047"/>
<path d="M20.4624 14.0844C19.2016 14.0844 17.9692 14.4582 16.9209 15.1587C15.8726 15.8591 15.0556 16.8547 14.5731 18.0195C14.0906 19.1842 13.9644 20.4659 14.2104 21.7025C14.4563 22.939 15.0634 24.0748 15.9549 24.9663C16.8464 25.8578 17.9822 26.4649 19.2188 26.7109C20.4553 26.9568 21.737 26.8306 22.9018 26.3481C24.0666 25.8656 25.0621 25.0486 25.7625 24.0003C26.463 22.9521 26.8368 21.7196 26.8368 20.4589C26.8349 18.7688 26.1627 17.1486 24.9677 15.9535C23.7727 14.7585 22.1524 14.0863 20.4624 14.0844ZM20.4624 25.581C19.4493 25.581 18.459 25.2806 17.6167 24.7177C16.7743 24.1549 16.1178 23.355 15.7302 22.419C15.3425 21.4831 15.241 20.4532 15.4387 19.4596C15.6363 18.466 16.1241 17.5533 16.8405 16.837C17.5568 16.1207 18.4695 15.6328 19.4631 15.4352C20.4567 15.2375 21.4866 15.339 22.4225 15.7267C23.3584 16.1143 24.1584 16.7709 24.7212 17.6132C25.2841 18.4555 25.5845 19.4458 25.5845 20.4589C25.5829 21.8169 25.0428 23.1188 24.0825 24.079C23.1223 25.0393 21.8204 25.5794 20.4624 25.581Z" fill="#004047"/>
<path d="M21.527 11.2785H20.4751C20.3014 11.2785 20.1349 11.3475 20.0121 11.4703C19.8893 11.5931 19.8203 11.7596 19.8203 11.9332C19.8203 12.1069 19.8893 12.2734 20.0121 12.3962C20.1349 12.519 20.3014 12.588 20.4751 12.588H22.1849C22.3655 12.5811 22.5366 12.5054 22.663 12.3764C22.7895 12.2473 22.8617 12.0747 22.8649 11.8941C22.8323 9.0378 21.6748 6.30956 19.6435 4.30128C17.6122 2.29301 14.8709 1.16671 12.0145 1.16675C6.03132 1.16675 1.16354 6.03448 1.16354 12.0177C1.16354 18.001 6.03132 22.8687 12.0145 22.8687C12.1548 22.8686 12.2915 22.8235 12.4043 22.7399C12.517 22.6564 12.6 22.5387 12.6408 22.4045C12.6604 22.3485 12.67 22.2895 12.6691 22.2302V20.3937C12.6676 20.2211 12.598 20.056 12.4754 19.9345C12.3528 19.8129 12.1871 19.7447 12.0145 19.7447C11.8418 19.7447 11.6761 19.8129 11.5535 19.9345C11.4309 20.056 11.3613 20.2211 11.3598 20.3937V21.5366C6.59117 21.2118 2.77348 17.3679 2.49033 12.5881H3.55401C3.72765 12.5881 3.89418 12.5191 4.01696 12.3963C4.13975 12.2735 4.20873 12.107 4.20873 11.9333C4.20873 11.7597 4.13975 11.5932 4.01696 11.4704C3.89418 11.3476 3.72765 11.2786 3.55401 11.2786H2.50136C2.86339 6.57727 6.64738 2.81996 11.3599 2.499V3.47272C11.3591 3.55918 11.3755 3.64493 11.408 3.72503C11.4406 3.80512 11.4887 3.87797 11.5496 3.93938C11.6104 4.00078 11.6829 4.04952 11.7627 4.08278C11.8425 4.11604 11.9281 4.13317 12.0146 4.13317C12.101 4.13317 12.1866 4.11604 12.2664 4.08278C12.3462 4.04952 12.4187 4.00078 12.4795 3.93938C12.5404 3.87797 12.5885 3.80512 12.6211 3.72503C12.6536 3.64493 12.67 3.55918 12.6692 3.47272V2.4992C17.3632 2.82202 21.1634 6.5865 21.527 11.2785Z" fill="#004047"/>
<path d="M11.3424 7.86584C11.1609 7.86584 10.9869 7.93794 10.8585 8.06629C10.7302 8.19464 10.6581 8.36872 10.6581 8.55023V12.1139L6.03024 14.7811C5.95238 14.8259 5.88411 14.8857 5.82935 14.957C5.77459 15.0282 5.7344 15.1096 5.71108 15.1964C5.68775 15.2832 5.68175 15.3737 5.69342 15.4628C5.70508 15.5519 5.73419 15.6379 5.77906 15.7157C5.82394 15.7936 5.88372 15.8619 5.95498 15.9166C6.02624 15.9714 6.10759 16.0116 6.19438 16.0349C6.28117 16.0582 6.37171 16.0642 6.46082 16.0526C6.54993 16.0409 6.63587 16.0118 6.71374 15.9669L11.6842 13.1023C11.6967 13.095 11.7077 13.088 11.718 13.0811C11.8129 13.0189 11.8908 12.9341 11.9447 12.8343C11.9986 12.7344 12.0268 12.6228 12.0268 12.5093V8.55023C12.0268 8.46036 12.0091 8.37136 11.9747 8.28833C11.9403 8.2053 11.8899 8.12985 11.8264 8.0663C11.7628 8.00274 11.6874 7.95233 11.6043 7.91794C11.5213 7.88354 11.4323 7.86584 11.3424 7.86584Z" fill="#004047"/>
<path d="M20.9686 19.8328H19.9558C19.8224 19.8328 19.6944 19.7798 19.6001 19.6854C19.5058 19.5911 19.4528 19.4632 19.4528 19.3298C19.4528 19.1964 19.5058 19.0685 19.6001 18.9742C19.6944 18.8799 19.8224 18.8269 19.9558 18.8269H21.5871C21.6698 18.8276 21.7518 18.812 21.8284 18.7808C21.9051 18.7497 21.9748 18.7037 22.0335 18.6455C22.0922 18.5873 22.1389 18.518 22.1707 18.4417C22.2025 18.3653 22.2189 18.2834 22.2189 18.2007C22.2189 18.118 22.2025 18.0361 22.1707 17.9598C22.1389 17.8835 22.0922 17.8142 22.0335 17.756C21.9748 17.6978 21.9051 17.6517 21.8284 17.6206C21.7518 17.5895 21.6698 17.5738 21.5871 17.5746H21.0883V17.3366C21.0883 17.1705 21.0224 17.0112 20.9049 16.8938C20.7875 16.7764 20.6282 16.7104 20.4621 16.7104C20.2961 16.7104 20.1368 16.7764 20.0194 16.8938C19.9019 17.0112 19.836 17.1705 19.836 17.3366V17.5791C19.3817 17.6099 18.9572 17.816 18.6521 18.1539C18.3469 18.4918 18.185 18.935 18.2006 19.3901C18.2161 19.8451 18.4079 20.2762 18.7354 20.5925C19.0629 20.9088 19.5005 21.0854 19.9558 21.0851H20.9686C21.102 21.0851 21.2299 21.1381 21.3243 21.2324C21.4186 21.3267 21.4716 21.4547 21.4716 21.5881C21.4716 21.7214 21.4186 21.8494 21.3243 21.9437C21.2299 22.038 21.102 22.091 20.9686 22.091H19.329C19.1629 22.091 19.0036 22.157 18.8862 22.2744C18.7688 22.3918 18.7028 22.5511 18.7028 22.7172C18.7028 22.8833 18.7688 23.0425 18.8862 23.16C19.0036 23.2774 19.1629 23.3434 19.329 23.3434H19.8361V23.5813C19.8361 23.7474 19.902 23.9067 20.0195 24.0241C20.1369 24.1416 20.2962 24.2075 20.4622 24.2075C20.6283 24.2075 20.7876 24.1416 20.905 24.0241C21.0225 23.9067 21.0884 23.7474 21.0884 23.5813V23.3388C21.5428 23.3082 21.9675 23.1022 22.2728 22.7643C22.5781 22.4264 22.7401 21.983 22.7246 21.5279C22.709 21.0727 22.5172 20.6414 22.1895 20.3251C21.8619 20.0088 21.4241 19.8323 20.9686 19.8328Z" stroke="#004047" stroke-width="0.357955" mask="url(#path-1-outside-1_1793_1793)"/>
<path d="M20.4624 14.0844C19.2016 14.0844 17.9692 14.4582 16.9209 15.1587C15.8726 15.8591 15.0556 16.8547 14.5731 18.0195C14.0906 19.1842 13.9644 20.4659 14.2104 21.7025C14.4563 22.939 15.0634 24.0748 15.9549 24.9663C16.8464 25.8578 17.9822 26.4649 19.2188 26.7109C20.4553 26.9568 21.737 26.8306 22.9018 26.3481C24.0666 25.8656 25.0621 25.0486 25.7625 24.0003C26.463 22.9521 26.8368 21.7196 26.8368 20.4589C26.8349 18.7688 26.1627 17.1486 24.9677 15.9535C23.7727 14.7585 22.1524 14.0863 20.4624 14.0844ZM20.4624 25.581C19.4493 25.581 18.459 25.2806 17.6167 24.7177C16.7743 24.1549 16.1178 23.355 15.7302 22.419C15.3425 21.4831 15.241 20.4532 15.4387 19.4596C15.6363 18.466 16.1241 17.5533 16.8405 16.837C17.5568 16.1207 18.4695 15.6328 19.4631 15.4352C20.4567 15.2375 21.4866 15.339 22.4225 15.7267C23.3584 16.1143 24.1584 16.7709 24.7212 17.6132C25.2841 18.4555 25.5845 19.4458 25.5845 20.4589C25.5829 21.8169 25.0428 23.1188 24.0825 24.079C23.1223 25.0393 21.8204 25.5794 20.4624 25.581Z" stroke="#004047" stroke-width="0.357955" mask="url(#path-1-outside-1_1793_1793)"/>
<path d="M21.527 11.2785H20.4751C20.3014 11.2785 20.1349 11.3475 20.0121 11.4703C19.8893 11.5931 19.8203 11.7596 19.8203 11.9332C19.8203 12.1069 19.8893 12.2734 20.0121 12.3962C20.1349 12.519 20.3014 12.588 20.4751 12.588H22.1849C22.3655 12.5811 22.5366 12.5054 22.663 12.3764C22.7895 12.2473 22.8617 12.0747 22.8649 11.8941C22.8323 9.0378 21.6748 6.30956 19.6435 4.30128C17.6122 2.29301 14.8709 1.16671 12.0145 1.16675C6.03132 1.16675 1.16354 6.03448 1.16354 12.0177C1.16354 18.001 6.03132 22.8687 12.0145 22.8687C12.1548 22.8686 12.2915 22.8235 12.4043 22.7399C12.517 22.6564 12.6 22.5387 12.6408 22.4045C12.6604 22.3485 12.67 22.2895 12.6691 22.2302V20.3937C12.6676 20.2211 12.598 20.056 12.4754 19.9345C12.3528 19.8129 12.1871 19.7447 12.0145 19.7447C11.8418 19.7447 11.6761 19.8129 11.5535 19.9345C11.4309 20.056 11.3613 20.2211 11.3598 20.3937V21.5366C6.59117 21.2118 2.77348 17.3679 2.49033 12.5881H3.55401C3.72765 12.5881 3.89418 12.5191 4.01696 12.3963C4.13975 12.2735 4.20873 12.107 4.20873 11.9333C4.20873 11.7597 4.13975 11.5932 4.01696 11.4704C3.89418 11.3476 3.72765 11.2786 3.55401 11.2786H2.50136C2.86339 6.57727 6.64738 2.81996 11.3599 2.499V3.47272C11.3591 3.55918 11.3755 3.64493 11.408 3.72503C11.4406 3.80512 11.4887 3.87797 11.5496 3.93938C11.6104 4.00078 11.6829 4.04952 11.7627 4.08278C11.8425 4.11604 11.9281 4.13317 12.0146 4.13317C12.101 4.13317 12.1866 4.11604 12.2664 4.08278C12.3462 4.04952 12.4187 4.00078 12.4795 3.93938C12.5404 3.87797 12.5885 3.80512 12.6211 3.72503C12.6536 3.64493 12.67 3.55918 12.6692 3.47272V2.4992C17.3632 2.82202 21.1634 6.5865 21.527 11.2785Z" stroke="#004047" stroke-width="0.357955" mask="url(#path-1-outside-1_1793_1793)"/>
<path d="M11.3424 7.86584C11.1609 7.86584 10.9869 7.93794 10.8585 8.06629C10.7302 8.19464 10.6581 8.36872 10.6581 8.55023V12.1139L6.03024 14.7811C5.95238 14.8259 5.88411 14.8857 5.82935 14.957C5.77459 15.0282 5.7344 15.1096 5.71108 15.1964C5.68775 15.2832 5.68175 15.3737 5.69342 15.4628C5.70508 15.5519 5.73419 15.6379 5.77906 15.7157C5.82394 15.7936 5.88372 15.8619 5.95498 15.9166C6.02624 15.9714 6.10759 16.0116 6.19438 16.0349C6.28117 16.0582 6.37171 16.0642 6.46082 16.0526C6.54993 16.0409 6.63587 16.0118 6.71374 15.9669L11.6842 13.1023C11.6967 13.095 11.7077 13.088 11.718 13.0811C11.8129 13.0189 11.8908 12.9341 11.9447 12.8343C11.9986 12.7344 12.0268 12.6228 12.0268 12.5093V8.55023C12.0268 8.46036 12.0091 8.37136 11.9747 8.28833C11.9403 8.2053 11.8899 8.12985 11.8264 8.0663C11.7628 8.00274 11.6874 7.95233 11.6043 7.91794C11.5213 7.88354 11.4323 7.86584 11.3424 7.86584Z" stroke="#004047" stroke-width="0.357955" mask="url(#path-1-outside-1_1793_1793)"/>
</svg>
