<svg width="28" height="28" viewBox="0 0 28 28" fill="none" xmlns="http://www.w3.org/2000/svg">
<path d="M20.7045 16.0383L20.7045 16.0383H20.6993H18.5968C18.2732 16.0383 17.9589 16.1622 17.724 16.3891C17.4884 16.6167 17.352 16.9299 17.352 17.261C17.352 17.5921 17.4884 17.9052 17.724 18.1328C17.9589 18.3597 18.2732 18.4837 18.5968 18.4837H19.9022L19.9023 18.4837L19.9029 18.4837C20.3414 18.4832 20.7592 18.6476 21.0689 18.9364C21.3779 19.2245 21.5548 19.6131 21.5691 20.0184C21.5835 20.4237 21.4345 20.8222 21.1474 21.1291C20.8597 21.4367 20.4553 21.6281 20.0179 21.6565L19.46 21.6928V22.2518V22.5538C19.46 22.5955 19.4431 22.6399 19.4058 22.6759C19.3678 22.7126 19.3119 22.7367 19.2496 22.7367C19.1872 22.7367 19.1314 22.7126 19.0934 22.6759C19.0561 22.6399 19.0391 22.5955 19.0391 22.5538V22.2575V21.6609H18.4425H17.789C17.7266 21.6609 17.6708 21.6368 17.6328 21.6001C17.5955 21.5641 17.5785 21.5197 17.5785 21.478C17.5785 21.4362 17.5955 21.3919 17.6328 21.3558C17.6708 21.3191 17.7266 21.295 17.789 21.295H19.9022C20.2258 21.295 20.5402 21.171 20.7751 20.9441C21.0107 20.7165 21.147 20.4034 21.147 20.0723C21.147 19.7412 21.0107 19.4281 20.7751 19.2005C20.5402 18.9736 20.2258 18.8496 19.9022 18.8496H18.5968H18.5964C18.158 18.8499 17.7404 18.6854 17.4309 18.3967C17.122 18.1086 16.9452 17.7201 16.9309 17.3149C16.9165 16.9097 17.0654 16.5113 17.3523 16.2044C17.6399 15.8969 18.0441 15.7054 18.4813 15.6768L19.039 15.6403V15.0815V14.7796C19.039 14.7378 19.056 14.6935 19.0933 14.6574C19.1313 14.6207 19.1871 14.5966 19.2494 14.5966C19.3118 14.5966 19.3676 14.6207 19.4056 14.6574C19.4429 14.6935 19.4599 14.7378 19.4599 14.7796V15.0758V15.6724H20.0565H20.6993V15.6724L20.7045 15.6724C20.7351 15.6721 20.7651 15.6777 20.7924 15.6885C20.8197 15.6992 20.8432 15.7145 20.8621 15.7326C20.8809 15.7506 20.8947 15.7709 20.9037 15.7918C20.9127 15.8126 20.917 15.8341 20.917 15.8553C20.917 15.8766 20.9127 15.8981 20.9037 15.9189C20.8947 15.9397 20.8809 15.9601 20.8621 15.9781C20.8432 15.9961 20.8197 16.0115 20.7924 16.0222C20.7651 16.0329 20.7351 16.0386 20.7045 16.0383Z" fill="#004047" stroke="#004047" stroke-width="1.19318"/>
<path d="M10.0513 21.7488L3.58974 21.75C3.14446 21.75 2.78205 21.3947 2.78205 20.9583V6.70829C2.78205 6.27185 3.14446 5.91663 3.58974 5.91663H5.20513C5.20513 7.22628 6.29204 8.29163 7.6282 8.29163C8.07421 8.29163 8.4359 7.93712 8.4359 7.49996C8.4359 7.0628 8.07421 6.70829 7.6282 6.70829C7.18292 6.70829 6.82051 6.35307 6.82051 5.91663H13.2821C13.2821 7.22628 14.369 8.29163 15.7051 8.29163C16.1511 8.29163 16.5128 7.93712 16.5128 7.49996C16.5128 7.0628 16.1511 6.70829 15.7051 6.70829C15.2598 6.70829 14.8974 6.35307 14.8974 5.91663H19.7436C20.1889 5.91663 20.5513 6.27185 20.5513 6.70829V9.08329C20.5513 9.52045 20.913 9.87496 21.359 9.87496C21.805 9.87496 22.1667 9.52045 22.1667 9.08329V6.70829C22.1667 5.39864 21.0798 4.33329 19.7436 4.33329H18.1282V3.54163C18.1282 2.23197 17.0413 1.16663 15.7051 1.16663C14.369 1.16663 13.2821 2.23197 13.2821 3.54163V4.33329H10.0513V3.54163C10.0513 2.23197 8.96437 1.16663 7.6282 1.16663C6.29204 1.16663 5.20513 2.23197 5.20513 3.54163V4.33329H3.58974C2.25358 4.33329 1.16667 5.39864 1.16667 6.70829V20.9583C1.16667 22.2679 2.25358 23.3333 3.58974 23.3333L10.0513 23.3321C10.4973 23.3321 10.859 22.9776 10.859 22.5404C10.859 22.1033 10.4973 21.7488 10.0513 21.7488ZM14.8974 3.54163C14.8974 3.10518 15.2598 2.74996 15.7051 2.74996C16.1504 2.74996 16.5128 3.10518 16.5128 3.54163V4.33329H14.8974V3.54163ZM6.82051 3.54163C6.82051 3.10518 7.18292 2.74996 7.6282 2.74996C8.07349 2.74996 8.4359 3.10518 8.4359 3.54163V4.33329H6.82051V3.54163Z" fill="#004047"/>
<rect x="12.5616" y="11.3949" width="13.3769" height="14.5436" rx="5.07102" stroke="#004047" stroke-width="1.78977"/>
<rect x="4.66667" y="11.6666" width="2.33333" height="3.5" rx="1.16667" fill="#004047"/>
<rect x="4.66667" y="16.3334" width="2.33333" height="3.5" rx="1.16667" fill="#004047"/>
<rect x="8.16667" y="11.6666" width="2.33333" height="3.5" rx="1.16667" fill="#004047"/>
<rect x="8.16667" y="16.3334" width="2.33333" height="3.5" rx="1.16667" fill="#004047"/>
</svg>
