<svg width="92" height="20" viewBox="0 0 92 20" fill="none" xmlns="http://www.w3.org/2000/svg">
<path d="M50 1H55.0031V14.8598L56 19H50V1Z" fill="#004047"/>
<path d="M85 0V4.99818L92 5V9H85V13.5C85 14.4698 86.12 15.0326 87.8 15.0326C89.18 15.0326 90.94 14.8148 92 14.4388V18.6544C91.14 19.0503 89.4 19.3867 87.32 19.3867C82.68 19.3867 80 17.4688 80 14.5V9H77V4.99818L80 5V1.5L85 0Z" fill="#004047"/>
<path d="M74.6676 15.4883C75.062 14.9805 75.338 14.3945 75.4958 13.75C75.693 13.0664 75.8113 12.3242 75.8113 11.543C75.8113 7.20703 72.7155 4.50001 66.4056 4.50001C60.0958 4.50001 57 7.20703 57 11.543C57 12.3047 57.0986 13.0078 57.2761 13.6719C57.4535 14.6094 57.9268 15.4102 58.5775 16.0742C59.2282 16.8164 60.0958 17.4219 61.1606 17.8711C62.8169 18.7109 64.7493 19.3555 66.3859 20C67.9437 19.3945 69.7577 18.7695 71.3746 17.9688C72.8338 17.4023 73.9183 16.5625 74.6676 15.4883ZM66.3859 8.65234C68.8507 8.65234 70.3099 9.6875 70.3099 11.543C70.3099 13.3984 68.8507 14.4336 66.3859 14.4336C63.9211 14.4336 62.462 13.3984 62.462 11.543C62.462 9.6875 63.9211 8.65234 66.3859 8.65234Z" fill="#004047"/>
<path d="M11.9751 17.9766C10.0306 18.765 7.70102 19.2266 5.94904 19.2266C2.52208 19.2266 0 17.3804 0 14.8419V5H5.21744V12.1112C5.21744 13.8612 6.14156 14.7458 8.02831 14.7458C9.0487 14.7458 10.4541 14.3804 11.7826 13.7458V5H17V18.9958H12.3986L11.9751 17.9766Z" fill="#2DB478"/>
<path d="M24.1154 4.9984L25.1923 6.4984C26.6538 5.40225 28.6731 4.76763 30.8462 4.76763C31.7308 4.76763 32.6538 4.88302 33 4.97917V9.67148C32.3077 9.53686 31.6154 9.45994 30.9615 9.45994C28.6346 9.47917 26.3077 10.2099 25.2115 11.7869V19H20V4.9984H24.1154Z" fill="#2DB478"/>
<path d="M34.9999 1H39.9999V6C41.2802 5.49405 43.0827 4.83047 44.7452 4.83047C49.6751 4.83047 52.9999 7.61317 52.9999 12.0305C52.9999 16.4478 49.6751 19.2305 44.7452 19.2305C42.8343 19.2305 41.0382 18.8218 39.6815 18.1991L39.1082 18.997H34.9999V1ZM47.4999 12C47.4999 10.1514 46.3503 9.15047 43.4458 9.15047C42.2993 9.15047 40.9362 9.26649 39.9999 9.5V14.5C40.8216 14.7141 42.0509 14.9105 43.2547 14.9105C46.3503 14.9105 47.4999 13.8486 47.4999 12Z" fill="#2DB478"/>
</svg>
