<svg width="110" height="24" viewBox="0 0 110 24" fill="none" xmlns="http://www.w3.org/2000/svg">
<path d="M59.7826 1.2H65.7645V17.8318L66.9565 22.8H59.7826V1.2Z" fill="#004047"/>
<path d="M101.63 0V5.99781L110 6V10.8H101.63V16.2C101.63 17.3638 102.97 18.0391 104.978 18.0391C106.628 18.0391 108.733 17.7778 110 17.3266V22.3853C108.972 22.8603 106.891 23.2641 104.404 23.2641C98.8565 23.2641 95.6522 20.9625 95.6522 17.4V10.8H92.0652V5.99781L95.6522 6V1.8L101.63 0Z" fill="#004047"/>
<path d="M89.2765 18.5859C89.748 17.9766 90.0781 17.2734 90.2667 16.5C90.5024 15.6797 90.6439 14.7891 90.6439 13.8516C90.6439 8.64844 86.9424 5.40001 79.398 5.40001C71.8536 5.40001 68.1522 8.64844 68.1522 13.8516C68.1522 14.7656 68.2701 15.6094 68.4822 16.4062C68.6944 17.5312 69.2603 18.4922 70.0383 19.2891C70.8163 20.1797 71.8536 20.9063 73.1268 21.4453C75.1072 22.4531 77.4176 23.2266 79.3745 24C81.237 23.2734 83.406 22.5234 85.3393 21.5625C87.0839 20.8828 88.3806 19.875 89.2765 18.5859ZM79.3745 10.3828C82.3215 10.3828 84.0661 11.625 84.0661 13.8516C84.0661 16.0781 82.3215 17.3203 79.3745 17.3203C76.4274 17.3203 74.6828 16.0781 74.6828 13.8516C74.6828 11.625 76.4274 10.3828 79.3745 10.3828Z" fill="#004047"/>
<path d="M14.318 21.5719C11.9931 22.518 9.20774 23.0719 7.11298 23.0719C3.01553 23.0719 0 20.8565 0 17.8103V6H6.23824V14.5334C6.23824 16.6334 7.34317 17.6949 9.59907 17.6949C10.8191 17.6949 12.4995 17.2565 14.0878 16.4949V6H20.3261V22.7949H14.8245L14.318 21.5719Z" fill="#2DB478"/>
<path d="M28.8336 5.99808L30.1212 7.79808C31.8687 6.4827 34.283 5.72116 36.8813 5.72116C37.939 5.72116 39.0426 5.85962 39.4565 5.97501V11.6058C38.6288 11.4442 37.801 11.3519 37.0192 11.3519C34.237 11.375 31.4549 12.2519 30.1442 14.1442V22.8H23.913V5.99808H28.8336Z" fill="#2DB478"/>
<path d="M41.8478 1.2H47.826V7.2C49.3568 6.59287 51.512 5.79656 53.4996 5.79656C59.3941 5.79656 63.3695 9.13581 63.3695 14.4366C63.3695 19.7373 59.3941 23.0766 53.4996 23.0766C51.215 23.0766 49.0674 22.5862 47.4452 21.8389L46.7598 22.7963H41.8478V1.2ZM56.7934 14.4C56.7934 12.1816 55.4188 10.9806 51.9461 10.9806C50.5752 10.9806 48.9455 11.1198 47.826 11.4V17.4C48.8084 17.6569 50.2782 17.8926 51.7176 17.8926C55.4188 17.8926 56.7934 16.6184 56.7934 14.4Z" fill="#2DB478"/>
</svg>
