<svg width="25" height="24" viewBox="0 0 25 24" fill="none" xmlns="http://www.w3.org/2000/svg">
<path d="M11.9989 2C3.93614 2 0.000176835 5.68794 0.000176835 11.2155C-0.00530179 12.1307 0.116547 13.0424 0.362285 13.9246C0.596281 15.0905 1.17757 16.1601 2.03113 16.9955C2.94408 17.9942 4.07293 18.7756 5.3334 19.2816C7.45488 20.3573 9.90895 21.164 11.9989 22.0005C13.9871 21.2308 16.3019 20.4368 18.3501 19.4107C20.0484 18.8078 21.5183 17.7016 22.5601 16.2424C23.067 15.5893 23.4246 14.8349 23.6081 14.0314C23.875 13.117 24.0075 12.1693 24.0017 11.2174C24.0002 5.68794 20.0618 2 11.9989 2ZM11.9989 14.9034C8.8674 14.9034 7.00766 13.581 7.00766 11.2155C7.00766 8.84994 8.8674 7.53045 11.9989 7.53045C15.1305 7.53045 16.9932 8.85287 16.9932 11.2155C16.9932 13.5781 15.131 14.9034 11.9989 14.9034Z" fill="#004047"/>
<path d="M16.9923 11.2158C16.9923 13.5813 15.1301 14.9037 11.9981 14.9037C8.86606 14.9037 7.00681 13.5813 7.00681 11.2158C7.00681 8.85025 8.86656 7.53027 11.9981 7.53027C15.1297 7.53027 16.9923 8.85269 16.9923 11.2158Z" fill="#2DB478"/>
</svg>
