<svg width="17" height="12" viewBox="0 0 17 12" fill="none" xmlns="http://www.w3.org/2000/svg">
<path d="M7.22291 11.3904L16.7167 1.75768L16.7179 1.75892C16.902 1.56217 17.0032 1.30032 16.9999 1.02906C16.9967 0.757794 16.8892 0.498516 16.7005 0.306363C16.5117 0.114211 16.2565 0.00434315 15.9891 0.000126022C15.7218 -0.0040911 15.4633 0.0976751 15.2688 0.283782L5.77257 9.91531L1.75518 5.83961C1.56236 5.644 1.30085 5.5341 1.02816 5.5341C0.755476 5.5341 0.493959 5.644 0.301142 5.83961C0.108324 6.03523 0 6.30054 0 6.57718C0 6.85383 0.108324 7.11914 0.301142 7.31476L4.32099 11.3904C4.70586 11.7807 5.22777 12 5.77195 12C6.31613 12 6.83804 11.7807 7.22291 11.3904Z" fill="white"/>
</svg>
