<svg width="172" height="40" viewBox="0 0 172 40" fill="none" xmlns="http://www.w3.org/2000/svg">
<g clip-path="url(#clip0_1108_1736)">
<path d="M27.4291 4.13095C27.4337 2.89441 27.5996 1.84105 27.9588 0.815176C28.1661 0.228961 28.226 0.206062 28.7695 0.48543C29.8012 1.00753 30.8099 1.56626 31.7173 2.28987C32.3898 2.83029 32.7675 3.53558 32.855 4.37826C33.0116 5.8438 32.6938 7.24522 32.1779 8.60084C31.639 10.016 31.0356 11.4037 30.4184 12.7868C30.4138 12.8005 30.4092 12.8188 30.4 12.8326C30.3355 12.9104 30.3908 13.0799 30.2572 13.089C30.119 13.0982 30.096 12.9425 30.0546 12.8417C29.0919 10.7808 28.1891 8.69702 27.7193 6.46207C27.5489 5.64229 27.4015 4.81792 27.4291 4.12637V4.13095Z" fill="#4AB8CD"/>
<path d="M3.9979 14.289C5.23692 14.3073 6.41145 14.6233 7.57217 15.0264C8.40125 15.3149 9.18888 15.7042 9.99493 16.0476C10.0548 16.0705 10.1331 16.0843 10.1377 16.1621C10.1377 16.2308 10.0686 16.2492 10.018 16.2675C8.69143 16.7667 7.43399 17.4399 6.03836 17.7559C5.49485 17.8796 4.94674 17.9941 4.38481 17.9162C3.6939 17.82 3.12276 17.5223 2.71743 16.9499C2.32592 16.3957 2.0035 15.8003 1.66265 15.2187C1.48302 14.9119 1.55211 14.7332 1.89295 14.6187C2.57464 14.3898 3.27936 14.2844 3.9979 14.2936V14.289Z" fill="#4AB8CD"/>
<path d="M9.64029 38.8138C9.13363 38.8138 8.64539 38.7314 8.21703 38.4337C7.94988 38.2459 7.93606 38.1269 8.13873 37.8796C8.70527 37.1834 9.45144 36.7667 10.2943 36.501C10.8701 36.3178 11.4597 36.1667 12.0584 36.0797C12.1321 36.0705 12.2104 36.0385 12.2657 36.1072C12.3072 36.1621 12.2657 36.2171 12.2381 36.2629C11.7268 37.0323 11.2938 37.8612 10.5615 38.4658C10.2943 38.6902 9.99035 38.8093 9.64029 38.8093V38.8138Z" fill="#98CACF"/>
<path d="M24.6275 4.79964C24.6275 4.90956 24.5999 4.98283 24.4847 4.91414C23.5958 4.38746 22.6193 3.97528 21.9376 3.15549C21.606 2.76163 21.5461 2.30823 21.7441 1.82735C21.8455 1.58462 21.9376 1.34189 22.0389 1.10374C22.1679 0.792313 22.2784 0.760255 22.5594 0.934287C23.0661 1.25487 23.4207 1.70827 23.7063 2.21663C24.1439 2.99978 24.4202 3.84246 24.6137 4.70805C24.6229 4.7401 24.6229 4.77216 24.6275 4.79506V4.79964Z" fill="#98CACF"/>
<path d="M171.892 39.4001C171.436 39.7161 170.915 39.6932 170.395 39.684C169.248 39.6657 168.105 39.6291 166.959 39.6337C165.305 39.6337 163.647 39.6703 161.993 39.6794C161.777 39.6794 161.556 39.652 161.344 39.6108C161.09 39.5558 161.04 39.3589 161.196 39.1619C161.242 39.1024 161.289 39.02 161.289 38.9467C161.289 36.959 161.275 34.9668 161.27 32.9792C161.261 30.2954 161.261 27.6071 161.252 24.9233C161.252 24.8271 161.219 24.7218 161.173 24.6348C161.077 24.4424 161.132 24.3096 161.344 24.3005C161.832 24.2867 162.32 24.273 162.809 24.2776C163.108 24.2776 163.283 24.447 163.292 24.7722C163.306 25.6103 163.297 26.4484 163.297 27.2819L163.168 27.2911C163.145 27.0758 163.122 26.8606 163.094 26.5995C162.928 26.8239 162.882 30.8725 163.048 31.2801C163.182 30.671 163.089 30.0435 163.214 29.4299V36.7438C163.214 36.7438 163.172 36.7438 163.149 36.7438V31.9075C163.113 31.8984 163.076 31.8938 163.039 31.8846C163.011 31.9762 162.951 32.0678 162.951 32.164C162.951 33.6662 162.942 35.1729 162.965 36.6751C162.974 37.3712 163.241 37.6048 163.946 37.6323C164.301 37.646 164.656 37.6506 165.01 37.6506C165.213 37.6506 165.425 37.6872 165.577 37.4811C165.614 37.4353 165.733 37.4353 165.812 37.4353C166.627 37.4353 167.438 37.4079 168.253 37.4445C168.935 37.4766 169.607 37.6094 170.289 37.6643C170.496 37.6827 170.712 37.5819 170.924 37.5682C171.132 37.5544 171.366 37.5361 171.542 37.6185C171.629 37.6598 171.634 37.9162 171.643 38.0765C171.661 38.3879 171.652 38.6948 171.657 39.0062C171.694 39.0062 171.735 39.0062 171.772 39.0062C171.813 38.6811 171.855 38.3513 171.896 38.0261V39.3955L171.892 39.4001ZM163.085 24.7493H163.016V25.6469C163.039 25.6469 163.062 25.6469 163.085 25.6469V24.7447V24.7493Z" fill="#797B86"/>
<path d="M58.3627 16.0293C57.6119 15.1775 56.5939 14.8432 55.5254 14.5363C55.5806 14.4127 55.6083 14.3165 55.6589 14.2295C55.8984 13.8173 56.1518 13.4097 56.3821 12.9929C56.5202 12.741 56.7091 12.6815 56.9808 12.7319C57.5888 12.8418 58.1324 13.0845 58.6298 13.4417C59.4497 14.0325 60.2649 14.6233 61.0802 15.2187C62.1073 15.9744 63.1621 16.6659 64.5117 16.9041C64.4334 17.0369 64.3827 17.1285 64.3321 17.2247C64.1478 17.559 63.959 17.8979 63.7839 18.2368C63.5398 18.7039 63.2865 18.8505 62.7982 18.6627C62.2271 18.4475 61.656 18.2047 61.1401 17.8887C60.6933 17.6139 60.3156 17.5956 59.8642 17.8338C58.4916 18.562 57.0177 18.878 55.4655 18.7772C51.7991 18.5436 48.7821 16.185 47.8794 12.5029C46.7969 8.09711 49.6204 3.75545 54.2403 2.84865C56.8749 2.33114 59.2839 2.87613 61.352 4.67142C62.7107 5.853 63.6504 7.26358 64.0327 9.04513C64.4702 11.0969 64.1478 13.0112 63.1068 14.8203C62.8581 15.2553 62.7844 15.2645 62.3745 14.976C62.0244 14.7287 61.6836 14.4768 61.3243 14.2478C61.1078 14.1104 61.0526 13.9822 61.1861 13.744C61.6237 12.97 61.9323 12.1594 62.0429 11.2663C62.2271 9.77332 61.854 8.44975 60.9236 7.2819C59.8043 5.8759 58.3857 5.00574 56.5433 4.90041C54.4936 4.78133 52.6742 5.29885 51.2694 6.8514C50.1732 8.05589 49.754 9.51227 49.8277 11.1244C49.9429 13.7028 51.882 15.9057 54.7976 16.5239C55.9445 16.7667 57.0223 16.6064 58.0955 16.2354C58.1646 16.2125 58.2291 16.1759 58.289 16.1347C58.312 16.1209 58.3304 16.0889 58.3765 16.0339L58.3627 16.0293Z" fill="#797B86"/>
<path d="M107.247 39.9725C104.709 39.9634 102.765 39.1436 101.209 37.4445C99.7992 35.9057 98.9471 34.115 98.832 32.0312C98.7721 30.9778 99.0669 29.9565 99.4722 28.981C100.684 26.0683 102.871 24.4149 106.008 23.9615C109.932 23.3936 113.161 25.3996 114.7 28.4589C115.345 29.7413 115.612 31.1244 115.478 32.5304C115.105 36.4552 112.387 39.1802 108.657 39.8168C108.113 39.9084 107.56 39.9359 107.247 39.968V39.9725ZM101.061 32.0083C101.107 32.3884 101.117 32.7731 101.199 33.144C101.725 35.4843 103.553 37.1972 105.967 37.6139C108.219 38.0032 110.19 37.4994 111.798 35.7912C113.53 33.9501 113.866 30.9641 112.475 28.8574C111.328 27.117 109.647 26.2102 107.56 26.0728C104.327 25.8622 101.14 27.9734 101.057 32.0083H101.061Z" fill="#797B86"/>
<path d="M79.9508 32.0586C79.9692 35.8187 77.1135 38.8917 73.7373 39.6886C71.8903 40.1237 70.0433 40.1786 68.3022 39.3405C65.5386 38.0124 63.8021 35.8324 63.3599 32.796C63.0283 30.5153 63.8251 28.4864 65.2438 26.7049C66.5335 25.0836 68.3022 24.2867 70.3104 23.9799C72.1943 23.6959 74.0183 23.8974 75.6856 24.8592C77.7722 26.0637 79.1908 27.7994 79.7159 30.1763C79.8495 30.79 79.8771 31.4266 79.9508 32.0541V32.0586ZM71.6093 37.7559C72.6687 37.7101 73.5577 37.5956 74.5341 37.101C77.8505 35.4156 78.8269 31.074 76.4595 28.2528C74.8335 26.3156 72.6549 25.7339 70.2275 26.2057C66.5473 26.9201 64.8339 30.4374 65.7366 33.5791C66.3446 35.6996 68.3667 37.7284 71.6047 37.7559H71.6093Z" fill="#797B86"/>
<path d="M119.47 29.8558C119.502 29.755 119.535 29.6543 119.567 29.5581C119.59 29.5581 119.608 29.5581 119.631 29.5581C119.645 29.6268 119.673 29.6955 119.673 29.7642C119.673 32.741 119.673 35.7179 119.668 38.6948C119.668 38.791 119.571 38.8871 119.488 39.0429C119.488 39.0429 119.539 39.1024 119.571 39.1757C119.613 39.2718 119.682 39.3863 119.659 39.4734C119.64 39.5375 119.502 39.6153 119.415 39.6153C118.871 39.6245 118.332 39.6153 117.789 39.6062C117.637 39.6062 117.531 39.565 117.554 39.368C117.595 38.9787 117.641 38.5895 117.641 38.2002C117.655 33.9089 117.664 29.6176 117.669 25.3218C117.669 25.0653 117.618 24.8088 117.628 24.5524C117.628 24.4653 117.757 24.3096 117.821 24.3096C118.19 24.328 118.567 24.3234 118.844 24.6531C120.608 26.7415 122.376 28.8253 124.141 30.9091C125.518 32.535 126.9 34.1562 128.277 35.782C128.35 35.8691 128.396 35.979 128.456 36.0751C128.493 36.0522 128.53 36.0248 128.567 36.0019C128.581 35.9378 128.604 35.8736 128.604 35.8141C128.604 32.2556 128.595 28.7017 128.59 25.1432C128.59 25.0928 128.59 25.0378 128.59 24.9874C128.567 24.4058 128.567 24.3829 129.175 24.3417C129.649 24.3096 130.128 24.3417 130.607 24.3554C130.663 24.3554 130.755 24.4608 130.764 24.5249C130.787 24.6989 130.773 24.8775 130.773 25.0516C130.773 29.7001 130.773 34.344 130.778 38.9925C130.778 39.107 130.778 39.2215 130.769 39.336C130.755 39.5695 130.607 39.6566 130.391 39.652C130.027 39.6474 129.663 39.6245 129.299 39.6291C128.876 39.6337 128.535 39.4825 128.263 39.1574C126.522 37.0919 124.776 35.031 123.03 32.9655C122.059 31.8159 121.087 30.6618 120.106 29.5169C120.009 29.4024 119.963 29.2146 119.691 29.3199C119.396 29.4344 119.406 29.613 119.484 29.8512L119.47 29.8558ZM119.544 33.4601C119.544 33.4601 119.502 33.4601 119.479 33.4601V37.9941C119.479 37.9941 119.521 37.9941 119.544 37.9941V33.4601ZM130.446 39.4459C130.446 39.4138 130.446 39.3772 130.446 39.3451H128.88C129.143 39.4092 129.405 39.4367 129.668 39.4459C129.93 39.455 130.188 39.4459 130.451 39.4459H130.446ZM119.47 32.1411H119.539V30.9458H119.47V32.1411ZM119.263 39.4413V39.3543H118.434V39.4413H119.263Z" fill="#797B86"/>
<path d="M49.5098 24.3004C51.4904 24.3004 53.4295 24.2363 55.364 24.3187C57.469 24.4058 59.2883 25.1706 60.6287 26.8834C61.619 28.1475 62.2638 29.5397 62.4204 31.1427C62.6001 33.0021 62.0427 34.6783 61.1353 36.2629C60.4767 37.4124 59.6108 38.365 58.3902 38.9466C57.515 39.3634 56.5846 39.5924 55.622 39.6199C53.9868 39.6657 52.3563 39.6702 50.7211 39.684C50.4402 39.684 50.1592 39.6473 49.8829 39.6244C49.6756 39.6061 49.5742 39.5054 49.5742 39.281C49.5835 35.2187 49.5881 31.1518 49.5881 27.0895C49.5881 26.2835 49.542 25.4729 49.519 24.6668C49.519 24.5569 49.519 24.4424 49.519 24.305L49.5098 24.3004ZM51.716 32.0449C51.716 32.741 51.716 33.4326 51.716 34.1287C51.716 35.1362 51.716 36.1392 51.7299 37.1468C51.7299 37.2613 51.8082 37.4674 51.868 37.4719C52.3517 37.5269 52.8399 37.5681 53.3282 37.5727C54.102 37.5819 54.8804 37.5635 55.6542 37.5544C55.7325 37.5544 55.8108 37.5269 55.8891 37.4994C56.0135 37.4536 56.1286 37.3803 56.2576 37.3483C58.2612 36.8674 59.5048 35.5896 60.0437 33.6524C60.4398 32.2235 60.2878 30.7946 59.7259 29.4252C59.164 28.0604 58.1184 27.1949 56.7182 26.7827C56.147 26.6132 55.5298 26.5583 54.931 26.5308C54.0283 26.485 53.1163 26.4942 52.2089 26.5125C51.7575 26.5216 51.716 26.5949 51.716 27.0392C51.716 28.7108 51.716 30.3778 51.716 32.0495V32.0449Z" fill="#797B86"/>
<path d="M101.715 18.4108C101.272 18.4108 100.803 18.3696 100.342 18.42C99.7801 18.4841 99.4392 18.2689 99.0845 17.843C96.6203 14.8752 94.1331 11.9304 91.6458 8.98561C91.328 8.61007 90.9641 8.27574 90.6233 7.9231C90.5864 7.94142 90.5496 7.96432 90.5174 7.98264C90.522 8.07423 90.5312 8.16125 90.5312 8.25284C90.5174 8.65587 90.4989 9.06347 90.4851 9.46649C90.4851 9.55809 90.4713 9.64968 90.4851 9.74128C90.5174 10.0573 90.5864 10.3733 90.5911 10.6893C90.6187 12.9609 90.6325 15.2325 90.6463 17.4995C90.6463 17.6185 90.5957 17.7422 90.5496 17.9391C90.7338 18.2551 90.6233 18.4612 90.1397 18.4566C89.7574 18.4566 89.3659 18.4521 88.9882 18.3925C88.5828 18.3284 88.4999 18.1132 88.6243 17.7147C88.675 17.5498 88.6796 17.3667 88.6796 17.1926C88.6796 13.3868 88.6796 9.58099 88.6796 5.77517C88.6796 5.4729 88.698 5.17522 88.6842 4.87295C88.6703 4.57526 88.7164 4.29131 88.4999 3.99821C88.3756 3.82875 88.4354 3.41199 88.5644 3.19674C88.7164 2.94943 89.3797 3.02271 89.5869 3.2517C89.9324 3.62724 90.264 4.01195 90.5911 4.40123C93.3915 7.69411 96.1874 10.9961 98.9878 14.2844C99.1214 14.4402 99.3241 14.5363 99.4945 14.66C99.5451 14.4722 99.6419 14.2844 99.6419 14.0921C99.6511 12.7319 99.6373 11.3763 99.6419 10.0161C99.6419 8.08797 99.6557 6.15987 99.6649 4.23178C99.6649 4.13102 99.6741 4.02111 99.6419 3.92493C99.4346 3.27918 99.5774 3.06851 100.231 3.08683C100.512 3.09141 100.793 3.11888 101.074 3.14636C101.535 3.18758 101.719 3.39367 101.719 3.89287C101.728 5.18896 101.728 6.48504 101.728 7.78112C101.728 10.6343 101.728 13.483 101.724 16.3362C101.724 17.014 101.724 17.6964 101.724 18.4063L101.715 18.4108ZM90.4252 16.6934H90.5128V14.1654H90.4252V16.6934Z" fill="#797B86"/>
<path d="M137.614 9.22374C138.876 9.28328 140.124 9.38404 141.335 9.78248C142.772 10.2542 143.629 11.2068 143.901 12.6998C144.311 14.9485 143.412 16.7438 141.266 17.8842C139.765 18.6765 138.162 18.878 136.485 18.7406C134.385 18.5711 132.667 17.6643 131.225 16.1805C131.133 16.0843 131.013 15.9881 130.972 15.869C130.93 15.75 130.926 15.5576 130.995 15.4843C131.312 15.1409 131.649 14.8157 132.003 14.5134C132.312 14.2524 132.524 14.2661 132.754 14.5684C133.574 15.64 134.712 16.1805 135.983 16.4965C137.641 16.9087 139.198 16.5469 140.617 15.6996C141.879 14.9439 142.077 13.3639 141.146 12.3518C140.653 11.8159 139.995 11.6007 139.309 11.5136C138.599 11.4221 137.876 11.4083 137.158 11.3992C136.047 11.3808 134.947 11.3167 133.906 10.9045C132.363 10.2954 131.492 9.16879 131.382 7.52006C131.34 6.86057 131.589 6.23771 131.888 5.6515C132.763 3.94781 134.196 3.02727 136.075 2.7708C137.862 2.52349 139.594 2.72043 141.197 3.58601C141.787 3.90659 142.335 4.3142 142.878 4.71264C143.256 4.99201 143.247 5.0836 142.966 5.44541C142.758 5.71562 142.556 5.99956 142.33 6.25145C142.008 6.61326 141.708 6.64532 141.358 6.32015C140.34 5.35839 139.092 5.01949 137.747 4.90499C136.964 4.83629 136.204 4.88667 135.49 5.22558C134.703 5.60112 134.145 6.19192 133.938 7.06208C133.767 7.76737 134.007 8.35816 134.638 8.73371C135.195 9.06803 135.822 9.18711 136.457 9.21916C136.844 9.24206 137.227 9.21916 137.614 9.21916V9.22374Z" fill="#797B86"/>
<path d="M144.094 39.6245C144.149 39.4734 144.181 39.3635 144.227 39.2673C146.544 34.518 148.866 29.7733 151.182 25.0241C151.288 24.8088 151.385 24.5936 151.482 24.3738C151.583 24.1448 151.74 24.012 152.007 24.0165C152.274 24.0165 152.389 24.1814 152.486 24.3875C153.361 26.2423 154.232 28.0971 155.116 29.952C156.553 32.9746 157.999 35.9881 159.441 39.0108C159.529 39.1894 159.588 39.3818 159.681 39.6153C158.893 39.6153 158.179 39.6291 157.465 39.6016C157.354 39.6016 157.212 39.423 157.152 39.2948C156.885 38.7452 156.631 38.1864 156.401 37.6231C156.318 37.4216 156.217 37.385 156.005 37.3804C154.642 37.3804 153.274 37.3575 151.91 37.3346C150.616 37.3117 149.358 37.4812 148.147 37.9437C147.465 38.2048 146.917 38.6169 146.581 39.2948C146.507 39.4413 146.291 39.597 146.13 39.6062C145.476 39.6428 144.822 39.6199 144.094 39.6199V39.6245ZM155.167 35.1684C155.185 35.1317 155.208 35.0951 155.226 35.063C154.112 32.9197 152.997 30.7763 151.836 28.546C150.685 31.0328 149.57 33.428 148.423 35.9057C148.594 35.8645 148.654 35.8599 148.709 35.837C149.487 35.4935 150.307 35.292 151.15 35.2462C152.117 35.1958 153.085 35.1913 154.057 35.1729C154.43 35.1638 154.798 35.1729 155.171 35.1729L155.167 35.1684Z" fill="#797B86"/>
<path d="M130.503 18.4246C130.392 18.3192 130.286 18.2093 130.176 18.104C130.157 18.1131 130.139 18.1223 130.12 18.1314C130.134 18.2139 130.148 18.2917 130.166 18.3971C129.581 18.3971 129.001 18.4108 128.421 18.3833C128.315 18.3788 128.177 18.223 128.121 18.1085C127.886 17.646 127.661 17.1788 127.467 16.7025C127.306 16.3041 127.039 16.1942 126.62 16.2033C125.339 16.2262 124.054 16.1713 122.774 16.2171C121.82 16.2491 120.862 16.3362 119.923 16.5056C118.859 16.6934 117.988 17.2475 117.435 18.2139C117.385 18.3055 117.256 18.4154 117.164 18.4154C116.468 18.4337 115.777 18.4246 115.059 18.4246C115.082 18.3513 115.091 18.2826 115.118 18.223C116.666 15.0584 118.218 11.8983 119.761 8.73369C120.627 6.95672 121.489 5.1706 122.35 3.38906C122.378 3.3341 122.41 3.27914 122.437 3.22419C122.548 3.01351 122.686 2.83032 122.949 2.83032C123.239 2.83032 123.359 3.03183 123.465 3.25624C124.413 5.27136 125.367 7.28647 126.316 9.297C127.619 12.0586 128.927 14.8248 130.231 17.5864C130.351 17.8429 130.489 18.0902 130.618 18.3421C130.576 18.3742 130.539 18.4017 130.498 18.4337L130.503 18.4246ZM122.783 7.40097C121.636 9.87406 120.521 12.2647 119.411 14.6554C119.494 14.692 119.513 14.7103 119.531 14.7103C119.572 14.7058 119.614 14.6966 119.651 14.6783C120.66 14.1608 121.751 14.0371 122.861 14.0417C123.059 14.0417 123.253 14.1287 123.451 14.1699C123.741 14.2249 124.003 14.2157 124.312 14.1195C124.708 13.9959 125.169 14.0875 125.597 14.0783C125.758 14.0737 125.979 14.0875 126.058 13.9959C126.127 13.9134 126.072 13.6753 126.002 13.5425C125.137 11.8571 124.261 10.1717 123.382 8.49096C123.207 8.15205 123.013 7.82689 122.778 7.40555L122.783 7.40097Z" fill="#797B86"/>
<path d="M85.8139 24.3554C86.1317 24.3554 86.4219 24.3554 86.7121 24.3554C89.1533 24.3554 91.5945 24.3737 94.0356 24.36C96.1544 24.3462 97.7527 25.5874 98.1442 27.662C98.4436 29.2558 98.1212 30.7168 96.9559 31.9167C96.2557 32.6357 95.3622 32.9792 94.3811 33.0296C93.2895 33.0891 92.1932 33.0937 91.1016 33.0891C90.2265 33.0891 89.3836 33.2219 88.5453 33.4509C88.186 33.5471 87.9695 33.8356 87.9695 34.2066C87.9695 35.6996 87.9695 37.1926 87.9695 38.6856C87.9695 38.8734 87.9879 39.0566 88.011 39.2443C88.0386 39.4825 87.9189 39.6107 87.7024 39.6153C87.2786 39.6245 86.8503 39.6062 86.4265 39.5878C86.0857 39.5741 85.9291 39.3497 85.883 39.0474C85.8415 38.7818 85.8093 38.5116 85.8093 38.246C85.8047 33.6845 85.8047 29.1184 85.8047 24.5569C85.8047 24.5065 85.8093 24.4562 85.8185 24.3554H85.8139ZM87.9511 26.4988C87.9511 28.0879 87.9511 29.6313 87.9511 31.1702C87.9511 31.422 88.0662 31.4495 88.2919 31.3854C88.8769 31.2205 89.4665 30.9915 90.0653 30.9549C91.3549 30.877 92.6492 30.9183 93.9389 30.8862C94.8647 30.8633 95.7353 30.4099 95.984 29.3153C96.2511 28.1383 95.8873 27.1766 94.8924 26.7644C94.5008 26.6041 94.0495 26.5171 93.6211 26.5079C91.9537 26.4804 90.2863 26.4942 88.619 26.4942H87.9465L87.9511 26.4988Z" fill="#797B86"/>
<path d="M80.0013 12.5624V9.97481C79.9736 9.97481 79.9414 9.96565 79.9138 9.96107C79.8953 10.0298 79.8585 10.0939 79.8539 10.1626C79.8539 10.8587 79.8401 11.5503 79.8539 12.2464C79.8631 12.6677 79.9506 13.0891 79.9414 13.5104C79.9045 15.2782 79.1215 16.6522 77.6522 17.6277C76.4869 18.4016 75.1604 18.6993 73.7832 18.7909C72.1941 18.8917 70.6695 18.6306 69.2416 17.9162C67.8829 17.2338 67.0492 16.1255 66.6208 14.6737C66.3444 13.7348 66.2615 12.7914 66.2661 11.8205C66.2753 9.14586 66.2661 6.47126 66.2661 3.79665C66.2661 3.68216 66.2615 3.56766 66.28 3.45317C66.3122 3.24708 66.4135 3.11884 66.653 3.128C67.0169 3.14174 67.3854 3.12342 67.7493 3.14174C68.2375 3.16922 68.4218 3.35241 68.4218 3.84245C68.4402 5.99954 68.454 8.15662 68.4586 10.3091C68.4586 11.106 68.431 11.9075 68.4402 12.7044C68.4494 13.7028 68.8501 14.5729 69.4074 15.379C69.4489 15.4339 69.518 15.4752 69.5779 15.5164C71.0978 16.5789 72.7652 16.8766 74.5662 16.4827C74.8195 16.4278 75.0682 16.3499 75.317 16.2812C76.7586 15.8965 77.5693 14.9393 77.8318 13.5058C77.9055 13.1028 77.9608 12.686 77.9608 12.2739C77.97 9.37027 77.9608 6.46668 77.9608 3.56308C77.9608 3.11884 77.97 3.1051 78.426 3.06846C78.6747 3.05014 78.9235 3.01809 79.1722 3.01351C79.8309 3.00893 80.0427 3.20586 80.0565 3.85161C80.0842 5.28051 80.1072 6.71399 80.1164 8.14289C80.1256 9.44813 80.1164 10.758 80.1118 12.0632C80.1118 12.2281 80.0934 12.3929 80.0842 12.5532C80.0519 12.5532 80.0243 12.5532 79.9921 12.5532L80.0013 12.5624ZM79.9552 4.36455C79.9092 4.36913 79.8677 4.37371 79.8216 4.38287C79.8539 5.16601 79.8907 5.94458 79.923 6.72773C79.9506 6.72773 79.9829 6.72773 80.0105 6.72773C80.0105 5.9858 80.0105 5.24387 80.0105 4.50194C80.0105 4.45614 79.9736 4.41493 79.9552 4.36913V4.36455ZM79.8953 9.14586C79.9184 9.14586 79.9414 9.14586 79.969 9.14586V7.9139C79.946 7.9139 79.923 7.9139 79.8953 7.9139V9.15044V9.14586Z" fill="#797B86"/>
<path d="M109.693 3.07306C111.475 3.07306 113.258 3.07306 115.045 3.07306C115.261 3.07306 115.482 3.1097 115.699 3.1097C116.04 3.1097 116.169 3.30663 116.169 3.60432C116.169 3.99818 116.146 4.39205 116.109 4.78133C116.081 5.0607 115.901 5.23015 115.62 5.27595C115.427 5.30801 115.229 5.33549 115.031 5.33549C113.861 5.34007 112.696 5.33549 111.526 5.33549C110.922 5.33549 110.743 5.46372 110.71 6.0591C110.674 6.82392 110.71 7.59333 110.71 8.35816C110.706 11.303 110.697 14.2478 110.692 17.1926C110.692 17.504 110.71 17.8155 110.738 18.1223C110.761 18.3375 110.692 18.4246 110.466 18.42C109.904 18.4062 109.338 18.4062 108.776 18.4108C108.592 18.4108 108.518 18.3604 108.527 18.1589C108.555 17.6231 108.569 17.0827 108.569 16.5423C108.569 13.254 108.569 9.96567 108.569 6.67737C108.569 6.398 108.559 6.11863 108.523 5.83926C108.467 5.44082 108.329 5.32633 107.919 5.32633C106.468 5.32633 105.017 5.32633 103.571 5.32633C103.111 5.32633 103.069 5.28969 103.064 4.83629C103.064 4.53402 103.064 4.23633 103.069 3.93407C103.078 3.39823 103.276 3.18298 103.811 3.12802C104.092 3.10054 104.373 3.09596 104.654 3.09596C106.335 3.09596 108.011 3.09596 109.693 3.09596C109.693 3.0868 109.693 3.07306 109.693 3.0639V3.07306Z" fill="#797B86"/>
<path d="M139.608 39.5192C139.023 39.7756 138.447 39.6657 137.885 39.4505C137.784 39.4092 137.691 39.2077 137.687 39.0795C137.65 37.8475 137.622 36.611 137.618 35.379C137.609 32.5487 137.618 29.7138 137.618 26.8835V26.4942C137.47 26.4942 137.351 26.4942 137.231 26.4942C135.656 26.4942 134.08 26.4896 132.505 26.5034C132.229 26.5034 132.132 26.4163 132.141 26.1507C132.155 25.7065 132.16 25.2577 132.169 24.8134C132.173 24.5524 132.312 24.4058 132.57 24.3921C133.224 24.3554 133.882 24.3096 134.536 24.3096C137.839 24.3005 141.146 24.3005 144.453 24.3005C144.559 24.3005 144.66 24.3005 144.766 24.3096C145.098 24.3371 145.213 24.4745 145.08 24.7722C145.033 24.8684 145.043 24.9966 145.047 25.1065C145.07 25.4729 145.103 25.8393 145.135 26.2103C145.158 26.4576 145.015 26.4988 144.803 26.4988C143.26 26.4988 141.717 26.4988 140.174 26.4988C139.718 26.4988 139.718 26.5034 139.718 26.943C139.727 30.7992 139.737 34.66 139.737 38.5162C139.737 38.8505 139.654 39.1848 139.612 39.5237C139.446 39.194 139.193 39.3543 138.954 39.4459C139.175 39.4688 139.396 39.4917 139.617 39.5146L139.608 39.5192Z" fill="#797B86"/>
<path d="M85.069 10.845C85.069 13.1074 85.069 15.3653 85.069 17.6277C85.069 18.3879 84.9907 18.4704 84.2261 18.4612C83.9544 18.4612 83.6872 18.4337 83.4155 18.4017C83.1161 18.3696 82.9456 18.191 82.9226 17.8933C82.895 17.5819 82.8627 17.275 82.8627 16.9636C82.8581 12.6265 82.8535 8.29405 82.8535 3.95697C82.8535 3.12803 82.8996 3.08223 83.7425 3.10513C83.9636 3.10971 84.18 3.11429 84.3965 3.13719C84.8203 3.18757 84.9953 3.35702 85.0137 3.78294C85.046 4.61188 85.0644 5.44083 85.069 6.26977C85.0782 7.79485 85.069 9.31992 85.069 10.845C85.069 10.845 85.069 10.845 85.0644 10.845H85.069Z" fill="#797B86"/>
<path d="M163.085 24.7493V25.6515C163.062 25.6515 163.039 25.6515 163.016 25.6515V24.7493H163.085Z" fill="#797B86"/>
<path d="M119.545 33.4601V37.9941C119.545 37.9941 119.503 37.9941 119.48 37.9941V33.4601C119.48 33.4601 119.522 33.4601 119.545 33.4601Z" fill="#797B86"/>
<path d="M130.442 39.4458C130.179 39.4458 129.921 39.455 129.659 39.4458C129.396 39.4367 129.134 39.4092 128.871 39.3451H130.437C130.437 39.3772 130.437 39.4138 130.437 39.4458H130.442Z" fill="#797B86"/>
<path d="M119.471 32.1411V30.9457H119.54V32.1411H119.471Z" fill="#797B86"/>
<path d="M119.263 39.4367H118.434V39.3497H119.263V39.4367Z" fill="#797B86"/>
<path d="M90.4258 16.6934V14.1653H90.5133V16.698H90.4258V16.6934Z" fill="#797B86"/>
<path d="M79.9558 4.36456C79.9743 4.41036 80.0111 4.45158 80.0111 4.49738C80.0111 5.23931 80.0111 5.98124 80.0111 6.72316C79.9835 6.72316 79.9512 6.72316 79.9236 6.72316C79.8914 5.94002 79.8545 5.16145 79.8223 4.3783C79.8683 4.37372 79.9098 4.36914 79.9558 4.35999V4.36456Z" fill="#797B86"/>
<path d="M79.8965 9.14591V7.90936C79.9195 7.90936 79.9425 7.90936 79.9702 7.90936V9.14133C79.9471 9.14133 79.9241 9.14133 79.8965 9.14133V9.14591Z" fill="#797B86"/>
<path d="M139.609 39.5191C139.387 39.4962 139.166 39.4733 138.945 39.4504C139.185 39.3543 139.434 39.1986 139.604 39.5283L139.609 39.5237V39.5191Z" fill="#797B86"/>
<path d="M0.000699766 30.4511C0.0836081 30.5793 0.0191238 30.735 0.0974261 30.9091C0.180334 30.7076 0.189546 30.5381 0.194152 30.3641C0.212576 29.0085 0.382999 27.6712 0.742268 26.3659C1.17523 24.7859 2.06419 23.4944 3.31703 22.4364C4.74029 21.2365 6.40306 20.4671 8.13953 19.8534C10.2859 19.0978 12.506 18.6673 14.7584 18.3925C16.2553 18.2093 17.7569 18.0856 19.2631 17.9528C20.9627 17.8017 22.6577 17.6368 24.3573 17.4811C25.2877 17.3941 26.2181 17.3208 27.1486 17.2384C27.213 17.2338 27.2913 17.2109 27.3328 17.2704C27.3881 17.3437 27.319 17.4078 27.2775 17.4674C26.7478 18.191 26.2181 18.9146 25.6746 19.629C24.758 20.8381 23.8046 22.0197 22.8143 23.1692C22.0082 24.1081 21.1976 25.0515 20.3455 25.9492C19.5118 26.8239 18.6827 27.7032 17.8122 28.5459C16.0112 30.2908 14.0997 31.8937 11.9809 33.2494C9.4154 34.8889 6.67942 36.1392 3.70854 36.872C2.85643 37.0827 1.9905 37.2246 1.11536 37.3254C0.733056 37.3712 0.336939 37.4032 -0.00390625 37.1422V30.4557L0.000699766 30.4511Z" fill="#98CACF"/>
<path d="M5.51796 0C5.42584 0.0274788 5.33372 0.0549576 5.237 0.0824365C5.24621 0.192352 5.33372 0.178612 5.40281 0.183192C6.57274 0.265629 7.70121 0.549576 8.81587 0.883902C11.5795 1.71285 14.1496 2.94023 16.5309 4.5569C18.0233 5.56904 19.4373 6.67735 20.8099 7.84062C22.5694 9.33364 24.1723 10.9869 25.8029 12.6174C26.6227 13.4371 27.3919 14.3073 28.1289 15.2004C28.1934 15.2782 28.3131 15.3515 28.2625 15.466C28.2164 15.5668 28.0874 15.5255 27.9907 15.5255C26.7102 15.5255 25.4298 15.5713 24.1493 15.5118C22.422 15.4294 20.6902 15.4477 18.9629 15.3286C17.5305 15.2278 16.098 15.1958 14.6747 14.9943C12.6573 14.7103 10.6583 14.3439 8.75599 13.5791C7.5354 13.0891 6.41614 12.4296 5.48112 11.5045C4.34804 10.3824 3.73544 8.99931 3.50514 7.44676C3.32089 6.21937 3.15047 4.98741 3.0215 3.75086C2.91096 2.69292 2.88332 1.62583 2.90175 0.563316C2.90635 0.348065 3.04914 0.196932 3.05375 0C3.87362 0 4.69809 0 5.51796 0Z" fill="#4AB8CD"/>
<path d="M13.652 38.8504C13.5185 38.8504 13.3895 38.8504 13.2559 38.8504C13.1914 38.8504 13.1131 38.8596 13.0809 38.7863C13.0487 38.7039 13.1131 38.6489 13.1684 38.6031C13.2697 38.5207 13.3757 38.4428 13.4816 38.365C14.7621 37.4536 15.9366 36.414 17.0973 35.3561C18.0324 34.4996 18.9075 33.5837 19.7827 32.6723C21.1414 31.2571 22.3666 29.7321 23.5412 28.1612C24.9368 26.2972 26.1942 24.3462 27.3457 22.3265C28.1426 20.9343 28.9026 19.5191 29.5612 18.0581C29.5981 17.9757 29.6257 17.8475 29.7455 17.8658C29.8514 17.8795 29.8882 18.0032 29.9067 18.0948C30.0356 18.6398 30.1554 19.1893 30.2752 19.7343C30.639 21.351 31.0167 22.9677 31.3622 24.5889C31.6339 25.8621 31.9103 27.1353 31.9932 28.436C32.0945 30.0389 31.6247 31.4724 30.6068 32.7456C29.1513 34.5683 27.2398 35.7179 25.098 36.5422C22.7489 37.449 20.3077 38.0215 17.8205 38.4062C16.4341 38.6169 15.0431 38.7726 13.6382 38.8459L13.652 38.8504Z" fill="#4AB8CD"/>
<path d="M45.0789 7.1445C45.0098 8.33066 44.9315 9.48935 44.738 10.6343C44.5446 11.8022 43.8813 12.6952 42.9233 13.373C41.523 14.3577 39.934 14.8706 38.262 15.1775C37.0276 15.4019 35.7793 15.5255 34.5311 15.6629C33.3427 15.7957 32.1544 15.9194 30.9614 16.0385C30.8048 16.0522 30.5884 16.1301 30.5054 15.9881C30.4364 15.869 30.6206 15.7408 30.6989 15.6217C31.5648 14.3027 32.5689 13.0937 33.6007 11.9029C35.1575 10.1122 36.8157 8.42684 38.8377 7.13992C40.5604 6.04992 42.4074 5.2851 44.4432 5.00573C44.7795 4.95993 44.89 5.03321 44.9453 5.37211C45.0374 5.96749 45.0098 6.57202 45.0743 7.1445H45.0789Z" fill="#98CACF"/>
<path d="M33.8125 33.2677C33.8217 33.1257 33.8954 33.0067 33.9507 32.8876C34.5633 31.5274 35.1298 30.1489 35.5213 28.7108C35.8576 27.4697 36.0694 26.2102 36.1247 24.9141C36.2076 22.8761 35.8253 20.9206 35.2173 18.997C35.0745 18.5482 34.9272 18.0994 34.7844 17.6506C34.7659 17.5956 34.7107 17.5223 34.7844 17.4765C34.8396 17.4399 34.8903 17.504 34.9364 17.5315C35.3141 17.7559 35.5858 18.104 35.9082 18.3925C36.7189 19.1161 37.5203 19.8489 38.2942 20.6137C38.7087 21.0259 39.1417 21.4289 39.4871 21.9098C40.3623 23.1234 40.4866 24.4378 40.0398 25.8301C39.5977 27.1995 38.8285 28.3856 37.9072 29.4756C37.2808 30.2176 36.6682 30.9732 35.9405 31.619C35.3233 32.164 34.6876 32.6952 34.0244 33.1853C33.9691 33.2265 33.9184 33.2906 33.8125 33.2723V33.2677Z" fill="#98CACF"/>
<path d="M33.8077 20.4122C33.8215 20.5312 33.7708 20.7098 33.6879 20.8793C33.5267 21.2045 33.3978 21.2411 33.0938 21.0396C32.693 20.774 32.3614 20.4396 32.1173 20.0275C31.7995 19.5008 31.5461 18.9512 31.3389 18.3741C31.3204 18.3238 31.2836 18.2688 31.3343 18.2138C31.3711 18.1818 31.4126 18.2047 31.4494 18.223C32.0021 18.4886 32.5917 18.681 33.1076 19.0199C33.582 19.3313 33.8031 19.7801 33.8123 20.4122H33.8077Z" fill="#4AB8CD"/>
</g>
<defs>
<clipPath id="clip0_1108_1736">
<rect width="171.892" height="40" fill="white"/>
</clipPath>
</defs>
</svg>
